<svg width="2008" height="2028" viewBox="0 0 2008 2028" fill="none" xmlns="http://www.w3.org/2000/svg">
<g filter="url(#filter0_d_91_45)">
<rect x="4" width="2000" height="2019.37" rx="135" fill="white"/>
<g filter="url(#filter1_d_91_45)">
<path d="M956.058 1864.41H885.356V1812.11H956.058V1864.41ZM1171.07 1864.41L1126.52 1799.52L1081.97 1864.41H1004.48L1081.97 1759.81L1011.26 1663.92H1087.78L1127.49 1725.91L1166.23 1663.92H1241.77L1172.04 1760.77L1248.55 1864.41H1171.07ZM1452.91 1780.15V1864.41H1383.18V1780.15L1296.01 1663.92H1372.52L1418.04 1731.72L1463.56 1663.92H1540.08L1452.91 1780.15ZM1788.99 1864.41H1575.91V1822.76L1700.85 1706.54H1588.5V1663.92H1785.11V1703.63L1659.21 1820.82H1789.96V1864.41H1788.99Z" fill="black"/>
</g>
<g filter="url(#filter2_d_91_45)">
<path d="M1058.72 356.416C1040.32 330.266 1019.98 306.053 996.736 283.777C909.569 200.484 788.504 149.153 655.816 149.153C389.472 149.153 172.523 355.448 172.523 609.201C172.523 862.954 389.472 1069.25 655.816 1069.25C695.525 1069.25 734.266 1064.41 772.039 1055.69V957.869C735.235 968.523 696.494 975.303 655.816 975.303C441.772 975.303 268.407 811.622 268.407 610.169C268.407 408.717 442.741 245.036 655.816 245.036C765.259 245.036 864.048 287.651 934.751 356.416C940.562 362.228 946.373 368.039 952.184 373.85C952.184 374.818 953.152 374.818 953.152 375.787C957.995 381.598 963.806 388.378 968.649 394.189C973.491 400 978.334 406.78 982.208 413.559C983.177 414.528 984.145 415.496 984.145 416.465C1013.2 460.048 1032.57 508.475 1039.35 561.743H953.152C951.215 577.24 949.278 593.705 949.278 609.201C949.278 625.666 950.247 641.162 952.184 656.659H1038.38H1085.84H1135.23C1137.17 641.162 1138.14 624.697 1138.14 609.201C1138.14 516.223 1109.08 429.056 1058.72 356.416Z" fill="black"/>
<path d="M854.363 610.169C854.363 593.705 855.332 578.208 857.269 562.712H371.07V658.596H856.3C855.332 641.162 854.363 625.666 854.363 610.169Z" fill="black"/>
</g>
<g filter="url(#filter3_d_91_45)">
<path d="M850.489 1584.5C850.489 1606.78 850.489 1620.34 850.489 1621.31H946.373C946.373 1620.34 946.373 1584.5 946.373 1533.17C916.349 1553.51 884.388 1570.94 850.489 1584.5Z" fill="black"/>
<path d="M1764.78 1207.75H1814.17C1816.11 1192.25 1817.08 1175.79 1817.08 1160.29C1817.08 906.538 1600.13 700.242 1333.78 700.242C1067.44 700.242 850.489 906.538 850.489 1160.29C850.489 1163.2 850.489 1345.28 850.489 1478.93C886.325 1460.53 918.286 1436.32 946.373 1408.23C946.373 1288.14 946.373 1161.26 946.373 1159.32C946.373 957.869 1120.71 794.189 1333.78 794.189C1530.39 794.189 1693.1 932.688 1718.29 1111.86H1014.17V1174.82V1208.72L1043.23 1228.09L1075.19 1249.39L1620.46 1618.4H1784.15L1211.75 1205.81H1718.29H1764.78V1207.75Z" fill="black"/>
</g>
<g filter="url(#filter4_d_91_45)">
<path d="M1142.98 1112.83C1140.08 1081.84 1132.33 1051.82 1123.61 1022.76C1083.9 1004.36 1048.07 980.145 1015.14 953.027C1009.33 960.775 1003.52 969.491 997.705 978.208C1022.89 1018.89 1039.35 1064.41 1046.13 1112.83H1142.98Z" fill="#FF6633"/>
<path d="M404.968 888.136C473.733 830.993 563.806 795.157 662.595 795.157C768.164 795.157 865.017 835.835 934.75 900.726C939.593 894.915 943.467 888.136 948.31 882.324C917.317 841.646 892.135 797.094 876.639 747.7C811.748 716.707 739.109 700.242 662.595 700.242C537.656 700.242 424.339 745.763 338.14 819.37C357.511 844.552 379.787 867.797 404.968 888.136Z" fill="#FF6633"/>
<path d="M945.404 1409.2C917.317 1437.29 885.356 1460.53 849.52 1479.9C794.315 1508.96 729.424 1525.42 661.627 1525.42C447.583 1525.42 274.218 1361.74 274.218 1160.29C274.218 1085.71 298.431 1015.98 339.109 957.869C313.927 937.53 291.651 914.286 271.312 889.104C213.201 965.617 178.334 1058.6 178.334 1160.29C178.334 1414.04 395.283 1620.34 661.627 1620.34C728.455 1620.34 791.409 1607.75 849.52 1584.5C883.419 1570.94 915.38 1553.51 945.404 1533.17C1031.6 1473.12 1096.49 1386.92 1126.52 1287.17L1042.26 1230.02C1028.7 1298.79 993.83 1359.81 945.404 1409.2Z" fill="#FF6633"/>
</g>
<g filter="url(#filter5_d_91_45)">
<path d="M1336.69 245.036C1489.71 245.036 1622.4 328.329 1685.36 450.363H1789.96C1721.19 275.061 1543.95 150.121 1336.69 150.121C1204 150.121 1082.93 201.453 995.768 284.746C1019.01 307.022 1039.35 331.235 1057.75 357.385C1128.46 287.651 1228.21 245.036 1336.69 245.036Z" fill="#0099FF"/>
<path d="M1819.98 610.169C1819.98 593.705 1819.01 578.208 1817.07 562.712H1767.68H1720.22H1200.13V658.596H1720.22C1718.29 673.123 1715.38 686.683 1711.51 700.242C1710.54 703.148 1709.57 706.053 1708.6 709.927C1707.63 712.833 1706.66 715.738 1705.69 717.676C1704.73 720.581 1703.76 723.487 1702.79 727.361C1701.82 731.235 1699.88 734.14 1698.92 738.015C1697.95 741.889 1696.01 744.794 1694.07 748.668C1692.14 752.542 1690.2 756.416 1688.26 760.291C1687.29 762.228 1686.32 765.133 1685.36 767.07C1683.42 770.944 1681.48 775.787 1678.58 779.661C1677.61 780.63 1676.64 782.567 1676.64 783.535C1673.73 789.346 1669.86 794.189 1666.95 800C1665.99 800.969 1665.02 802.906 1664.05 803.874C1661.14 808.717 1658.24 812.591 1654.36 817.433C1653.39 818.402 1653.39 818.402 1652.43 819.37C1651.46 820.339 1651.46 821.308 1650.49 822.276C1648.55 825.182 1645.65 828.087 1643.71 830.993C1640.8 834.867 1637.9 837.772 1634.99 841.647C1633.06 843.584 1632.09 845.521 1630.15 847.458C1627.24 851.332 1623.37 854.237 1620.46 858.111C1619.5 859.08 1618.53 860.048 1616.59 861.985C1611.75 866.828 1607.87 870.702 1603.03 874.576C1602.06 875.545 1601.09 876.513 1599.16 877.482C1595.28 881.356 1590.44 884.261 1586.57 888.136L1585.6 889.104C1573.01 899.758 1559.45 908.475 1545.89 917.191C1545.89 917.191 1545.89 917.191 1544.92 917.191C1541.05 920.097 1536.2 922.034 1531.36 924.939C1530.39 924.939 1530.39 925.908 1529.42 925.908C1525.55 927.845 1521.68 930.751 1516.83 932.688C1515.86 932.688 1514.9 933.656 1513.93 933.656C1510.05 935.593 1506.18 937.53 1502.3 939.467C1501.34 940.436 1500.37 940.436 1498.43 941.404C1494.56 943.341 1490.68 944.31 1486.81 946.247C1485.84 947.215 1483.9 947.216 1482.93 948.184C1479.06 950.121 1475.19 951.09 1472.28 952.058C1470.34 953.027 1469.38 953.027 1467.44 953.995C1463.56 954.964 1460.66 956.901 1456.78 957.869C1454.85 958.838 1452.91 958.838 1451.94 959.806C1448.07 960.775 1445.16 961.743 1441.29 962.712C1439.35 963.68 1437.41 963.68 1435.48 964.649C1431.6 965.617 1428.7 966.586 1424.82 967.555C1422.89 967.555 1420.95 968.523 1419.01 968.523C1415.14 969.492 1412.23 969.492 1408.36 970.46C1406.42 970.46 1404.48 971.429 1402.55 971.429C1398.67 972.397 1395.77 972.397 1391.89 973.366C1389.96 973.366 1388.02 974.334 1385.11 974.334C1381.24 974.334 1378.33 975.303 1374.46 975.303C1372.52 975.303 1370.59 975.303 1368.65 976.271C1364.77 976.271 1360.9 977.24 1357.03 977.24C1355.09 977.24 1353.15 977.24 1351.22 977.24C1345.4 977.24 1339.59 977.24 1333.78 977.24C1327.97 977.24 1322.16 977.24 1316.35 977.24C1314.41 977.24 1312.47 977.24 1310.54 977.24C1306.66 977.24 1302.79 977.24 1298.91 976.271C1296.98 976.271 1294.07 976.271 1292.14 975.303C1288.26 975.303 1285.36 974.334 1281.48 974.334C1279.54 974.334 1276.64 973.366 1274.7 973.366C1271.8 972.397 1267.92 972.397 1265.02 971.429C1263.08 971.429 1260.17 970.46 1258.24 970.46C1255.33 969.492 1251.46 969.492 1248.55 968.523C1246.61 967.555 1243.71 967.555 1241.77 966.586C1238.87 965.617 1234.99 964.649 1232.09 964.649C1230.15 963.68 1227.24 963.68 1225.31 962.712C1222.4 961.743 1218.53 960.775 1215.62 959.806C1213.68 958.838 1211.75 958.838 1208.84 957.869C1205.94 956.901 1202.06 955.932 1199.16 954.964C1197.22 953.995 1195.28 953.995 1193.35 953.027C1189.47 952.058 1186.57 950.121 1182.69 949.153C1180.76 948.184 1178.82 948.184 1177.85 947.216C1173.98 945.279 1170.1 944.31 1166.23 942.373C1165.26 941.404 1163.32 941.404 1162.35 940.436C1157.51 938.499 1152.67 935.593 1148.79 933.656C1148.79 933.656 1148.79 933.656 1147.83 933.656C1138.14 928.814 1128.45 923.002 1118.77 917.191C1113.93 914.286 1110.05 911.38 1105.21 908.475C1104.24 908.475 1104.24 907.506 1103.27 907.506C1099.4 904.6 1095.53 901.695 1091.65 899.758C1090.68 898.789 1089.71 898.789 1088.75 897.821C1084.87 894.915 1081.97 892.01 1078.09 889.104L1077.12 888.136C1051.94 908.475 1029.67 931.719 1011.26 956.901C1044.19 984.988 1080.03 1008.23 1119.74 1027.6C1120.71 1027.6 1120.71 1028.57 1121.68 1028.57C1128.45 1031.48 1136.2 1035.35 1143.95 1038.26C1143.95 1038.26 1144.92 1038.26 1144.92 1039.23C1152.67 1042.13 1161.38 1046 1170.1 1048.91H1171.07C1178.82 1051.82 1186.57 1053.75 1194.31 1055.69C1196.25 1056.66 1198.19 1056.66 1199.16 1057.63C1205.94 1059.56 1212.72 1061.5 1219.5 1062.47C1221.43 1062.47 1222.4 1063.44 1224.34 1063.44C1233.06 1065.38 1240.8 1067.31 1249.52 1068.28C1250.49 1068.28 1250.49 1068.28 1251.46 1068.28C1259.21 1069.25 1266.95 1070.22 1274.7 1071.19C1277.61 1071.19 1279.54 1072.15 1282.45 1072.15C1288.26 1073.12 1295.04 1073.12 1300.85 1074.09C1303.76 1074.09 1305.69 1074.09 1308.6 1074.09C1317.32 1074.09 1326.03 1075.06 1334.75 1075.06C1342.5 1075.06 1349.28 1075.06 1357.03 1074.09C1358.96 1074.09 1360.9 1074.09 1363.81 1074.09C1368.65 1074.09 1374.46 1073.12 1379.3 1073.12C1381.24 1073.12 1384.15 1072.15 1386.08 1072.15C1390.92 1071.19 1395.77 1071.19 1400.61 1070.22C1402.55 1070.22 1405.45 1069.25 1407.39 1069.25C1412.23 1068.28 1417.07 1068.28 1421.92 1067.31C1423.85 1067.31 1425.79 1066.34 1428.7 1066.34C1433.54 1065.38 1438.38 1064.41 1443.23 1063.44C1445.16 1063.44 1447.1 1062.47 1449.04 1062.47C1453.88 1061.5 1459.69 1059.56 1464.53 1058.6C1466.47 1058.6 1467.44 1057.63 1469.38 1057.63C1474.22 1055.69 1480.03 1054.72 1484.87 1052.78C1485.84 1052.78 1487.78 1051.82 1488.75 1051.82C1494.56 1049.88 1499.4 1047.94 1505.21 1046C1506.18 1046 1507.15 1045.04 1509.08 1045.04C1514.9 1043.1 1519.74 1041.16 1525.55 1038.26C1526.52 1038.26 1527.49 1037.29 1528.45 1037.29C1534.27 1035.35 1540.08 1032.45 1544.92 1029.54C1545.89 1029.54 1546.86 1028.57 1546.86 1028.57C1552.67 1025.67 1558.48 1022.76 1563.32 1019.85C1564.29 1019.85 1564.29 1018.89 1565.26 1018.89C1571.07 1015.98 1576.88 1013.08 1582.69 1009.2C1582.69 1009.2 1583.66 1009.2 1583.66 1008.23C1589.47 1005.33 1595.28 1001.45 1600.13 997.579H1601.09C1606.91 993.705 1612.72 989.831 1617.56 986.925C1621.43 984.019 1626.28 981.114 1630.15 978.208C1631.12 977.24 1633.06 976.271 1634.02 975.303C1636.93 973.366 1638.87 971.429 1641.77 969.492C1644.68 967.554 1646.61 965.617 1649.52 963.68C1651.46 961.743 1654.36 959.806 1656.3 957.869C1659.21 955.932 1662.11 953.027 1664.05 951.09C1665.99 949.153 1667.92 947.215 1669.86 945.278C1672.76 942.373 1675.67 939.467 1678.58 936.562C1680.51 934.625 1681.48 933.656 1683.42 931.719C1687.29 927.845 1690.2 924.939 1694.07 921.065C1695.04 920.097 1696.01 919.128 1696.98 918.16C1710.54 903.632 1722.16 888.136 1733.78 871.671C1734.75 869.734 1735.72 868.765 1737.66 866.828C1739.59 863.923 1741.53 861.017 1743.47 858.111C1745.4 856.174 1746.37 853.269 1748.31 851.332C1750.25 847.458 1752.18 844.552 1754.12 840.678C1755.09 838.741 1756.06 836.804 1757.99 834.867C1760.9 830.993 1762.84 826.15 1764.77 821.308C1765.74 820.339 1765.74 819.37 1766.71 817.433C1778.33 794.189 1788.99 769.976 1796.74 744.794V743.826C1798.67 738.015 1800.61 731.235 1801.58 725.424C1801.58 724.455 1801.58 724.455 1801.58 723.487C1803.52 717.676 1804.48 711.864 1805.45 706.053V705.085C1817.07 670.218 1819.98 640.194 1819.98 610.169Z" fill="#0099FF"/>
<path d="M1016.11 813.559C983.177 768.039 960.901 714.77 953.152 657.627C951.215 642.131 950.247 626.634 950.247 610.17C950.247 593.705 952.184 578.208 954.121 562.712C959.932 518.16 975.428 475.545 997.704 436.804C981.24 407.748 959.932 380.63 935.719 357.385C892.135 416.465 865.017 486.199 856.3 561.743C854.363 577.24 853.395 593.705 853.395 609.201C853.395 625.666 854.363 641.162 856.3 656.659C858.237 671.186 860.174 684.746 863.08 698.305V699.274C864.048 703.148 865.017 707.022 865.985 710.896C866.954 713.801 867.922 717.676 867.922 720.581C868.891 724.455 869.859 727.361 870.828 731.235C871.796 735.109 872.765 738.015 873.734 741.889C874.702 743.826 874.702 744.794 875.671 746.731C892.135 795.157 916.349 840.678 947.341 881.356C968.649 857.143 990.925 833.898 1016.11 813.559Z" fill="#0099FF"/>
</g>
</g>
<defs>
<filter id="filter0_d_91_45" x="0" y="0" width="2008" height="2027.37" filterUnits="userSpaceOnUse" color-interpolation-filters="sRGB">
<feFlood flood-opacity="0" result="BackgroundImageFix"/>
<feColorMatrix in="SourceAlpha" type="matrix" values="0 0 0 0 0 0 0 0 0 0 0 0 0 0 0 0 0 0 127 0" result="hardAlpha"/>
<feOffset dy="4"/>
<feGaussianBlur stdDeviation="2"/>
<feComposite in2="hardAlpha" operator="out"/>
<feColorMatrix type="matrix" values="0 0 0 0 0 0 0 0 0 0 0 0 0 0 0 0 0 0 0.25 0"/>
<feBlend mode="normal" in2="BackgroundImageFix" result="effect1_dropShadow_91_45"/>
<feBlend mode="normal" in="SourceGraphic" in2="effect1_dropShadow_91_45" result="shape"/>
</filter>
<filter id="filter1_d_91_45" x="881.356" y="1663.92" width="912.601" height="208.484" filterUnits="userSpaceOnUse" color-interpolation-filters="sRGB">
<feFlood flood-opacity="0" result="BackgroundImageFix"/>
<feColorMatrix in="SourceAlpha" type="matrix" values="0 0 0 0 0 0 0 0 0 0 0 0 0 0 0 0 0 0 127 0" result="hardAlpha"/>
<feOffset dy="4"/>
<feGaussianBlur stdDeviation="2"/>
<feComposite in2="hardAlpha" operator="out"/>
<feColorMatrix type="matrix" values="0 0 0 0 0 0 0 0 0 0 0 0 0 0 0 0 0 0 0.25 0"/>
<feBlend mode="normal" in2="BackgroundImageFix" result="effect1_dropShadow_91_45"/>
<feBlend mode="normal" in="SourceGraphic" in2="effect1_dropShadow_91_45" result="shape"/>
</filter>
<filter id="filter2_d_91_45" x="168.523" y="149.153" width="973.618" height="928.097" filterUnits="userSpaceOnUse" color-interpolation-filters="sRGB">
<feFlood flood-opacity="0" result="BackgroundImageFix"/>
<feColorMatrix in="SourceAlpha" type="matrix" values="0 0 0 0 0 0 0 0 0 0 0 0 0 0 0 0 0 0 127 0" result="hardAlpha"/>
<feOffset dy="4"/>
<feGaussianBlur stdDeviation="2"/>
<feComposite in2="hardAlpha" operator="out"/>
<feColorMatrix type="matrix" values="0 0 0 0 0 0 0 0 0 0 0 0 0 0 0 0 0 0 0.25 0"/>
<feBlend mode="normal" in2="BackgroundImageFix" result="effect1_dropShadow_91_45"/>
<feBlend mode="normal" in="SourceGraphic" in2="effect1_dropShadow_91_45" result="shape"/>
</filter>
<filter id="filter3_d_91_45" x="846.489" y="700.242" width="974.586" height="929.065" filterUnits="userSpaceOnUse" color-interpolation-filters="sRGB">
<feFlood flood-opacity="0" result="BackgroundImageFix"/>
<feColorMatrix in="SourceAlpha" type="matrix" values="0 0 0 0 0 0 0 0 0 0 0 0 0 0 0 0 0 0 127 0" result="hardAlpha"/>
<feOffset dy="4"/>
<feGaussianBlur stdDeviation="2"/>
<feComposite in2="hardAlpha" operator="out"/>
<feColorMatrix type="matrix" values="0 0 0 0 0 0 0 0 0 0 0 0 0 0 0 0 0 0 0.25 0"/>
<feBlend mode="normal" in2="BackgroundImageFix" result="effect1_dropShadow_91_45"/>
<feBlend mode="normal" in="SourceGraphic" in2="effect1_dropShadow_91_45" result="shape"/>
</filter>
<filter id="filter4_d_91_45" x="174.334" y="700.242" width="972.649" height="928.097" filterUnits="userSpaceOnUse" color-interpolation-filters="sRGB">
<feFlood flood-opacity="0" result="BackgroundImageFix"/>
<feColorMatrix in="SourceAlpha" type="matrix" values="0 0 0 0 0 0 0 0 0 0 0 0 0 0 0 0 0 0 127 0" result="hardAlpha"/>
<feOffset dy="4"/>
<feGaussianBlur stdDeviation="2"/>
<feComposite in2="hardAlpha" operator="out"/>
<feColorMatrix type="matrix" values="0 0 0 0 0 0 0 0 0 0 0 0 0 0 0 0 0 0 0.25 0"/>
<feBlend mode="normal" in2="BackgroundImageFix" result="effect1_dropShadow_91_45"/>
<feBlend mode="normal" in="SourceGraphic" in2="effect1_dropShadow_91_45" result="shape"/>
</filter>
<filter id="filter5_d_91_45" x="849.395" y="150.121" width="974.586" height="932.939" filterUnits="userSpaceOnUse" color-interpolation-filters="sRGB">
<feFlood flood-opacity="0" result="BackgroundImageFix"/>
<feColorMatrix in="SourceAlpha" type="matrix" values="0 0 0 0 0 0 0 0 0 0 0 0 0 0 0 0 0 0 127 0" result="hardAlpha"/>
<feOffset dy="4"/>
<feGaussianBlur stdDeviation="2"/>
<feComposite in2="hardAlpha" operator="out"/>
<feColorMatrix type="matrix" values="0 0 0 0 0 0 0 0 0 0 0 0 0 0 0 0 0 0 0.25 0"/>
<feBlend mode="normal" in2="BackgroundImageFix" result="effect1_dropShadow_91_45"/>
<feBlend mode="normal" in="SourceGraphic" in2="effect1_dropShadow_91_45" result="shape"/>
</filter>
</defs>
</svg>
