<?xml version="1.0" standalone="no"?>
<!DOCTYPE svg PUBLIC "-//W3C//DTD SVG 20010904//EN"
 "http://www.w3.org/TR/2001/REC-SVG-20010904/DTD/svg10.dtd">
<svg version="1.0" xmlns="http://www.w3.org/2000/svg"
 width="1724.000000pt" height="1724.000000pt" viewBox="0 0 1724.000000 1724.000000"
 preserveAspectRatio="xMidYMid meet">
<metadata>
Created by potrace 1.14, written by Peter Selinger 2001-2017
</metadata>
<g transform="translate(0.000000,1724.000000) scale(0.100000,-0.100000)"
fill="#000000" stroke="none">
<path d="M4978 17235 c-2 -1 -50 -5 -108 -9 -58 -4 -121 -9 -140 -11 -137 -13
-167 -16 -180 -20 -8 -2 -39 -7 -68 -10 -29 -3 -76 -10 -105 -16 -28 -5 -68
-12 -87 -15 -232 -36 -696 -172 -955 -279 -394 -163 -733 -353 -1066 -596 -61
-44 -120 -89 -132 -99 -244 -203 -262 -219 -395 -350 -588 -576 -1018 -1316
-1218 -2099 -53 -208 -93 -421 -109 -591 -4 -36 -9 -76 -11 -90 -8 -45 -17
-242 -18 -402 0 -102 -4 -158 -11 -158 -6 0 -5 -4 2 -8 7 -5 13 -50 15 -130 2
-67 6 -122 10 -122 3 0 5 -7 4 -16 -1 -9 1 -41 5 -72 5 -32 11 -79 14 -107 6
-50 11 -81 19 -120 15 -80 30 -174 30 -192 0 -12 3 -20 6 -18 7 4 33 -116 34
-157 1 -14 4 -24 8 -22 3 2 12 -22 19 -53 7 -32 16 -62 20 -68 4 -5 13 -38 20
-72 7 -35 17 -63 22 -63 5 0 7 -9 4 -20 -3 -11 -1 -20 4 -20 4 0 13 -19 20
-42 6 -24 14 -47 19 -53 4 -5 6 -18 4 -28 -1 -11 0 -16 3 -13 6 5 40 -78 47
-110 1 -7 7 -18 14 -26 6 -8 13 -25 14 -39 2 -13 9 -30 16 -37 7 -8 10 -18 7
-23 -4 -5 -1 -9 5 -9 6 0 8 -4 5 -10 -3 -5 -1 -10 4 -10 6 0 11 -9 11 -20 0
-11 5 -20 10 -20 6 0 9 -3 8 -7 -1 -5 8 -28 20 -52 12 -24 19 -48 15 -54 -3
-6 -1 -7 4 -4 6 4 20 -16 33 -48 12 -30 27 -55 32 -55 6 0 8 -9 5 -20 -3 -11
-2 -18 3 -15 8 5 17 -10 18 -29 0 -5 5 -12 10 -15 6 -3 12 -13 14 -21 2 -8 11
-23 21 -34 10 -11 15 -27 12 -35 -3 -9 -3 -12 1 -8 8 8 64 -75 64 -93 0 -5 5
-10 12 -10 6 0 9 -3 5 -6 -3 -4 -1 -12 6 -20 29 -32 37 -44 32 -44 -3 0 4 -10
15 -22 11 -12 18 -28 16 -35 -3 -7 2 -13 10 -13 11 0 14 -6 10 -16 -3 -8 -2
-12 4 -9 5 3 15 -5 22 -19 6 -14 15 -26 20 -26 4 0 8 -5 8 -11 0 -6 7 -17 15
-26 8 -8 12 -19 9 -25 -4 -6 -2 -8 3 -5 10 6 35 -22 44 -48 1 -5 12 -17 23
-26 18 -15 19 -19 6 -35 -13 -17 -13 -18 1 -7 12 10 18 10 27 1 7 -7 12 -15
12 -18 0 -4 20 -28 45 -55 24 -27 42 -51 39 -54 -2 -3 -11 4 -18 15 -45 61
-37 63 -102 -27 -391 -546 -623 -1057 -769 -1691 -12 -53 -34 -166 -39 -203
-4 -23 -9 -52 -11 -65 -3 -14 -8 -45 -11 -70 -3 -25 -7 -57 -10 -72 -2 -15 -6
-54 -9 -85 -3 -32 -8 -80 -11 -108 -5 -43 -14 -298 -14 -390 0 -56 18 -343 25
-400 24 -198 29 -231 41 -297 3 -18 7 -46 9 -63 2 -16 8 -41 13 -55 5 -14 9
-39 8 -57 0 -17 2 -29 7 -26 4 2 8 -7 9 -21 2 -47 3 -51 10 -56 4 -4 9 -23 10
-43 2 -20 7 -37 11 -37 4 0 7 -6 6 -13 -1 -6 1 -19 4 -27 15 -39 45 -160 39
-160 -4 0 -2 -4 3 -8 15 -10 37 -90 29 -104 -4 -6 -3 -8 4 -4 11 7 21 -15 35
-76 1 -7 6 -19 10 -25 5 -7 5 -18 1 -25 -4 -7 -3 -8 4 -4 7 4 12 1 12 -9 0 -8
4 -23 9 -33 16 -29 36 -87 33 -94 -1 -5 2 -8 8 -8 5 0 10 -5 10 -12 0 -6 12
-36 26 -67 60 -125 94 -202 97 -214 1 -6 9 -17 17 -24 8 -7 11 -13 6 -13 -5 0
-4 -6 2 -12 5 -7 23 -35 38 -63 15 -27 38 -68 51 -90 12 -22 28 -51 35 -65 7
-14 16 -29 21 -35 16 -22 107 -166 107 -171 0 -3 9 -14 20 -26 11 -12 20 -28
20 -35 0 -7 4 -13 8 -13 12 0 42 -56 34 -65 -4 -5 -2 -5 5 -1 7 4 19 -5 30
-21 10 -15 22 -31 27 -34 5 -4 5 -12 1 -19 -5 -8 -4 -11 2 -7 13 8 76 -70 68
-83 -4 -6 -3 -9 2 -8 5 2 37 -30 71 -69 35 -40 59 -73 55 -73 -4 0 0 -5 10
-11 9 -6 15 -15 11 -20 -3 -5 -2 -8 3 -7 14 5 56 -40 48 -51 -4 -7 -1 -10 7
-9 7 2 12 -3 10 -10 -1 -8 2 -11 8 -7 11 7 57 -44 52 -58 -1 -5 1 -6 6 -3 10
6 42 -29 42 -46 0 -6 3 -9 6 -5 7 6 79 -62 79 -75 0 -4 3 -7 6 -5 12 4 49 -35
42 -46 -3 -5 -1 -7 4 -4 6 4 18 -2 27 -12 10 -10 14 -21 9 -23 -4 -3 -3 -4 4
-2 10 2 45 -26 140 -112 12 -12 19 -25 15 -29 -4 -5 -1 -5 5 -1 8 4 27 -7 48
-28 19 -20 35 -33 35 -29 0 3 7 0 15 -7 11 -9 12 -16 5 -25 -7 -8 -5 -12 5
-12 8 0 12 4 9 9 -3 4 -1 8 4 8 12 0 33 -25 27 -32 -3 -2 11 -11 30 -18 21 -8
34 -19 31 -27 -3 -7 0 -15 6 -19 7 -4 8 -3 4 4 -4 7 -3 12 2 12 17 0 22 -13 9
-29 -11 -14 -10 -14 6 -2 13 11 20 11 32 1 8 -7 12 -17 8 -23 -3 -6 -1 -7 5
-3 11 7 102 -52 102 -67 0 -4 3 -6 8 -3 11 7 45 -21 38 -32 -3 -6 2 -8 14 -5
11 3 20 0 20 -6 0 -6 6 -11 13 -11 7 0 23 -9 35 -20 12 -11 26 -20 32 -20 5 0
10 -4 10 -10 0 -5 7 -10 16 -10 9 0 12 -5 8 -12 -4 -7 -3 -8 5 -4 6 4 18 2 27
-4 8 -7 29 -21 47 -30 17 -10 31 -23 30 -28 -1 -6 7 -8 17 -5 11 3 20 1 20 -5
0 -5 11 -13 25 -16 16 -4 23 -11 19 -18 -5 -7 -3 -8 6 -3 8 5 18 2 26 -9 7
-10 14 -16 17 -14 5 4 200 -94 208 -105 3 -5 10 -8 15 -8 15 1 64 -23 64 -32
0 -5 5 -5 10 -2 6 3 10 1 10 -5 0 -6 4 -9 9 -5 12 7 61 -15 61 -27 0 -5 3 -7
7 -5 13 8 55 -12 48 -23 -3 -5 0 -7 9 -4 8 3 21 2 28 -2 13 -9 18 -10 39 -13
5 0 7 -6 3 -12 -4 -8 0 -9 15 -4 12 4 21 2 21 -4 0 -6 6 -8 14 -5 7 3 20 -2
29 -10 8 -8 17 -13 20 -10 2 3 16 -1 31 -7 19 -9 23 -15 14 -21 -9 -5 -10 -8
-1 -8 6 0 15 5 18 10 4 6 11 8 16 4 6 -4 5 -12 -3 -22 -10 -14 -10 -15 2 -4
20 17 54 16 47 -3 -4 -8 -2 -17 4 -20 5 -4 8 -3 7 2 -5 14 15 14 65 2 38 -9
47 -15 42 -28 -5 -12 -3 -13 5 -4 16 15 140 -20 153 -42 6 -12 12 -13 21 -6
14 12 89 -7 80 -20 -2 -4 0 -11 6 -14 6 -4 9 -3 8 2 -3 7 6 15 15 12 1 0 15
-2 31 -4 16 -2 32 -8 35 -13 3 -4 15 -8 26 -9 11 0 36 -3 55 -7 19 -4 48 -9
64 -12 17 -2 32 -7 35 -12 3 -4 20 -7 36 -7 17 0 30 -5 30 -12 0 -6 4 -15 9
-20 5 -4 6 -3 2 4 -12 21 9 22 95 7 46 -8 93 -16 104 -17 11 0 26 -8 33 -17 8
-8 11 -9 7 -2 -4 8 1 12 15 12 12 0 19 -4 15 -9 -3 -5 -1 -13 5 -16 6 -4 10
-3 9 2 -4 20 2 24 18 12 14 -12 16 -12 8 0 -6 11 -5 12 6 5 13 -8 28 -10 122
-13 21 0 36 -5 33 -10 -4 -5 9 -6 29 -1 19 4 35 5 35 1 0 -4 25 -7 56 -6 39 0
58 -4 65 -15 5 -10 8 -11 9 -2 0 7 15 12 41 12 38 0 40 -1 28 -18 -13 -16 -13
-16 6 0 22 18 62 21 82 5 7 -5 18 -5 25 0 19 12 68 11 68 -1 0 -6 5 -4 10 4 9
13 10 13 10 0 0 -9 3 -11 8 -5 9 13 42 13 61 1 9 -6 12 -5 7 2 -8 13 34 13 52
-1 9 -7 17 -6 24 1 16 16 48 15 48 0 0 -9 3 -9 9 1 5 8 19 12 35 9 14 -3 27 0
30 6 3 7 8 7 14 -3 7 -9 12 -10 16 -2 4 6 11 9 15 7 4 -3 33 -1 64 3 49 7 59
5 74 -11 18 -20 33 -24 33 -7 0 5 -4 8 -9 5 -5 -3 -14 1 -21 9 -11 13 -6 15
36 16 27 1 61 3 77 5 19 2 25 -1 20 -9 -5 -9 -3 -9 8 -1 25 20 70 26 87 12 10
-8 13 -9 9 -1 -4 6 -3 14 3 18 5 3 10 0 10 -7 0 -9 3 -9 10 2 5 8 10 12 10 9
0 -3 30 0 68 7 88 17 151 27 182 28 14 1 27 4 30 8 3 4 21 8 40 9 19 2 40 5
45 8 20 12 95 28 124 27 16 -1 27 2 24 7 -2 4 -1 7 4 8 29 2 113 25 220 60 50
16 100 30 110 32 10 2 31 9 47 16 16 6 36 9 43 7 8 -3 11 -1 8 4 -3 6 3 10 14
10 12 0 21 5 21 12 0 6 3 8 7 5 3 -4 13 -1 21 6 12 9 14 9 8 0 -4 -7 6 -5 24
5 27 15 32 15 41 2 9 -13 10 -13 6 2 -7 21 48 44 60 25 8 -14 11 -237 2 -242
-5 -4 -4 -46 1 -52 2 -2 4 -12 5 -23 1 -11 3 -24 4 -30 0 -5 8 -6 18 -3 12 5
14 3 8 -8 -7 -11 -6 -12 6 -3 17 13 487 13 508 0 11 -7 12 -6 6 5 -7 11 -5 11
10 -1 12 -9 16 -10 11 -2 -6 9 -1 11 18 8 14 -3 30 -7 35 -10 5 -4 12 -3 15 2
6 10 71 6 88 -4 7 -4 8 -3 4 5 -5 8 0 10 18 7 14 -3 30 -7 35 -10 5 -4 12 -3
14 1 7 11 109 9 126 -1 10 -7 12 -5 7 3 -6 8 -2 11 10 9 18 -3 18 17 19 439 0
295 -3 440 -10 437 -5 -3 -2 1 9 8 10 7 38 28 62 46 24 18 44 29 44 25 0 -4 5
0 11 10 5 9 17 17 25 17 8 0 12 5 9 10 -3 6 -1 10 5 10 6 0 18 7 27 15 12 13
18 13 32 3 14 -11 14 -11 4 3 -11 13 -7 21 27 47 21 18 44 32 50 32 6 0 8 5 5
10 -6 9 8 14 28 11 5 -1 6 3 3 8 -3 5 4 15 17 24 12 8 34 27 49 42 16 16 32
24 39 19 7 -4 9 -3 6 3 -9 14 19 37 32 28 6 -3 8 0 5 8 -3 8 2 20 11 27 12 10
18 10 33 -1 15 -12 16 -12 5 1 -10 13 3 30 79 105 50 50 96 89 102 87 6 -2 8
-1 4 3 -3 4 3 18 14 31 17 19 24 21 37 12 13 -10 14 -10 4 2 -10 10 -7 19 14
44 14 17 30 30 35 28 5 -1 7 1 4 6 -7 12 38 54 49 45 4 -5 5 -3 1 4 -8 15 24
54 37 46 6 -3 7 -1 3 5 -3 6 0 16 6 24 7 7 36 41 64 75 29 34 55 59 59 55 5
-4 5 -2 1 5 -4 7 2 21 14 33 11 11 20 25 20 30 0 6 4 10 9 10 5 0 28 29 51 65
23 36 46 65 51 65 5 0 8 6 7 13 -2 6 3 11 10 9 6 -1 11 2 10 7 -5 16 46 92 58
87 6 -2 11 2 11 10 0 7 -5 11 -10 7 -5 -3 -1 6 8 21 10 14 22 26 28 26 6 0 7
3 4 6 -4 4 2 19 13 34 11 16 20 33 20 39 0 7 7 14 15 17 8 4 12 10 9 15 -3 5
0 9 5 9 6 0 11 7 11 16 0 9 5 12 12 8 7 -4 8 -3 4 4 -8 14 64 143 76 136 4 -3
6 1 3 8 -4 10 62 153 93 202 7 11 8 17 11 37 0 5 6 7 13 3 7 -4 8 -3 4 5 -8
13 14 71 27 71 5 0 6 4 2 9 -3 5 -1 12 5 16 6 4 8 11 5 16 -4 5 0 11 7 14 7 3
14 17 15 31 0 15 6 30 13 34 6 4 11 10 11 14 -3 18 0 27 7 23 4 -3 7 8 8 24 1
16 7 36 15 45 7 9 14 22 14 28 0 22 30 106 37 106 4 0 5 7 2 15 -4 8 -2 15 4
15 5 0 10 6 9 13 -1 34 4 58 11 53 4 -2 8 6 8 20 0 13 -4 24 -9 24 -11 0 -101
61 -105 72 -2 4 -10 8 -17 8 -8 0 -18 8 -24 18 -5 9 -12 16 -15 14 -6 -2 -83
45 -103 64 -7 7 -9 15 -5 19 4 4 0 5 -8 3 -13 -5 -136 72 -151 95 -3 5 -9 8
-13 8 -13 -2 -145 92 -140 100 3 5 -1 6 -9 3 -9 -3 -28 7 -44 23 -16 16 -35
27 -41 25 -7 -2 -12 4 -12 13 0 9 -4 14 -9 11 -5 -3 -29 10 -54 29 -25 19 -49
35 -53 35 -4 0 -16 8 -27 17 -11 10 -17 13 -13 6 4 -7 -3 -54 -15 -105 -107
-471 -322 -922 -632 -1328 -74 -96 -259 -312 -289 -338 -11 -8 -13 234 -12
1291 1 1436 2 1460 18 1450 6 -4 6 0 -1 9 -7 8 -11 17 -9 19 3 2 7 34 10 69 3
36 8 76 11 90 3 14 6 37 7 53 1 15 4 27 7 27 3 0 6 12 7 28 1 58 36 222 47
222 4 0 6 4 2 9 -3 6 4 45 15 88 12 43 23 85 25 93 12 54 18 69 25 65 5 -3 6
5 2 17 -3 14 -1 19 6 14 7 -4 10 -2 7 6 -5 14 19 91 26 84 3 -3 5 3 6 12 2 23
7 45 14 57 4 6 12 27 18 48 7 20 17 37 22 37 6 0 8 4 5 9 -8 12 4 42 14 36 5
-3 6 4 3 15 -3 12 1 22 11 26 9 3 14 10 11 14 -7 11 26 80 37 80 5 0 7 4 3 9
-3 5 1 15 8 23 7 7 14 17 14 21 2 20 26 66 32 62 4 -2 8 2 8 10 0 15 33 86 44
95 4 3 16 25 29 49 l22 45 19 -25 c10 -13 17 -30 14 -37 -3 -7 -1 -10 5 -7 8
5 42 -46 39 -61 0 -4 4 -10 9 -13 5 -3 25 -39 45 -79 20 -41 40 -79 46 -85 5
-7 9 -14 9 -17 -1 -5 22 -58 59 -136 8 -17 15 -41 16 -52 0 -11 5 -18 9 -16 4
3 8 -1 8 -9 0 -8 7 -27 15 -44 8 -16 16 -40 17 -54 2 -13 9 -30 16 -37 6 -7
13 -20 13 -28 1 -8 2 -17 4 -21 1 -5 5 -21 10 -38 4 -16 13 -36 19 -44 8 -11
8 -13 -1 -8 -7 5 -6 -4 4 -23 8 -17 12 -38 9 -46 -4 -10 -2 -13 6 -8 8 5 9 2
5 -9 -4 -10 -1 -17 5 -17 6 0 8 -3 5 -7 -4 -3 -2 -12 4 -20 6 -7 9 -13 6 -13
-3 0 0 -21 8 -47 7 -27 16 -63 19 -81 2 -19 7 -36 10 -40 3 -3 0 -12 -7 -20
-7 -10 -8 -13 -1 -9 13 8 29 -67 18 -85 -4 -7 -2 -8 4 -4 8 5 12 -4 13 -26 0
-18 2 -41 4 -51 2 -10 -2 -17 -8 -16 -7 1 -78 1 -158 0 l-146 -1 -3 -57 c-1
-32 -2 -87 -1 -123 0 -63 0 -242 -1 -407 0 -45 3 -86 6 -92 4 -5 2 -12 -4 -16
-6 -4 -8 -11 -4 -16 3 -5 5 -65 5 -134 l-1 -123 35 -22 c31 -19 34 -24 23 -39
-12 -14 -11 -15 6 -1 16 13 20 12 35 -5 9 -11 23 -21 31 -23 8 -2 17 -8 18
-13 2 -5 8 -9 13 -9 6 0 34 -18 64 -40 30 -22 55 -37 55 -33 0 4 4 3 8 -3 4
-5 53 -40 110 -77 56 -37 102 -71 102 -75 0 -5 6 -9 14 -9 14 0 108 -62 114
-75 2 -5 10 -8 18 -8 8 0 17 -7 20 -15 4 -8 14 -15 23 -15 9 0 23 -9 31 -20 8
-11 20 -20 26 -20 7 0 19 -6 26 -13 7 -8 25 -20 38 -27 31 -16 132 -91 142
-105 4 -5 8 -6 8 -2 0 9 103 -62 108 -75 2 -5 8 -8 14 -8 12 0 102 -61 106
-72 2 -4 8 -8 13 -8 11 0 163 -102 167 -112 2 -5 10 -8 18 -8 9 0 12 -4 9 -10
-3 -5 3 -10 14 -10 12 0 21 -7 21 -15 0 -8 3 -14 8 -13 16 4 72 -33 66 -44 -5
-7 -2 -8 6 -3 8 5 18 1 27 -10 7 -11 13 -15 13 -11 0 4 20 -7 45 -25 24 -17
42 -36 38 -42 -3 -6 -1 -7 5 -3 11 7 103 -48 110 -66 2 -4 9 -8 17 -8 7 0 20
-10 29 -23 9 -12 14 -15 10 -7 -7 13 -6 13 12 0 10 -8 27 -23 37 -35 10 -11
15 -14 11 -6 -4 7 11 2 32 -13 21 -14 39 -32 39 -39 0 -6 8 -12 18 -12 10 0
21 -6 26 -13 5 -8 10 -13 12 -12 8 4 59 -24 59 -32 0 -4 7 -8 16 -8 10 0 14
-6 11 -15 -4 -8 -1 -17 5 -21 7 -4 8 -3 4 4 -4 7 -1 12 8 12 9 0 16 -4 16 -8
0 -5 12 -14 26 -20 15 -7 22 -17 18 -24 -4 -7 -3 -8 4 -4 15 9 64 -23 55 -37
-4 -6 0 -8 11 -4 10 4 19 1 22 -8 4 -8 10 -12 15 -9 5 3 9 1 9 -4 0 -5 9 -12
21 -15 14 -4 18 -10 13 -19 -4 -7 -4 -10 1 -6 9 9 52 -13 83 -42 12 -11 22
-18 22 -14 0 3 6 1 14 -6 8 -6 12 -19 9 -28 -4 -13 -3 -14 5 -3 8 11 14 10 36
-4 14 -9 23 -21 20 -26 -3 -5 1 -6 8 -4 8 3 23 -3 33 -13 11 -10 28 -21 38
-25 10 -4 15 -11 12 -17 -3 -6 1 -7 9 -4 9 3 16 1 16 -5 0 -6 6 -11 13 -11 7
0 22 -8 33 -18 10 -10 27 -21 37 -25 9 -3 17 -13 17 -22 0 -8 3 -14 8 -13 12
4 72 -24 72 -33 0 -5 6 -9 14 -9 8 0 16 -4 18 -8 2 -4 20 -18 41 -31 21 -13
36 -29 33 -36 -3 -9 2 -11 16 -7 11 2 23 0 27 -5 3 -6 25 -22 48 -36 31 -20
41 -32 37 -44 -5 -16 -4 -16 6 -3 9 11 13 12 17 2 2 -6 10 -9 16 -5 7 4 8 0 4
-11 -4 -10 -3 -15 3 -11 17 10 50 -14 44 -33 -5 -15 -4 -15 6 -2 9 11 13 12
17 3 2 -7 11 -13 19 -13 8 0 14 -4 14 -10 0 -5 6 -10 13 -10 7 0 22 -8 33 -17
10 -10 31 -24 47 -32 15 -8 27 -18 27 -23 0 -4 7 -8 15 -8 8 0 15 -4 15 -9 0
-5 9 -11 21 -14 12 -3 18 -10 14 -16 -4 -7 0 -8 11 -4 13 5 16 3 11 -10 -4
-12 -2 -14 10 -10 11 4 25 -4 41 -23 13 -16 21 -23 17 -15 -5 9 1 8 19 -4 14
-10 26 -21 26 -26 0 -5 6 -8 13 -6 6 1 11 -4 9 -11 -1 -8 2 -11 7 -8 5 4 16
-1 24 -9 9 -8 23 -15 32 -15 11 0 15 -5 12 -14 -4 -10 -1 -13 7 -10 7 3 20 -1
27 -9 8 -8 25 -19 37 -26 12 -7 20 -16 17 -21 -3 -6 0 -7 7 -5 8 3 23 -3 34
-14 12 -10 35 -26 53 -35 17 -9 29 -21 26 -26 -3 -5 0 -12 6 -16 8 -5 9 -3 4
6 -5 8 -3 11 6 8 8 -3 14 -10 14 -15 0 -6 4 -15 9 -20 5 -5 6 -2 1 6 -5 9 -3
12 6 9 8 -3 13 -11 11 -17 -1 -7 2 -10 8 -6 11 7 65 -27 93 -59 10 -12 16 -15
12 -7 -5 9 1 8 19 -4 23 -15 39 -34 18 -21 -5 3 -9 -1 -9 -9 0 -11 4 -12 13
-4 15 12 37 3 28 -12 -3 -5 -2 -9 3 -8 16 4 43 -13 36 -24 -3 -6 -1 -7 5 -3
14 8 64 -23 57 -34 -3 -5 0 -12 6 -16 8 -5 9 -3 4 6 -5 8 -3 11 6 8 8 -3 13
-10 12 -16 -2 -6 3 -9 10 -7 6 3 24 -6 38 -19 15 -14 30 -22 35 -18 4 4 4 -1
1 -11 -4 -10 -3 -16 3 -12 14 9 72 -24 64 -37 -4 -6 -3 -8 4 -4 6 3 17 -1 25
-9 9 -8 20 -15 25 -15 5 0 17 -10 26 -23 9 -12 14 -16 10 -8 -4 9 2 8 20 -4
14 -9 23 -22 19 -28 -3 -6 -1 -7 6 -3 10 7 72 -29 79 -46 2 -4 10 -8 18 -8 8
0 14 -4 14 -10 0 -5 7 -10 15 -10 8 0 15 -4 15 -9 0 -5 10 -11 22 -14 17 -5
19 -9 9 -21 -8 -10 -9 -16 -1 -21 6 -4 9 -1 8 6 -2 6 3 14 10 16 6 3 12 0 12
-6 0 -6 7 -11 15 -11 8 0 15 -4 15 -10 0 -5 7 -10 15 -10 8 0 15 -4 15 -8 0
-5 12 -15 28 -22 15 -8 38 -25 51 -39 13 -14 20 -19 15 -11 -5 8 15 -2 44 -23
29 -20 57 -37 63 -37 6 0 8 -7 5 -16 -3 -8 -2 -12 4 -9 8 5 56 -19 70 -35 3
-4 13 -9 23 -13 10 -4 15 -12 12 -17 -4 -6 -3 -10 2 -9 18 3 30 -2 49 -19 10
-10 40 -30 66 -45 35 -20 46 -32 42 -45 -5 -15 -4 -15 6 -2 9 11 13 12 17 3 2
-7 11 -13 19 -13 17 0 18 -12 2 -29 -11 -11 -9 -11 8 0 19 11 24 10 39 -4 9
-9 20 -17 25 -17 5 0 15 -6 22 -12 8 -7 23 -18 33 -25 11 -6 19 -16 18 -22 -2
-6 4 -8 14 -4 11 4 14 3 9 -5 -5 -8 -1 -10 10 -5 13 5 16 3 11 -10 -4 -12 -2
-14 10 -10 12 5 14 3 8 -7 -5 -8 -4 -11 3 -6 8 5 167 -94 227 -142 6 -4 31
-21 57 -37 27 -17 48 -33 48 -37 0 -5 6 -8 13 -8 7 0 23 -9 35 -20 12 -11 24
-20 28 -20 3 0 28 -16 54 -35 26 -19 53 -35 59 -35 6 0 11 -5 11 -11 0 -5 -4
-8 -8 -5 -5 3 -9 -1 -9 -9 0 -12 3 -12 14 -3 11 9 16 9 22 -1 5 -7 11 -12 15
-12 14 2 46 -25 46 -38 0 -12 3 -12 12 -3 15 15 32 16 22 1 -4 -7 1 -7 16 1
18 10 21 9 15 -1 -6 -8 -4 -10 6 -4 19 12 119 13 112 1 -4 -5 -1 -6 8 -1 19
12 119 13 112 1 -4 -5 -1 -6 8 -1 19 12 119 13 112 1 -4 -5 -1 -6 8 -1 19 12
119 13 112 1 -4 -5 -1 -6 8 -1 19 12 119 13 112 1 -4 -5 -1 -6 8 -1 19 12 119
13 112 1 -4 -5 -1 -6 8 0 19 12 119 12 112 0 -4 -5 0 -6 8 -1 19 12 119 13
112 1 -4 -5 -1 -6 7 -1 18 11 130 13 130 2 0 -4 6 -5 13 0 16 10 147 10 147 0
0 -5 6 -5 12 0 17 10 148 10 148 0 0 -5 6 -5 13 0 16 10 38 13 32 4 -2 -4 2
-8 10 -8 8 0 12 4 9 9 -3 4 0 8 5 8 6 0 11 -4 11 -10 0 -6 9 -6 25 0 14 5 30
9 34 7 5 -1 11 1 13 5 1 3 -46 41 -107 84 -60 43 -112 81 -115 84 -3 3 -27 21
-55 40 -27 19 -54 38 -60 43 -5 4 -102 74 -215 155 -113 81 -254 183 -315 227
-60 44 -218 157 -350 252 -132 94 -244 176 -250 180 -5 5 -62 46 -125 91 -178
127 -542 389 -569 409 -33 25 -254 184 -281 203 -21 14 -55 39 -120 88 -41 30
-978 704 -1025 737 -23 17 -53 38 -66 48 -33 24 -438 317 -527 380 -40 29 -90
64 -110 79 -20 15 -109 79 -197 142 -88 64 -171 123 -184 133 -13 10 -42 32
-66 48 -23 17 -78 55 -121 87 -229 164 -291 209 -309 222 -11 8 -117 84 -235
170 -118 85 -219 158 -225 163 -5 5 -22 18 -37 30 l-28 21 900 0 c686 0 899
-2 893 -11 -5 -9 -3 -9 8 0 21 17 1042 16 1032 0 -5 -9 -3 -9 8 0 20 16 882
16 872 -1 -5 -8 -3 -8 8 1 18 14 1802 16 1793 2 -5 -9 61 -11 314 -9 107 1
132 -2 126 -12 -4 -7 3 -4 16 7 l23 20 -7 -20 c-6 -18 -6 -19 9 -4 19 19 23
40 31 149 4 47 10 90 15 96 5 6 7 13 4 16 -3 2 -7 130 -9 284 -2 153 -6 289
-9 302 -4 13 -1 22 6 22 9 0 9 2 0 8 -6 4 -14 34 -17 67 -14 162 -71 494 -96
561 -5 13 -8 24 -5 24 2 0 -1 15 -6 33 -6 17 -12 39 -14 47 -1 8 -11 42 -20
75 -142 501 -392 1008 -710 1440 -28 39 -54 75 -58 82 -9 14 2 45 14 37 5 -3
9 1 9 8 0 7 11 26 25 41 14 15 23 27 21 27 -3 0 2 9 11 19 9 11 20 18 25 15 4
-3 5 3 1 12 -5 13 -3 15 7 9 9 -5 11 -4 6 3 -10 17 46 83 64 76 11 -4 12 -2 4
6 -9 9 -1 28 33 78 25 37 58 93 74 125 16 32 34 55 40 52 5 -4 9 -3 8 2 -5 20
24 61 40 56 12 -4 13 -3 3 5 -10 7 -11 15 -4 28 5 11 31 64 58 119 26 55 53
103 60 108 7 4 11 14 8 21 -3 7 6 34 20 59 15 25 26 53 26 61 0 9 4 16 9 16 5
0 11 10 13 23 2 12 9 21 17 19 11 -2 12 0 3 11 -6 7 -8 18 -3 23 4 5 16 30 25
57 11 28 22 44 28 41 7 -4 8 -2 4 4 -8 13 3 64 13 58 3 -2 7 8 8 22 0 15 6 28
12 30 6 2 9 8 6 12 -3 5 1 26 9 47 8 21 17 47 22 58 4 11 8 26 10 34 13 64 27
111 34 111 4 0 6 9 3 20 -3 11 -1 20 3 20 5 0 10 21 11 47 1 27 7 49 13 51 5
2 8 8 5 13 -3 5 -1 26 4 46 6 21 12 54 14 73 2 19 15 71 30 115 14 45 31 108
38 142 7 34 15 60 18 58 3 -2 6 11 7 28 0 18 3 46 7 62 4 17 9 50 12 75 3 25
8 55 10 66 27 124 27 733 0 869 -2 11 -4 25 -4 30 -1 7 -1018 9 -3034 8 -1667
-1 -3056 -2 -3085 -2 l-52 -1 0 -484 1 -484 29 8 c18 5 32 5 35 -1 4 -5 11 -9
16 -9 6 0 8 3 6 8 -6 8 91 7 100 -2 9 -9 25 -7 20 2 -6 8 91 7 100 -2 9 -9 25
-7 20 2 -6 8 91 7 100 -2 9 -9 25 -7 20 2 -6 8 91 7 100 -2 9 -9 25 -7 20 2
-6 8 91 7 100 -2 9 -9 25 -7 20 2 -6 8 91 7 100 -2 9 -9 25 -7 20 2 -6 8 91 7
100 -2 9 -9 25 -7 20 2 -6 8 91 7 100 -2 9 -9 25 -7 20 2 -6 8 91 7 100 -2 9
-9 25 -7 20 2 -6 8 91 7 100 -2 9 -9 25 -7 20 2 -6 8 91 7 100 -2 9 -9 25 -7
20 2 -6 8 91 7 100 -2 9 -9 25 -7 20 2 -6 8 91 7 100 -2 9 -9 25 -7 20 2 -6 8
91 7 100 -2 9 -9 25 -7 20 2 -6 8 91 7 100 -2 9 -9 25 -7 20 2 -6 8 91 7 100
-2 9 -9 25 -7 20 2 -6 8 91 7 100 -2 9 -9 25 -7 20 2 -6 8 91 7 100 -2 9 -9
25 -7 20 2 -6 8 91 7 100 -2 9 -9 25 -7 20 2 -6 8 91 7 100 -2 9 -9 25 -7 20
2 -6 8 91 7 100 -2 9 -9 25 -7 20 2 -6 8 91 7 100 -2 9 -9 25 -7 20 2 -6 8 91
7 100 -2 9 -9 25 -7 20 2 -6 8 91 7 100 -2 9 -9 25 -7 20 2 -6 8 91 7 100 -2
9 -9 25 -7 20 2 -6 8 91 7 100 -2 9 -9 25 -7 20 2 -6 8 91 7 100 -2 9 -9 25
-7 20 2 -6 8 91 7 100 -2 9 -9 25 -7 20 2 -6 8 91 7 100 -2 9 -9 25 -7 20 2
-6 8 91 7 100 -2 9 -9 25 -7 20 2 -6 8 91 7 100 -2 9 -9 25 -7 20 2 -6 8 91 7
100 -2 9 -9 25 -7 20 2 -6 8 91 7 100 -2 9 -9 25 -7 20 2 -6 8 91 7 100 -2 9
-9 25 -7 20 2 -6 8 91 7 100 -2 9 -9 25 -7 20 2 -6 8 91 7 100 -2 9 -9 25 -7
20 2 -6 8 91 7 100 -2 9 -9 25 -7 20 2 -3 4 30 7 74 7 43 0 79 -3 79 -6 0 -4
15 -3 34 1 19 4 40 4 47 -1 8 -4 20 -3 28 4 11 9 15 9 18 0 2 -7 10 -10 16 -8
22 8 147 12 147 5 0 -3 22 -4 50 0 27 3 55 3 62 -1 7 -4 19 -2 27 4 9 8 15 8
18 2 2 -6 19 -9 38 -7 l35 4 -5 -36 c-3 -20 -7 -53 -10 -73 -3 -21 -7 -45 -10
-53 -2 -8 -7 -28 -10 -45 -3 -16 -8 -41 -11 -55 -27 -135 -163 -541 -214 -640
-21 -41 -61 -122 -89 -180 -27 -58 -58 -118 -68 -135 -9 -16 -37 -64 -62 -105
-45 -77 -112 -181 -121 -190 -3 -3 -16 -20 -29 -38 -13 -19 -26 -30 -30 -25
-6 9 -228 186 -267 213 -132 92 -328 221 -389 255 -11 6 -56 32 -100 57 -247
140 -568 282 -855 378 -158 52 -440 130 -530 145 -19 3 -55 11 -80 16 -107 24
-274 50 -415 64 -38 4 -78 9 -87 11 -129 24 -806 24 -958 0 -14 -3 -56 -7 -95
-11 -38 -4 -77 -9 -86 -10 -9 -2 -40 -6 -70 -10 -30 -3 -76 -10 -104 -15 -27
-5 -63 -12 -79 -14 -16 -3 -52 -10 -80 -16 -28 -6 -60 -12 -71 -14 -481 -94
-1094 -340 -1554 -623 -100 -61 -320 -209 -331 -222 -3 -3 -32 -26 -65 -50
-33 -25 -82 -64 -110 -87 -36 -30 -53 -39 -60 -30 -20 22 -143 212 -195 300
-61 106 -166 320 -208 426 -35 89 -92 247 -98 275 -7 27 -10 37 -17 55 -23 59
-88 357 -93 425 -1 22 -3 40 -4 40 -1 0 -3 8 -5 18 -2 9 1 15 6 11 5 -3 9 -1
9 5 0 7 8 7 24 1 17 -6 26 -5 30 3 3 8 5 8 5 -2 1 -11 4 -11 16 -1 12 10 15
10 15 0 0 -10 3 -10 14 -1 9 7 17 8 20 2 5 -8 26 -8 46 -1 17 6 46 4 53 -5 6
-6 10 -6 14 3 2 6 10 9 16 5 17 -11 31 -10 39 2 5 6 8 5 8 -4 0 -11 3 -11 15
-1 12 10 15 10 15 0 0 -10 3 -10 14 -1 9 7 17 8 20 2 5 -8 26 -8 46 -1 17 6
46 4 53 -5 6 -6 10 -5 14 3 4 10 8 10 21 0 18 -15 22 -15 33 4 7 11 9 11 9 -1
0 -11 3 -11 15 -1 12 10 15 10 15 0 0 -10 3 -10 14 -1 10 8 16 9 21 1 3 -6 10
-8 15 -5 17 10 80 12 80 2 0 -5 6 -4 13 2 8 6 17 7 21 3 11 -10 30 -9 38 3 5
6 8 5 8 -4 0 -11 3 -11 15 -1 12 10 15 10 15 0 0 -10 3 -10 15 0 8 7 15 8 15
3 0 -8 32 -10 50 -3 16 6 46 4 53 -5 6 -6 10 -5 14 3 4 10 8 10 21 0 18 -15
22 -15 33 4 7 11 9 11 9 -1 0 -11 3 -11 15 -1 12 10 15 10 15 0 0 -10 3 -10
14 -1 9 7 17 8 20 2 5 -8 26 -8 46 -1 17 6 46 4 53 -5 6 -6 10 -5 14 3 3 8 9
10 16 3 18 -14 29 -14 38 1 7 11 9 11 9 -1 0 -11 3 -11 15 -1 12 10 15 10 15
0 0 -10 3 -10 14 -1 9 7 17 8 20 2 5 -7 41 -8 41 -1 0 1 12 3 28 4 15 1 27 -2
27 -7 0 -5 6 -4 13 2 8 6 17 7 21 3 11 -10 30 -9 38 3 5 6 8 5 8 -4 0 -11 3
-11 15 -1 12 10 15 10 15 0 0 -10 3 -10 15 0 14 12 20 7 16 -14 -1 -5 4 -4 13
3 15 13 95 21 101 10 4 -5 50 -4 50 1 0 1 10 3 23 4 12 2 22 -1 22 -5 0 -20
34 1 36 22 1 13 5 60 9 104 4 44 11 85 16 92 7 7 6 13 0 17 -5 4 -8 16 -5 29
5 22 5 364 0 422 -1 17 3 36 8 44 8 11 8 13 0 8 -7 -4 -11 12 -13 51 0 31 -3
68 -6 82 -2 14 -7 52 -10 85 -19 179 -24 208 -56 370 -24 124 -44 207 -93 390
-2 6 -5 17 -8 25 -3 8 -20 60 -38 115 -74 231 -184 487 -314 730 -64 120 -235
398 -248 403 -4 2 -8 11 -8 19 0 10 6 13 17 9 10 -4 14 -4 11 0 -11 10 29 47
43 39 8 -5 10 -4 5 4 -11 17 39 61 64 56 12 -2 18 0 15 6 -4 5 -12 6 -18 3 -7
-4 7 11 29 32 56 52 94 85 94 80 0 -2 16 11 37 30 20 18 40 31 45 28 5 -3 7 0
6 8 -2 7 3 12 10 11 6 -2 12 2 12 8 0 8 4 8 14 0 11 -9 16 -9 22 0 4 8 3 9 -4
5 -7 -4 -12 -1 -12 8 0 9 5 16 10 16 6 0 12 0 15 1 2 0 18 14 36 30 18 16 38
28 45 25 7 -3 16 0 20 6 5 7 2 8 -6 3 -9 -6 -11 -4 -6 4 5 7 14 10 22 7 8 -3
13 -1 11 5 -2 12 194 140 204 133 4 -2 10 3 13 12 3 8 10 12 16 9 5 -3 10 -2
10 2 0 5 35 26 78 48 42 21 89 47 104 57 16 11 32 16 38 13 5 -3 10 -1 10 5 0
6 4 9 9 6 5 -4 11 -3 13 2 6 14 99 53 110 46 6 -4 8 -3 5 3 -8 13 50 36 66 26
5 -3 7 -1 3 5 -8 13 29 26 45 16 8 -4 9 -3 5 4 -4 7 -1 12 8 12 8 0 16 -3 19
-7 2 -5 3 -3 1 3 -1 6 8 16 22 23 18 8 24 8 24 -2 0 -6 5 -4 11 6 7 12 17 16
31 11 13 -4 18 -2 14 4 -3 5 1 12 9 16 8 3 15 0 15 -7 0 -7 5 -5 10 4 5 9 26
20 46 24 20 3 45 12 55 18 15 9 24 9 42 -2 19 -12 20 -12 10 1 -11 12 -4 17
45 31 67 20 109 29 139 31 11 0 19 4 17 7 -2 4 5 9 16 12 13 3 18 1 13 -6 -5
-9 -3 -9 8 0 8 6 26 14 39 16 14 2 33 7 43 12 9 4 28 5 42 3 15 -3 22 -1 18 5
-4 6 0 8 10 4 10 -3 17 -3 17 1 0 5 10 9 23 10 40 2 102 10 102 12 0 2 9 4 20
6 11 2 29 5 40 7 11 2 26 -3 33 -12 11 -14 11 -14 6 2 -4 10 -1 17 7 18 8 0
23 2 34 4 11 2 52 6 90 10 39 3 87 7 108 9 22 2 37 -1 37 -8 0 -6 4 -5 9 3 5
8 19 12 35 9 14 -3 26 -2 26 1 0 10 75 7 82 -4 5 -7 8 -6 8 1 0 6 25 11 61 12
43 1 58 -2 53 -10 -5 -7 -3 -8 7 -2 8 5 46 9 86 10 61 1 70 -1 66 -15 -4 -13
-2 -13 10 1 11 14 16 15 27 5 7 -7 10 -7 7 -1 -4 7 5 9 23 6 17 -2 28 -7 25
-11 -2 -4 2 -8 10 -8 8 0 12 4 9 9 -9 14 94 2 111 -12 13 -11 14 -10 10 2 -5
12 0 14 19 11 17 -4 23 -10 19 -22 -4 -13 -3 -14 5 -1 11 15 88 16 107 0 6 -4
18 -6 28 -5 16 3 109 -8 147 -17 8 -1 18 -7 22 -13 5 -6 8 -5 8 3 0 10 5 10
20 2 11 -6 20 -7 20 -3 0 4 7 -2 16 -13 8 -10 13 -13 9 -6 -5 9 2 11 27 6 43
-8 49 -9 73 -16 11 -4 37 -9 58 -13 21 -3 35 -10 32 -15 -3 -5 0 -12 6 -16 8
-5 9 -3 4 6 -6 10 0 11 26 6 36 -6 64 -13 64 -16 0 -1 9 -3 20 -5 64 -11 144
-39 138 -48 -3 -5 -1 -7 5 -3 12 7 92 -16 134 -40 15 -8 29 -14 30 -13 8 6
107 -34 103 -41 -3 -4 1 -8 8 -7 29 1 48 -4 44 -10 -3 -5 6 -9 20 -10 14 0 29
-6 33 -13 4 -6 11 -11 16 -10 18 4 93 -33 87 -43 -3 -6 -1 -7 5 -4 13 9 44 -2
37 -13 -3 -5 4 -6 15 -3 14 4 20 0 20 -11 0 -10 6 -13 15 -10 8 4 15 1 15 -6
0 -6 5 -8 11 -4 6 3 14 3 18 -2 3 -5 36 -24 74 -43 37 -18 67 -37 67 -42 0 -5
3 -8 8 -8 20 3 23 -3 11 -18 -13 -16 -12 -17 2 -5 14 11 25 8 65 -14 27 -14
54 -31 59 -38 6 -6 24 -18 40 -26 17 -8 32 -18 35 -21 3 -3 15 -11 28 -18 12
-7 20 -17 16 -23 -4 -6 -3 -8 4 -4 6 3 17 0 25 -8 8 -8 17 -12 21 -9 3 4 6 1
6 -5 0 -6 8 -13 18 -16 10 -4 27 -14 38 -24 11 -10 32 -27 47 -36 15 -10 24
-23 20 -29 -4 -6 -1 -7 7 -2 7 4 15 4 19 -1 3 -5 38 -34 76 -65 39 -31 92 -78
119 -103 27 -25 53 -46 58 -46 5 0 6 -4 3 -10 -3 -5 -1 -10 5 -10 6 0 8 -5 4
-12 -4 -6 -3 -9 2 -5 5 3 18 -1 29 -9 17 -13 18 -16 5 -25 -11 -8 -9 -9 9 -4
20 6 23 4 18 -9 -4 -10 -3 -14 3 -11 13 8 102 -84 94 -97 -4 -6 -3 -8 3 -5 5
3 26 -12 46 -33 20 -22 34 -40 32 -40 -2 0 15 -20 38 -44 23 -24 47 -50 52
-58 39 -51 80 -104 85 -108 14 -11 62 -80 57 -80 -3 0 7 -14 23 -32 22 -23 26
-34 17 -40 -9 -5 -7 -8 4 -8 21 0 72 -77 63 -93 -4 -7 -3 -9 1 -4 8 7 65 -69
65 -86 0 -5 7 -15 16 -24 8 -9 13 -22 10 -30 -3 -8 -2 -12 2 -9 11 7 64 -92
57 -105 -4 -5 -3 -9 2 -8 21 4 34 -2 27 -12 -4 -7 1 -7 16 1 18 10 21 9 15 -1
-6 -9 -4 -10 6 -3 19 12 199 12 192 0 -4 -5 0 -6 8 0 18 11 79 13 100 3 9 -5
19 -5 23 -2 10 11 198 10 220 0 13 -6 16 -6 12 2 -11 17 4 13 22 -7 10 -9 14
-13 10 -8 -15 19 -8 21 61 21 44 0 67 -4 63 -10 -3 -5 1 -4 9 2 12 10 18 10
29 0 10 -9 11 -9 6 1 -4 6 -2 12 3 12 6 0 11 -5 11 -11 0 -8 4 -8 13 -2 6 5
58 9 115 8 56 0 102 0 102 0 0 0 -20 48 -44 105 -146 353 -352 704 -604 1030
-199 258 -501 566 -747 763 -120 96 -147 117 -275 208 -72 52 -242 162 -298
194 -9 6 -55 32 -102 58 -47 26 -92 52 -100 57 -8 5 -33 18 -55 28 -22 11 -96
47 -165 80 -187 90 -311 141 -501 207 -153 53 -469 141 -579 161 -14 3 -59 12
-100 21 -41 8 -84 16 -95 18 -44 6 -113 16 -165 25 -30 5 -82 12 -115 15 -33
4 -76 8 -95 10 -226 26 -854 26 -989 0 -9 -2 -48 -6 -86 -10 -39 -3 -81 -8
-95 -10 -14 -2 -68 -11 -120 -19 -667 -106 -1365 -371 -1885 -715 -38 -25 -74
-48 -79 -50 -50 -21 -380 -275 -516 -398 -100 -90 -116 -103 -125 -102 -5 0
-23 13 -40 30 -43 45 -255 224 -355 300 -145 111 -388 274 -514 344 -110 61
-246 134 -291 155 -27 12 -88 41 -135 63 -164 76 -409 167 -665 247 -65 20
-355 90 -440 105 -49 10 -99 19 -110 21 -10 2 -37 6 -60 9 -22 3 -51 8 -65 10
-28 5 -109 15 -155 20 -31 3 -115 12 -200 21 -50 5 -612 14 -617 9z m174 -970
c5 -6 8 -5 8 3 0 7 5 10 10 7 6 -4 7 -11 4 -17 -4 -7 -2 -8 5 -4 6 4 9 12 6
17 -4 5 3 9 15 9 13 0 19 -4 14 -12 -5 -8 -3 -8 7 -2 19 12 102 12 111 -1 5
-7 8 -6 8 1 0 11 21 11 190 -1 115 -8 162 -12 209 -21 39 -6 56 -9 141 -19 68
-8 83 -12 76 -23 -3 -5 1 -9 9 -9 8 0 12 4 9 9 -6 10 20 11 30 1 3 -4 23 -8
43 -10 20 -1 39 -6 42 -10 3 -5 20 -9 36 -10 53 -4 65 -7 65 -15 0 -4 6 -5 14
-2 8 3 17 0 22 -7 5 -8 3 -10 -6 -4 -9 5 -11 4 -6 -4 5 -8 12 -9 19 -3 16 12
42 8 74 -13 15 -10 22 -12 18 -4 -6 9 -3 10 11 4 10 -4 29 -10 42 -12 12 -3
22 -8 22 -12 0 -3 11 -7 25 -7 40 -3 86 -25 78 -38 -4 -6 0 -5 9 2 11 9 18 10
23 2 3 -5 17 -10 31 -10 13 0 24 -5 24 -11 0 -5 4 -7 10 -4 5 3 22 0 37 -8 16
-8 47 -21 71 -28 38 -11 47 -19 43 -42 -1 -5 3 -6 9 -2 6 3 8 11 5 16 -11 17
30 -4 48 -25 10 -12 16 -15 12 -8 -7 14 11 17 20 2 4 -6 11 -8 16 -5 5 4 9 -2
10 -12 0 -10 3 -13 5 -6 6 14 54 -3 54 -19 0 -5 5 -6 10 -3 6 3 10 1 10 -5 0
-6 4 -9 9 -5 5 3 12 1 16 -5 4 -6 10 -8 15 -5 5 3 13 -3 19 -12 6 -10 11 -14
11 -10 0 4 9 3 20 -3 11 -6 17 -16 14 -22 -5 -7 -2 -8 5 -3 11 6 94 -27 111
-45 3 -3 26 -16 52 -29 26 -13 45 -27 42 -32 -3 -5 1 -6 9 -3 8 3 17 -2 20
-10 4 -9 13 -13 22 -10 10 4 15 0 15 -11 0 -9 4 -14 9 -10 5 3 16 -1 24 -9 8
-8 17 -12 21 -9 3 4 6 2 6 -4 0 -6 9 -13 21 -16 13 -4 18 -10 13 -18 -4 -8 -3
-10 5 -5 13 8 64 -28 53 -38 -3 -4 1 -4 11 0 10 3 17 1 17 -5 0 -6 6 -11 13
-11 7 0 23 -10 37 -23 14 -12 38 -30 53 -40 15 -10 25 -23 21 -29 -5 -7 -2 -8
6 -3 8 5 18 2 24 -6 6 -8 20 -19 31 -25 11 -7 19 -20 17 -30 -2 -15 -1 -16 7
-5 8 12 11 12 25 -1 8 -9 12 -18 9 -22 -4 -3 3 -6 15 -6 24 0 30 -15 10 -24
-7 -3 -4 -4 7 -1 14 3 37 -12 79 -50 33 -30 62 -55 65 -55 3 0 15 -13 26 -29
11 -17 21 -28 23 -26 2 2 12 -4 23 -13 10 -9 15 -19 11 -22 -12 -8 -196 -288
-243 -370 -58 -102 -164 -310 -200 -395 -17 -38 -36 -83 -44 -100 -81 -184
-214 -617 -240 -783 -3 -15 -9 -49 -15 -77 -6 -27 -13 -72 -16 -100 -4 -27 -8
-53 -11 -57 -2 -4 -6 -29 -9 -55 -3 -27 -7 -57 -9 -68 -2 -11 -4 -25 -4 -31
-1 -8 -667 -11 -2393 -12 -1316 0 -2408 -1 -2425 -1 l-33 -1 0 -480 0 -481 45
2 c24 2 48 0 51 -4 4 -4 14 -1 22 6 10 8 16 8 19 1 2 -7 21 -8 53 -4 27 4 55
3 62 -1 7 -4 19 -2 27 4 11 9 15 9 18 0 2 -7 10 -10 16 -8 22 8 147 12 147 5
0 -3 22 -4 50 0 27 3 55 3 62 -1 7 -4 19 -2 27 4 10 8 15 9 18 1 2 -7 21 -8
53 -4 27 4 55 3 62 -1 7 -4 19 -2 27 4 10 8 15 9 18 1 2 -7 21 -8 53 -4 27 4
55 3 62 -1 7 -4 19 -2 27 4 10 8 15 9 18 1 2 -7 21 -8 53 -4 27 4 55 3 62 -1
7 -4 19 -2 27 4 10 8 15 9 18 1 2 -7 21 -8 53 -4 27 4 55 3 62 -1 7 -4 19 -2
27 4 10 8 15 9 18 1 2 -7 21 -8 53 -4 27 4 55 3 62 -1 7 -4 19 -2 27 4 10 8
15 9 18 1 2 -7 21 -8 53 -4 27 4 55 3 62 -1 7 -4 19 -2 27 4 10 8 15 9 18 1 2
-7 21 -8 53 -4 27 4 55 3 62 -1 7 -4 19 -2 27 4 11 9 15 9 18 0 2 -7 10 -10
16 -8 22 8 147 12 147 5 0 -3 22 -4 50 0 27 3 55 3 62 -1 7 -4 19 -2 27 4 10
8 15 9 18 1 2 -7 21 -8 53 -4 27 4 55 3 62 -1 7 -4 19 -2 27 4 11 9 15 9 18 0
2 -7 10 -10 16 -8 24 9 147 11 147 4 0 -5 6 -6 13 -4 22 8 147 12 147 5 0 -3
22 -4 50 0 27 3 55 3 62 -1 7 -4 19 -2 27 4 11 9 15 9 18 -1 3 -6 9 -10 14 -6
13 8 117 9 126 1 9 -9 25 -9 20 1 -6 8 91 7 100 -2 9 -9 25 -7 20 2 -6 8 91 7
100 -2 9 -9 25 -7 20 2 -6 8 91 7 100 -2 9 -9 25 -7 20 2 -6 8 91 7 100 -2 9
-9 25 -7 20 2 -6 8 91 7 100 -2 9 -9 25 -7 20 2 -6 8 91 7 100 -2 9 -9 25 -7
20 2 -6 8 91 7 100 -2 9 -9 25 -7 20 2 -6 8 91 7 100 -2 9 -9 25 -7 20 2 -6 8
91 7 100 -2 9 -9 25 -7 20 2 -6 8 91 7 100 -2 9 -9 25 -7 20 2 -6 8 91 7 100
-2 9 -9 25 -7 20 2 -6 8 91 7 100 -2 9 -9 25 -7 20 2 -6 8 91 7 100 -2 9 -9
25 -7 20 2 -6 8 91 7 100 -2 9 -9 25 -7 20 2 -6 8 91 7 100 -2 9 -9 25 -7 20
2 -10 15 98 7 111 -8 8 -8 11 -9 7 -2 -3 6 -1 12 4 12 19 0 26 -5 23 -17 -1
-6 2 -14 7 -17 5 -3 8 2 7 12 0 9 6 17 14 17 8 0 18 5 22 10 4 6 8 -10 9 -35
0 -25 3 -54 5 -65 3 -11 6 -31 9 -45 2 -14 6 -38 9 -55 8 -48 19 -128 20 -150
1 -11 4 -22 8 -25 4 -4 9 -24 12 -45 2 -22 8 -51 14 -65 5 -14 7 -29 5 -34 -3
-4 0 -11 6 -15 6 -4 12 -32 14 -63 1 -31 5 -54 10 -51 7 4 9 -8 10 -54 1 -12
5 -20 9 -17 7 5 12 -19 11 -53 -1 -7 4 -13 10 -13 6 0 8 -3 4 -6 -3 -4 0 -22
8 -41 19 -45 19 -54 0 -47 -8 4 -12 11 -8 17 3 5 1 7 -5 4 -5 -4 -48 9 -94 29
-484 208 -931 324 -1498 388 -227 26 -830 27 -991 1 -22 -3 -55 -7 -179 -21
-25 -2 -70 -9 -100 -14 -30 -5 -71 -12 -90 -15 -245 -39 -675 -154 -880 -235
-245 -97 -548 -234 -650 -294 -14 -8 -81 -47 -150 -87 -207 -120 -434 -277
-651 -453 -66 -54 -53 -62 -156 94 -120 182 -141 219 -242 425 -121 246 -192
440 -255 697 -38 155 -41 169 -57 273 -13 90 -17 117 -25 190 -3 33 -8 76 -10
95 -6 52 -6 456 0 525 3 33 8 78 11 100 2 22 7 64 10 93 3 30 10 77 16 105 5
29 12 70 16 92 3 22 8 42 12 45 3 3 7 16 7 30 1 24 11 75 14 75 1 0 3 7 5 15
2 8 6 29 10 45 4 17 9 42 12 58 3 15 9 27 14 27 5 0 6 7 3 15 -4 8 -2 15 4 15
6 0 8 9 5 20 -3 12 0 20 6 20 7 0 9 4 6 10 -3 5 0 24 8 42 8 18 20 54 27 81 7
26 17 47 21 47 5 0 8 3 7 8 -4 14 34 112 43 112 6 0 7 5 4 10 -3 6 4 24 16 42
13 17 18 28 12 25 -7 -4 -4 7 4 25 9 18 22 37 30 41 7 5 11 12 8 17 -8 13 27
80 38 73 6 -3 7 -1 4 5 -10 15 3 43 16 35 6 -3 7 -1 3 5 -8 13 41 112 56 112
5 0 7 4 4 8 -3 5 5 24 17 43 11 19 31 52 43 74 13 22 28 39 34 37 6 -1 9 1 6
6 -7 12 29 64 39 55 4 -5 6 -1 2 8 -3 10 4 27 16 40 12 13 21 27 19 32 -1 4 5
10 13 13 8 4 15 11 15 16 0 11 60 91 72 96 5 2 8 9 8 15 1 17 95 117 111 118
11 0 11 2 1 6 -10 4 -6 13 14 34 15 15 31 26 35 23 4 -2 11 1 15 7 4 8 3 9 -4
5 -26 -16 -10 9 33 52 25 24 45 49 45 54 0 5 4 6 10 3 6 -3 10 -3 10 2 0 17
72 83 83 77 7 -4 9 -3 4 1 -9 11 23 46 35 39 4 -3 7 -2 6 3 -3 9 52 73 63 73
4 0 23 16 43 36 21 21 40 33 47 28 7 -4 9 -3 6 3 -6 10 27 43 44 43 5 0 7 5 4
10 -3 6 -2 10 2 10 5 0 23 12 40 26 18 14 35 26 39 27 5 1 18 11 30 22 53 50
90 75 102 70 7 -2 10 -1 7 4 -3 5 -1 12 5 16 5 3 10 0 10 -7 0 -7 6 -2 13 12
8 14 19 24 25 22 7 -1 12 3 12 9 0 5 4 8 9 5 5 -3 12 1 15 10 4 9 13 14 22 10
9 -3 12 -2 9 4 -4 6 7 16 24 23 17 7 28 17 24 22 -5 4 2 5 15 2 12 -3 20 -2
18 1 -5 10 20 32 28 25 3 -4 6 -2 6 4 0 5 21 20 48 33 26 13 50 28 54 34 4 6
8 7 8 2 0 -5 6 -4 13 2 19 15 147 82 158 82 6 0 7 -6 3 -12 -4 -8 -3 -10 2 -5
5 5 9 14 9 20 0 7 9 11 18 11 10 -1 16 0 13 4 -8 7 44 33 55 26 5 -3 9 -1 9 3
0 5 19 17 43 27 23 10 56 25 74 33 18 8 37 11 44 7 7 -4 9 -3 5 4 -4 7 10 16
36 23 24 7 49 17 55 22 7 5 20 7 28 3 9 -3 14 -2 11 3 -3 5 3 11 14 14 10 3
21 0 24 -7 2 -6 5 -4 5 5 1 9 7 16 14 17 6 0 45 12 85 26 85 30 85 30 77 14
-4 -7 1 -4 10 7 13 15 19 16 22 7 4 -10 7 -10 17 1 18 22 121 47 136 33 10 -8
11 -8 6 2 -8 13 35 26 86 26 15 0 24 4 22 8 -3 4 5 9 18 10 28 1 36 3 68 12
14 4 43 8 65 10 22 2 47 6 55 9 15 5 24 6 92 9 20 1 35 4 33 8 -2 3 14 7 36 9
31 1 39 -1 34 -11 -4 -7 1 -4 9 6 13 16 19 17 28 8 7 -7 17 -12 23 -12 5 0 3
5 -5 11 -12 8 -9 10 13 6 15 -2 30 0 33 4 3 5 14 4 26 -2 11 -6 18 -7 14 -1
-3 6 16 10 50 10 30 0 57 1 59 4 9 8 140 3 147 -7z m3483 -1925 c-3 -5 -1 -10
4 -10 6 0 11 -7 11 -15 0 -8 5 -15 10 -15 6 0 10 -9 10 -20 0 -11 3 -20 8 -20
7 0 34 -54 32 -65 0 -3 6 -13 15 -22 9 -8 13 -23 10 -31 -3 -9 -3 -13 1 -9 9
9 56 -84 50 -100 -3 -7 1 -16 8 -20 15 -8 104 -227 121 -293 2 -8 11 -37 20
-63 9 -27 14 -55 11 -63 -3 -9 -1 -12 5 -9 6 4 9 1 8 -6 -2 -13 1 -26 21 -75
5 -14 4 -26 -3 -34 -8 -9 -8 -11 -1 -7 13 8 47 -143 70 -309 l6 -42 -424 2
-423 1 4 35 c1 19 6 37 10 40 3 3 7 23 7 45 2 66 24 156 36 149 7 -4 8 -2 4 5
-4 6 -2 37 5 69 15 69 16 71 19 75 1 1 3 9 5 17 10 48 38 130 46 136 5 3 7 9
5 13 -4 7 15 70 41 131 3 8 7 18 7 22 1 3 4 10 9 14 4 4 7 16 7 26 0 12 4 16
12 12 6 -4 8 -3 5 4 -9 13 2 44 13 37 4 -3 8 1 7 8 -1 34 4 48 15 41 6 -4 8
-3 5 3 -9 15 37 116 47 106 5 -4 6 -3 3 3 -9 15 27 87 38 77 4 -4 5 -3 2 4 -6
10 68 163 79 163 3 0 2 -4 -1 -10z m3200 -3559 c-3 -5 -1 -13 5 -16 6 -4 9 -1
8 7 -4 16 53 19 64 3 5 -7 8 -7 8 0 0 7 51 10 139 10 107 0 143 -4 157 -15 10
-9 15 -10 10 -2 -5 8 2 12 24 12 21 0 29 -4 24 -12 -5 -7 -3 -8 7 -2 20 12 71
5 94 -14 18 -16 19 -16 6 1 -12 15 -11 17 8 17 11 0 21 -6 22 -12 0 -9 2 -9 6
1 5 11 7 11 14 0 7 -11 9 -11 9 -1 0 9 5 10 18 4 9 -5 25 -8 35 -7 9 2 17 0
17 -3 0 -4 21 -8 48 -9 97 -4 102 -6 85 -29 -5 -5 -1 -2 7 6 12 13 22 14 45 8
17 -5 48 -11 70 -14 21 -2 42 -8 45 -12 3 -4 25 -9 50 -10 25 -2 50 -7 55 -11
6 -4 19 -7 30 -6 11 0 29 -4 40 -9 11 -5 33 -11 49 -13 17 -2 32 -7 35 -12 4
-4 14 -7 24 -5 9 1 17 -2 17 -7 0 -4 7 -5 17 -2 12 5 14 3 8 -7 -5 -8 -4 -11
1 -7 14 8 105 -13 99 -24 -4 -5 0 -7 7 -4 16 6 91 -19 82 -28 -3 -3 4 -3 17 0
14 4 20 2 16 -4 -5 -7 0 -9 13 -6 18 5 24 -3 22 -27 0 -3 8 -6 19 -6 19 0 19
1 3 13 -10 7 -13 13 -7 13 7 0 18 -6 25 -12 7 -7 22 -15 33 -16 11 -2 23 -8
26 -14 3 -5 9 -9 13 -8 4 1 17 -1 29 -5 12 -4 27 -8 32 -10 36 -11 85 -37 85
-45 0 -5 7 -7 15 -4 8 4 15 1 15 -5 0 -6 3 -10 8 -9 4 1 24 -4 45 -11 34 -11
42 -21 38 -44 -1 -5 3 -6 9 -2 6 3 7 11 4 17 -4 6 2 5 15 -2 12 -6 19 -15 16
-20 -3 -5 0 -12 6 -16 8 -4 9 -3 5 4 -9 15 -3 15 28 1 14 -7 23 -16 20 -20 -3
-5 1 -6 9 -3 8 3 22 -2 30 -11 9 -9 19 -15 22 -14 13 3 105 -53 100 -61 -3 -4
3 -7 12 -6 17 3 100 -47 115 -68 4 -6 8 -7 8 -3 0 11 98 -59 123 -87 10 -12
16 -15 12 -7 -5 9 1 8 19 -4 14 -10 26 -21 26 -25 0 -5 14 -13 31 -19 19 -7
28 -15 23 -22 -4 -7 -3 -9 3 -6 13 8 55 -31 48 -43 -3 -6 0 -7 8 -4 8 3 30
-10 51 -27 l36 -33 -27 -29 c-16 -16 -50 -45 -78 -65 -27 -20 -52 -39 -55 -42
-12 -15 -272 -181 -335 -215 -38 -21 -95 -51 -125 -68 -77 -42 -73 -40 -202
-102 -64 -30 -119 -55 -122 -55 -3 0 -44 -18 -91 -40 -47 -22 -90 -40 -94 -40
-4 0 -63 -21 -132 -46 -106 -40 -159 -57 -239 -79 -8 -2 -45 -13 -82 -24 -36
-10 -88 -22 -115 -25 -26 -4 -55 -9 -64 -12 -10 -2 -30 -7 -45 -9 -16 -2 -40
-6 -54 -9 -52 -11 -167 -28 -205 -32 -46 -4 -98 -10 -170 -20 -83 -11 -604 -8
-685 5 -41 6 -102 14 -134 17 -33 3 -69 8 -80 10 -41 8 -132 24 -170 30 -144
22 -532 129 -721 199 -223 83 -434 186 -655 320 -120 73 -204 127 -210 135 -3
4 -27 19 -54 35 -26 16 -78 52 -114 82 -63 52 -66 53 -86 36 -11 -10 -36 -31
-55 -48 -19 -16 -49 -43 -67 -60 -119 -113 -135 -125 -44 -35 58 58 128 123
155 145 26 22 55 47 64 55 9 8 32 26 51 40 19 13 44 32 54 42 19 17 31 22 49
19 4 0 6 5 5 11 -2 7 5 12 15 12 10 -1 16 1 13 4 -9 8 15 33 25 26 5 -3 9 -1
9 4 0 12 155 117 165 111 3 -2 11 4 16 14 6 9 14 15 19 12 4 -3 11 2 14 11 5
13 9 14 21 4 13 -11 14 -10 8 5 -5 15 -3 17 11 12 10 -4 15 -3 11 3 -6 9 8 14
28 11 4 0 6 5 5 11 -2 9 7 12 27 11 20 -2 25 0 16 6 -11 7 -9 11 9 21 18 10
21 10 15 -2 -3 -7 0 -5 8 5 16 20 32 23 21 5 -4 -8 -3 -10 2 -5 5 5 9 14 9 20
0 7 7 12 15 12 8 0 23 8 33 18 10 10 22 15 27 12 6 -4 10 -1 10 5 0 6 5 8 10
5 6 -3 10 -2 10 3 0 8 28 20 47 20 3 0 9 4 12 9 12 16 89 45 102 38 8 -5 10
-4 5 3 -7 11 43 38 82 44 9 2 23 9 31 16 8 8 24 11 40 7 17 -3 21 -2 13 3 -11
7 -10 10 3 16 9 3 21 4 26 0 5 -3 9 -1 9 3 0 5 17 15 38 22 20 8 43 16 51 19
9 3 12 1 7 -6 -3 -6 -2 -14 4 -17 6 -4 10 -3 9 2 -3 20 2 34 11 28 6 -3 10 -1
10 5 0 6 6 10 13 9 6 -1 20 2 31 6 11 5 27 3 40 -5 19 -12 20 -12 8 3 -12 14
-6 18 50 34 35 9 70 17 78 17 8 0 17 3 20 6 6 8 124 39 165 45 17 2 31 4 33 6
1 1 10 2 20 4 9 1 24 5 33 9 9 4 20 6 25 5 5 -1 11 0 14 1 3 1 16 3 30 4 14 1
30 4 35 8 6 3 37 9 69 12 32 4 62 8 65 10 3 2 33 6 66 10 33 3 70 8 83 10 12
3 22 1 22 -5 0 -5 5 -9 11 -9 5 0 7 5 4 10 -4 6 13 10 42 11 87 1 175 8 181
14 9 8 14 6 7 -4z m-6616 -16 c10 -5 12 -4 7 4 -11 17 36 10 60 -9 18 -14 18
-14 5 3 -14 18 -13 18 16 14 18 -3 37 -8 44 -13 7 -4 10 -3 6 3 -5 7 15 10 61
7 188 -10 260 -15 292 -19 19 -3 51 -7 70 -9 19 -2 58 -7 85 -12 28 -4 56 -7
64 -5 7 1 10 -2 7 -8 -5 -7 3 -9 24 -5 18 4 30 2 30 -4 0 -5 10 -8 22 -4 16 4
19 2 13 -9 -8 -12 -6 -12 8 0 9 7 17 10 17 5 0 -5 21 -10 46 -12 54 -3 67 -9
58 -25 -5 -8 -3 -8 7 1 15 14 33 16 25 3 -3 -4 6 -6 21 -3 14 3 23 1 20 -4 -3
-5 5 -10 16 -11 21 -1 84 -9 100 -12 5 0 6 -5 3 -10 -4 -5 3 -7 14 -4 13 4 27
-1 36 -13 9 -11 12 -13 8 -5 -5 10 -1 12 17 6 62 -18 96 -29 124 -39 17 -6 35
-11 40 -11 6 -1 9 -6 8 -13 -2 -7 2 -12 7 -12 6 0 10 5 10 11 0 5 5 7 10 4 6
-4 7 -11 4 -17 -4 -7 -2 -8 5 -4 14 9 111 -24 111 -37 0 -4 4 -6 9 -3 5 4 22
1 38 -6 15 -6 31 -11 36 -10 4 1 7 -2 7 -8 0 -6 3 -9 8 -8 16 3 122 -44 117
-53 -3 -4 5 -5 17 -1 14 3 19 1 14 -6 -5 -8 -2 -10 8 -6 9 3 16 1 16 -5 0 -6
3 -10 8 -9 16 5 131 -55 125 -65 -3 -5 -1 -7 5 -4 9 6 66 -17 82 -33 3 -3 22
-13 43 -23 30 -13 37 -22 32 -35 -5 -14 -4 -15 6 -4 15 14 33 16 24 2 -3 -5 1
-10 9 -10 9 0 16 -5 16 -10 0 -6 4 -9 8 -8 11 4 122 -64 122 -75 0 -4 5 -5 10
-2 6 3 10 1 10 -4 0 -6 6 -11 13 -11 8 0 23 -8 35 -17 11 -10 57 -44 101 -76
45 -33 78 -64 74 -70 -3 -5 -2 -7 4 -4 11 7 93 -49 93 -64 0 -5 5 -9 12 -9 6
0 18 -7 27 -15 45 -41 69 -62 95 -83 16 -12 25 -22 20 -22 -5 0 -3 -4 5 -9 11
-7 -4 -38 -76 -148 -211 -323 -372 -645 -496 -988 -38 -103 -108 -335 -122
-405 -2 -8 -12 -53 -23 -100 -11 -47 -25 -112 -31 -145 -6 -33 -13 -69 -15
-80 -2 -11 -7 -42 -10 -69 -4 -27 -9 -53 -12 -58 -3 -4 -7 -41 -9 -80 -3 -40
-6 -82 -9 -93 -6 -32 -19 -229 -21 -350 -2 -60 -4 -111 -5 -112 -3 -4 -3 -42
0 -45 7 -8 4 -190 -2 -194 -5 -3 -5 -10 -1 -17 10 -16 11 -137 1 -143 -5 -3
-5 -10 -1 -17 10 -16 11 -137 1 -143 -5 -3 -5 -10 -1 -17 9 -14 11 -137 3
-142 -6 -4 -5 -50 0 -50 5 0 6 -181 1 -190 -7 -14 -9 -45 -2 -50 9 -5 7 -208
-2 -222 -4 -6 -4 -14 1 -16 6 -4 9 -192 2 -192 -5 0 -6 -46 -1 -50 9 -5 7
-208 -2 -222 -4 -6 -4 -14 1 -16 6 -5 9 -187 2 -194 -3 -4 -3 -42 0 -45 7 -8
4 -190 -2 -194 -5 -3 -5 -10 -1 -17 10 -16 11 -137 1 -143 -5 -3 -5 -10 -1
-17 10 -16 11 -137 1 -143 -5 -3 -5 -10 -1 -17 10 -16 11 -137 1 -143 -5 -3
-5 -10 -1 -17 10 -16 11 -137 1 -143 -5 -3 -5 -10 -1 -17 10 -16 11 -137 1
-143 -5 -3 -5 -10 -1 -17 10 -16 11 -137 1 -143 -4 -3 -4 -13 2 -24 12 -22 1
-30 -120 -87 -180 -85 -283 -127 -460 -186 -160 -53 -432 -124 -550 -142 -19
-3 -42 -8 -50 -10 -8 -2 -35 -6 -60 -9 -25 -3 -54 -8 -65 -10 -18 -4 -109 -14
-180 -21 -226 -23 -597 -23 -790 -1 -16 2 -61 7 -100 11 -68 7 -84 9 -135 20
-14 3 -45 7 -70 10 -86 10 -364 77 -509 122 -264 81 -579 217 -786 338 -44 26
-89 53 -100 59 -11 6 -33 20 -50 30 -379 240 -704 531 -964 861 -34 44 -68 87
-76 97 -64 79 -226 341 -302 488 -50 97 -76 155 -153 335 -51 120 -148 451
-166 565 -3 19 -7 37 -9 40 -2 3 -7 33 -10 65 -4 33 -9 63 -11 66 -2 4 -6 31
-10 60 -3 30 -7 65 -10 79 -17 102 -23 480 -11 640 14 169 19 205 28 208 5 2
5 11 -1 21 -5 10 -7 21 -4 24 3 3 7 20 10 39 3 18 8 44 11 58 4 14 8 32 9 40
8 54 17 97 25 117 5 13 6 23 4 23 -2 0 0 12 6 28 6 15 12 36 13 47 2 11 11 47
20 80 10 33 20 67 21 75 13 58 79 226 93 237 9 8 11 12 5 8 -17 -8 -16 1 1 33
18 35 30 65 27 75 0 4 5 10 13 13 8 3 13 11 10 19 -3 7 2 20 11 28 9 9 15 19
14 22 -2 10 24 69 43 98 11 15 17 27 14 27 -3 0 11 27 30 61 18 33 34 65 34
71 0 6 7 7 16 4 14 -5 15 -4 4 9 -12 14 -7 19 13 16 5 -1 6 3 2 8 -7 12 79
159 109 184 11 10 14 15 6 11 -8 -4 -2 10 15 32 16 21 33 41 38 42 4 2 -5 15
-20 28 -15 13 -23 24 -18 24 6 0 29 -17 52 -38 23 -20 55 -48 72 -61 17 -13
28 -27 25 -32 -3 -5 2 -6 10 -3 9 4 18 -1 22 -10 3 -9 13 -16 21 -16 8 0 11
-4 8 -10 -3 -6 1 -7 9 -4 11 4 16 0 16 -11 0 -10 5 -13 12 -9 8 5 9 2 5 -10
-4 -10 -3 -15 3 -11 6 4 49 -20 96 -52 47 -32 97 -66 111 -75 14 -9 30 -22 34
-30 5 -7 9 -9 9 -5 0 4 9 3 20 -3 11 -6 18 -15 15 -20 -3 -6 0 -8 7 -5 7 3 26
-6 42 -20 16 -13 33 -22 37 -19 5 3 9 0 9 -5 0 -6 7 -11 16 -11 10 0 14 -6 10
-15 -3 -8 -1 -15 4 -15 6 0 10 5 10 12 0 7 6 6 18 -4 9 -8 25 -18 35 -21 11
-4 15 -12 11 -18 -4 -8 -3 -9 4 -5 12 7 94 -31 100 -46 2 -5 10 -8 18 -8 9 0
12 -4 9 -10 -3 -6 1 -7 9 -4 9 3 16 1 16 -6 0 -6 4 -9 9 -5 5 3 16 -1 24 -9 8
-8 17 -12 21 -9 3 4 6 1 6 -5 0 -7 3 -11 8 -10 13 4 52 -13 52 -23 0 -5 3 -8
8 -7 9 2 32 -7 92 -35 25 -11 48 -20 53 -19 4 1 7 -2 7 -8 0 -5 6 -10 14 -10
24 0 106 -41 106 -53 0 -7 4 -6 10 3 9 14 11 13 14 -9 0 -5 5 -13 10 -18 5 -5
6 -3 2 5 -8 13 15 17 28 5 3 -4 37 -16 74 -28 47 -15 67 -26 67 -37 0 -9 4
-20 8 -25 5 -4 8 -3 7 2 -1 6 -2 17 -1 24 1 12 4 12 13 3 7 -7 20 -12 31 -12
10 0 16 -3 14 -7 -3 -5 9 -9 26 -10 17 -1 34 -7 37 -14 4 -6 10 -10 14 -10 29
4 46 -1 40 -11 -5 -7 -3 -8 5 -4 15 9 172 -34 165 -45 -2 -4 1 -11 7 -15 8 -4
9 -3 5 4 -8 13 26 17 38 5 3 -4 14 -8 24 -9 9 -2 35 -8 57 -13 22 -6 51 -12
65 -13 14 -2 25 -8 25 -15 0 -6 4 -15 9 -20 5 -5 6 -3 2 5 -7 11 7 17 29 12 6
-2 18 -2 28 -2 9 0 15 -3 13 -7 -3 -4 12 -8 32 -8 20 -1 38 -6 40 -12 2 -6 8
-11 13 -11 6 0 7 5 4 10 -3 6 -2 10 4 10 5 0 12 -4 15 -8 2 -4 24 -9 48 -11
24 -1 45 -6 46 -12 2 -5 8 -7 12 -4 5 3 34 2 65 -1 36 -5 52 -10 43 -15 -9 -6
-9 -9 -1 -9 6 0 15 5 18 10 4 6 11 8 16 4 5 -3 7 -9 4 -14 -3 -5 -1 -12 5 -15
6 -4 9 -1 8 7 -2 9 7 12 27 11 40 -2 130 -11 130 -13 0 -1 27 -3 60 -6 135 -9
150 -11 147 -23 -1 -7 2 -10 8 -6 6 3 8 10 5 14 -2 5 15 6 38 4 23 -3 50 -5
60 -4 10 0 15 -5 11 -11 -5 -7 -2 -8 7 -2 19 12 102 13 111 0 8 -12 40 -17 32
-5 -3 5 -10 7 -15 4 -5 -4 -9 -2 -9 2 0 5 24 9 54 9 45 1 53 -2 49 -15 -4 -14
-4 -14 6 -1 7 11 32 16 88 17 43 1 118 4 167 8 68 4 91 3 97 -7 6 -9 9 -7 9 7
l1 20 16 -20 c13 -16 15 -17 10 -3 -5 14 -1 17 16 14 12 -1 33 0 47 4 17 4 29
2 38 -9 10 -14 11 -13 5 4 -6 18 -5 19 12 5 11 -9 16 -10 11 -2 -7 12 3 14 79
16 17 1 33 6 37 11 5 6 8 4 8 -5 0 -10 3 -11 8 -4 10 16 88 24 102 10 7 -6 11
-7 10 -1 -5 22 1 27 17 14 14 -12 16 -12 8 0 -6 11 -4 13 7 9 8 -4 21 -2 29 2
8 5 19 4 28 -3 12 -9 13 -9 8 0 -5 8 3 14 25 17 40 7 83 15 123 23 17 3 40 6
53 7 12 0 22 4 22 8 0 4 7 8 15 8 13 0 15 61 15 491 0 462 -1 490 -17 485 -20
-6 -130 -35 -153 -41 -50 -11 -113 -26 -170 -39 -57 -13 -261 -48 -360 -61
-233 -31 -552 -35 -847 -10 -39 3 -85 8 -188 21 -89 12 -317 56 -425 84 -393
99 -768 256 -1110 464 -99 61 -312 210 -366 256 l-32 27 30 24 c16 13 35 22
41 21 7 -2 9 -1 5 3 -11 11 20 37 33 29 8 -4 9 -3 5 4 -7 11 6 17 27 13 5 -1
6 3 3 8 -8 13 91 84 105 75 8 -4 9 -3 5 4 -7 11 32 38 47 34 5 -1 6 2 3 7 -4
5 24 28 61 50 38 22 81 49 97 60 17 11 33 18 37 15 4 -2 9 3 13 11 3 8 12 15
21 15 8 0 15 5 15 11 0 5 5 7 10 4 6 -3 10 -2 10 3 0 5 19 17 43 28 23 10 45
23 48 28 4 4 12 5 19 1 9 -5 11 -4 6 3 -5 8 0 12 13 12 12 0 21 5 21 11 0 6 7
8 16 5 8 -3 13 -2 10 3 -5 8 172 96 187 93 4 -1 7 3 7 8 0 5 3 9 8 8 4 -1 20
4 35 10 16 7 33 9 39 6 6 -4 8 -2 4 4 -8 13 59 36 75 26 8 -4 9 -3 5 4 -6 11
0 14 20 11 4 0 10 4 14 10 3 6 15 13 26 15 39 8 49 11 54 16 3 4 23 12 45 19
22 7 46 15 54 18 9 4 11 1 7 -8 -4 -8 -1 -6 7 4 10 11 30 19 55 20 22 1 40 5
39 9 -1 3 1 7 5 7 4 1 29 8 55 17 60 18 203 54 215 54 5 0 6 -6 3 -12 -4 -7 0
-5 7 4 16 19 94 29 91 12 -1 -6 5 -11 13 -11 10 0 11 4 4 11 -18 18 -11 29 15
24 14 -3 25 -2 25 2 0 4 10 7 23 6 12 -1 35 2 51 7 21 7 30 6 37 -4 7 -11 9
-10 9 5 0 16 2 17 17 5 12 -10 15 -11 9 -1 -6 9 -1 11 18 8 16 -3 26 0 26 7 0
7 4 6 10 -3 6 -10 10 -11 10 -2 0 7 15 12 39 12 22 0 42 -5 44 -12 4 -9 6 -8
6 3 1 8 11 15 24 16 12 0 33 3 47 5 16 3 30 -1 38 -11 10 -13 12 -13 10 -1 -2
11 11 15 56 18 51 3 58 1 52 -13 -3 -9 -2 -13 4 -10 6 3 10 12 10 18 0 14 88
16 109 2z m3211 -539 c0 -2 -8 -10 -17 -17 -16 -13 -17 -12 -4 4 13 16 21 21
21 13z m-62 -65 c-13 -16 -30 -32 -38 -36 -8 -3 1 10 19 29 42 44 51 46 19 7z
m-74 -83 c-16 -18 -41 -44 -55 -60 -15 -15 -36 -40 -47 -55 -11 -15 -23 -25
-27 -22 -6 6 141 169 153 169 3 0 -7 -14 -24 -32z m-130 -155 c-5 -5 -12 -12
-16 -18 -4 -6 -8 -2 -8 8 0 9 7 17 17 17 9 0 12 -3 7 -7z m-6439 -458 c150
-150 211 -207 259 -242 16 -13 25 -23 19 -23 -7 0 -18 6 -25 13 -7 6 -55 49
-106 95 -143 129 -261 252 -376 387 -55 66 -54 65 15 -10 40 -44 137 -143 214
-220z m7395 101 c0 -2 -8 -10 -17 -17 -16 -13 -17 -12 -4 4 13 16 21 21 21 13z
m6135 -480 c-5 -16 -4 -17 3 -7 8 11 21 -2 56 -57 48 -74 54 -88 34 -76 -8 4
-10 3 -5 -2 5 -5 14 -9 20 -9 7 -1 11 -6 10 -13 -2 -7 2 -12 8 -12 5 0 7 -4 4
-10 -3 -5 -1 -10 5 -10 7 0 9 -7 6 -16 -3 -8 -2 -12 4 -9 5 3 16 -8 25 -25 8
-16 12 -30 8 -30 -4 0 1 -6 12 -13 11 -9 15 -19 10 -27 -5 -9 -4 -11 3 -6 7 4
12 2 12 -3 0 -18 3 -26 17 -39 7 -8 11 -18 8 -23 -4 -5 -2 -9 2 -9 8 0 44 -72
49 -99 1 -8 7 -17 12 -20 10 -7 44 -91 36 -91 -3 0 2 -7 11 -16 9 -10 14 -25
12 -36 -3 -10 -1 -16 3 -13 11 7 42 -84 33 -98 -3 -6 -1 -7 5 -3 11 6 18 -19
13 -46 0 -5 3 -8 7 -8 13 0 36 -76 28 -95 -3 -9 -2 -13 4 -10 10 6 32 -63 25
-76 -3 -4 -1 -9 3 -11 12 -4 54 -167 47 -179 -4 -5 -2 -9 3 -9 5 0 8 -10 8
-22 -1 -13 2 -29 7 -35 5 -7 10 -27 12 -45 1 -18 5 -44 8 -58 4 -14 8 -44 11
-67 l5 -43 -2874 0 c-2293 0 -2875 3 -2876 13 0 6 -2 21 -4 32 -1 11 -6 47
-10 80 -4 33 -16 105 -27 160 -10 55 -22 112 -24 128 -3 15 -21 89 -41 165
-20 75 -37 149 -37 164 -1 14 -5 24 -10 20 -5 -3 -7 4 -4 16 3 12 1 23 -6 26
-8 3 -8 5 1 5 6 1 19 -6 27 -15 9 -8 16 -13 16 -10 0 8 124 -47 132 -59 4 -5
8 -6 8 -1 0 4 11 1 25 -8 13 -9 28 -16 33 -16 5 0 27 -8 48 -17 22 -9 42 -16
47 -15 4 1 7 -6 7 -16 0 -13 2 -14 9 -3 6 9 11 10 15 2 4 -6 18 -11 32 -11 22
0 29 -10 25 -33 -1 -5 3 -6 9 -2 6 3 8 11 5 16 -8 12 8 12 37 0 27 -11 56 -20
63 -21 3 0 21 -6 40 -14 20 -9 38 -15 40 -15 3 0 21 -3 41 -7 26 -5 34 -10 29
-22 -4 -12 -3 -12 9 -3 14 11 17 11 71 -10 17 -7 38 -11 48 -10 9 1 17 -2 17
-7 0 -5 6 -9 13 -10 6 -1 30 -4 52 -6 22 -3 47 -6 55 -7 8 -1 21 -9 28 -18 8
-9 11 -10 7 -3 -4 7 0 12 9 12 9 0 16 -4 16 -8 0 -4 12 -8 27 -8 16 1 28 -4
28 -11 0 -6 4 -15 8 -20 5 -4 7 -1 5 7 -2 12 6 14 37 12 22 -2 43 -9 47 -15 6
-9 8 -9 8 0 0 6 9 9 20 6 11 -3 17 -9 14 -14 -3 -5 -1 -9 5 -9 5 0 11 6 14 13
3 8 10 6 21 -8 15 -18 15 -18 10 -1 -6 15 -4 17 12 9 10 -5 29 -8 41 -8 12 1
20 -1 18 -6 -3 -4 -1 -10 5 -14 5 -3 10 1 10 9 0 8 6 13 13 11 24 -8 92 -17
119 -16 16 1 31 -6 37 -16 6 -10 11 -12 11 -5 0 6 11 12 25 12 14 0 25 -6 26
-12 0 -10 2 -10 5 -1 4 8 13 9 30 3 13 -5 24 -7 24 -3 0 4 7 -2 15 -13 11 -14
14 -15 9 -3 -4 14 0 16 28 13 18 -2 53 -6 78 -8 38 -2 45 -6 42 -22 -2 -15 -1
-16 7 -4 5 8 7 18 5 22 -3 4 2 8 11 8 10 0 13 -5 9 -12 -6 -10 -5 -10 7 -1 9
8 36 10 74 7 33 -3 69 -6 80 -5 10 0 26 -5 34 -12 12 -9 13 -9 7 1 -12 20 41
15 54 -5 11 -17 11 -17 6 0 -5 15 3 17 77 18 45 0 107 3 137 5 37 2 50 0 40
-6 -9 -6 -10 -10 -3 -10 6 0 14 4 17 9 3 5 22 11 41 13 26 3 35 0 36 -12 0
-13 1 -13 7 1 5 11 20 15 55 14 26 0 53 2 59 6 7 4 18 0 25 -9 12 -16 13 -16
7 1 -5 13 0 17 22 18 68 3 100 6 114 12 13 5 68 13 135 20 11 1 20 -3 20 -10
0 -6 3 -15 7 -19 4 -3 6 3 3 15 -4 24 5 27 24 9 7 -7 12 -8 11 -3 -5 23 1 25
28 9 24 -14 25 -14 8 0 -19 15 -19 16 10 17 16 0 43 3 59 6 17 3 39 6 50 7 11
0 22 4 25 7 3 4 25 9 50 13 25 3 62 10 82 15 25 6 40 5 48 -3 8 -8 10 -7 5 4
-4 11 2 16 19 18 39 3 50 6 58 17 5 6 8 5 8 -4 0 -11 3 -11 15 -1 8 7 15 9 15
4 0 -5 4 -4 8 1 4 6 52 23 107 38 55 16 116 34 135 41 19 7 41 11 49 8 8 -3
11 0 7 7 -5 7 1 11 14 11 13 0 19 -4 14 -12 -4 -7 -3 -8 5 -4 6 4 9 12 6 17
-4 5 -5 9 -3 9 2 0 25 7 51 15 26 8 46 11 43 6 -3 -4 1 -8 8 -8 9 0 12 7 8 16
-3 9 -2 13 3 9 4 -4 14 -3 22 3 9 9 13 8 13 0 0 -6 4 -11 10 -11 5 0 7 7 3 15
-3 9 -2 15 3 14 5 -1 23 4 39 11 17 7 32 14 35 14 3 1 11 5 18 9 6 5 17 5 22
2 6 -3 10 -1 10 5 0 6 5 8 10 5 6 -3 10 -1 10 6 0 6 8 9 20 6 11 -3 20 -1 20
4 0 6 15 16 34 24 19 8 37 19 41 25 9 15 38 13 29 -2 -4 -8 -3 -10 2 -5 5 5 9
13 9 18 0 5 5 9 10 10 6 0 18 8 28 16 9 9 17 12 17 7 0 -5 4 -4 8 1 4 6 25 20
47 32 22 11 58 31 79 43 31 17 41 19 48 8 8 -10 9 -10 6 2 -5 17 166 125 182
115 6 -4 9 -1 8 7 -2 7 5 12 14 12 10 -1 16 2 13 6 -3 4 2 13 10 20 14 11 19
7 16 -12 -2 -13 6 -9 20 9 10 11 10 14 2 9 -7 -4 -13 -3 -13 3 0 5 26 24 58
42 31 18 60 37 64 43 4 6 10 8 13 4 4 -4 20 7 37 22 17 16 39 32 49 35 11 4
19 11 19 16 0 6 5 7 10 4 6 -3 10 -1 10 6 0 8 4 8 15 -1 13 -11 14 -10 10 2
-6 15 33 48 61 52 7 1 17 6 21 11 4 4 2 5 -6 0 -31 -18 0 13 41 41 24 16 45
31 48 34 3 3 21 17 40 30 19 13 41 32 48 42 7 10 20 18 28 18 8 0 14 6 14 13
1 6 10 1 21 -12 12 -15 17 -32 14 -45z"/>
<path d="M5050 16260 c0 -5 5 -10 11 -10 5 0 7 5 4 10 -3 6 -8 10 -11 10 -2 0
-4 -4 -4 -10z"/>
<path d="M5906 16198 c3 -4 11 -5 19 -1 21 7 19 12 -4 10 -11 0 -18 -5 -15 -9z"/>
<path d="M6036 16167 c3 -10 9 -15 12 -12 3 3 0 11 -7 18 -10 9 -11 8 -5 -6z"/>
<path d="M6456 16062 c-3 -5 1 -9 9 -9 8 0 12 4 9 9 -3 4 -7 8 -9 8 -2 0 -6
-4 -9 -8z"/>
<path d="M6610 16020 c0 -5 5 -10 11 -10 5 0 7 5 4 10 -3 6 -8 10 -11 10 -2 0
-4 -4 -4 -10z"/>
<path d="M6895 15900 c3 -5 8 -10 11 -10 2 0 4 5 4 10 0 6 -5 10 -11 10 -5 0
-7 -4 -4 -10z"/>
<path d="M2810 15460 c0 -5 5 -10 11 -10 5 0 7 5 4 10 -3 6 -8 10 -11 10 -2 0
-4 -4 -4 -10z"/>
<path d="M7915 15209 c-4 -6 -5 -12 -2 -15 2 -3 7 2 10 11 7 17 1 20 -8 4z"/>
<path d="M2774 12122 c4 -3 14 -7 22 -8 9 -1 13 0 10 4 -4 3 -14 7 -22 8 -9 1
-13 0 -10 -4z"/>
<path d="M4214 12122 c4 -3 14 -7 22 -8 9 -1 13 0 10 4 -4 3 -14 7 -22 8 -9 1
-13 0 -10 -4z"/>
<path d="M4694 12122 c4 -3 14 -7 22 -8 9 -1 13 0 10 4 -4 3 -14 7 -22 8 -9 1
-13 0 -10 -4z"/>
<path d="M4854 12122 c4 -3 14 -7 22 -8 9 -1 13 0 10 4 -4 3 -14 7 -22 8 -9 1
-13 0 -10 -4z"/>
<path d="M5250 12121 c0 -6 4 -13 10 -16 6 -3 7 1 4 9 -7 18 -14 21 -14 7z"/>
<path d="M5373 12113 c0 -9 4 -10 14 -2 7 6 13 12 13 14 0 1 -6 2 -13 2 -8 0
-14 -6 -14 -14z"/>
<path d="M5427 12119 c7 -7 15 -10 18 -7 3 3 -2 9 -12 12 -14 6 -15 5 -6 -5z"/>
<path d="M5490 12121 c0 -6 4 -13 10 -16 6 -3 7 1 4 9 -7 18 -14 21 -14 7z"/>
<path d="M5613 12113 c0 -9 4 -10 14 -2 7 6 13 12 13 14 0 1 -6 2 -13 2 -8 0
-14 -6 -14 -14z"/>
<path d="M5667 12119 c7 -7 15 -10 18 -7 3 3 -2 9 -12 12 -14 6 -15 5 -6 -5z"/>
<path d="M5850 12118 c0 -4 4 -8 9 -8 6 0 12 4 15 8 3 5 -1 9 -9 9 -8 0 -15
-4 -15 -9z"/>
<path d="M5970 12121 c0 -6 4 -13 10 -16 6 -3 7 1 4 9 -7 18 -14 21 -14 7z"/>
<path d="M6093 12113 c0 -9 4 -10 14 -2 7 6 13 12 13 14 0 1 -6 2 -13 2 -8 0
-14 -6 -14 -14z"/>
<path d="M6147 12119 c7 -7 15 -10 18 -7 3 3 -2 9 -12 12 -14 6 -15 5 -6 -5z"/>
<path d="M6387 12119 c7 -7 15 -10 18 -7 3 3 -2 9 -12 12 -14 6 -15 5 -6 -5z"/>
<path d="M6450 12121 c0 -6 4 -13 10 -16 6 -3 7 1 4 9 -7 18 -14 21 -14 7z"/>
<path d="M6573 12113 c0 -9 4 -10 14 -2 7 6 13 12 13 14 0 1 -6 2 -13 2 -8 0
-14 -6 -14 -14z"/>
<path d="M6627 12119 c7 -7 15 -10 18 -7 3 3 -2 9 -12 12 -14 6 -15 5 -6 -5z"/>
<path d="M6690 12121 c0 -6 4 -13 10 -16 6 -3 7 1 4 9 -7 18 -14 21 -14 7z"/>
<path d="M6813 12113 c0 -9 4 -10 14 -2 7 6 13 12 13 14 0 1 -6 2 -13 2 -8 0
-14 -6 -14 -14z"/>
<path d="M6867 12119 c7 -7 15 -10 18 -7 3 3 -2 9 -12 12 -14 6 -15 5 -6 -5z"/>
<path d="M7053 12113 c0 -9 4 -10 14 -2 7 6 13 12 13 14 0 1 -6 2 -13 2 -8 0
-14 -6 -14 -14z"/>
<path d="M12130 10777 c0 -2 6 -10 14 -16 11 -9 16 -9 22 1 4 7 4 10 -1 6 -4
-4 -14 -3 -22 3 -7 6 -13 9 -13 6z"/>
<path d="M11870 10766 c0 -2 7 -7 16 -10 8 -3 12 -2 9 4 -6 10 -25 14 -25 6z"/>
<path d="M10830 10600 c0 -5 5 -10 11 -10 5 0 7 5 4 10 -3 6 -8 10 -11 10 -2
0 -4 -4 -4 -10z"/>
<path d="M10575 10500 c-3 -5 -1 -10 4 -10 6 0 11 5 11 10 0 6 -2 10 -4 10 -3
0 -8 -4 -11 -10z"/>
<path d="M10370 10420 c0 -5 5 -10 11 -10 5 0 7 5 4 10 -3 6 -8 10 -11 10 -2
0 -4 -4 -4 -10z"/>
<path d="M13735 10380 c3 -5 8 -10 11 -10 2 0 4 5 4 10 0 6 -5 10 -11 10 -5 0
-7 -4 -4 -10z"/>
<path d="M14096 10187 c3 -10 9 -15 12 -12 3 3 0 11 -7 18 -10 9 -11 8 -5 -6z"/>
<path d="M9495 9900 c-3 -5 -1 -10 4 -10 6 0 11 5 11 10 0 6 -2 10 -4 10 -3 0
-8 -4 -11 -10z"/>
<path d="M5135 10740 c-3 -5 -1 -10 4 -10 6 0 11 5 11 10 0 6 -2 10 -4 10 -3
0 -8 -4 -11 -10z"/>
<path d="M5755 10720 c3 -5 8 -10 11 -10 2 0 4 5 4 10 0 6 -5 10 -11 10 -5 0
-7 -4 -4 -10z"/>
<path d="M6451 10587 c2 -1 13 -9 24 -17 19 -14 19 -14 6 3 -7 9 -18 17 -24
17 -6 0 -8 -1 -6 -3z"/>
<path d="M3630 10399 c0 -5 5 -7 10 -4 6 3 10 8 10 11 0 2 -4 4 -10 4 -5 0
-10 -5 -10 -11z"/>
<path d="M3496 10338 c3 -5 10 -6 15 -3 13 9 11 12 -6 12 -8 0 -12 -4 -9 -9z"/>
<path d="M7070 10340 c0 -5 5 -10 11 -10 5 0 7 5 4 10 -3 6 -8 10 -11 10 -2 0
-4 -4 -4 -10z"/>
<path d="M7180 10286 c0 -2 8 -10 18 -17 15 -13 16 -12 3 4 -13 16 -21 21 -21
13z"/>
<path d="M3039 10073 c-13 -16 -12 -17 4 -4 9 7 17 15 17 17 0 8 -8 3 -21 -13z"/>
<path d="M7514 10082 c4 -3 14 -7 22 -8 9 -1 13 0 10 4 -4 3 -14 7 -22 8 -9 1
-13 0 -10 -4z"/>
<path d="M2070 9121 c0 -6 4 -13 10 -16 6 -3 7 1 4 9 -7 18 -14 21 -14 7z"/>
<path d="M2916 8562 c-3 -5 1 -9 9 -9 8 0 12 4 9 9 -3 4 -7 8 -9 8 -2 0 -6 -4
-9 -8z"/>
<path d="M3075 8489 c-4 -6 -5 -12 -2 -15 2 -3 7 2 10 11 7 17 1 20 -8 4z"/>
<path d="M3130 8466 c0 -2 7 -7 16 -10 8 -3 12 -2 9 4 -6 10 -25 14 -25 6z"/>
<path d="M5495 8031 c-3 -5 -2 -12 3 -15 5 -3 9 1 9 9 0 17 -3 19 -12 6z"/>
<path d="M14840 8840 c-9 -6 -10 -10 -3 -10 6 0 15 5 18 10 8 12 4 12 -15 0z"/>
<path d="M14439 8593 c-13 -16 -12 -17 4 -4 9 7 17 15 17 17 0 8 -8 3 -21 -13z"/>
<path d="M13956 8322 c-3 -5 1 -9 9 -9 8 0 12 4 9 9 -3 4 -7 8 -9 8 -2 0 -6
-4 -9 -8z"/>
<path d="M13735 8260 c3 -5 8 -10 11 -10 2 0 4 5 4 10 0 6 -5 10 -11 10 -5 0
-7 -4 -4 -10z"/>
<path d="M10470 8181 c0 -6 4 -13 10 -16 6 -3 7 1 4 9 -7 18 -14 21 -14 7z"/>
<path d="M13370 8139 c0 -5 5 -7 10 -4 6 3 10 8 10 11 0 2 -4 4 -10 4 -5 0
-10 -5 -10 -11z"/>
<path d="M13250 8106 c0 -2 7 -7 16 -10 8 -3 12 -2 9 4 -6 10 -25 14 -25 6z"/>
<path d="M13155 8091 c-3 -5 -2 -12 3 -15 5 -3 9 1 9 9 0 17 -3 19 -12 6z"/>
<path d="M11095 8020 c-3 -5 -1 -10 4 -10 6 0 11 5 11 10 0 6 -2 10 -4 10 -3
0 -8 -4 -11 -10z"/>
<path d="M11335 8011 c-3 -5 -2 -12 3 -15 5 -3 9 1 9 9 0 17 -3 19 -12 6z"/>
<path d="M11400 8006 c0 -2 7 -7 16 -10 8 -3 12 -2 9 4 -6 10 -25 14 -25 6z"/>
<path d="M12400 7980 c-12 -7 -10 -9 7 -7 12 0 19 5 17 9 -6 10 -6 10 -24 -2z"/>
<path d="M11846 7958 c3 -5 10 -6 15 -3 13 9 11 12 -6 12 -8 0 -12 -4 -9 -9z"/>
<path d="M11880 7966 c0 -2 8 -10 18 -17 15 -13 16 -12 3 4 -13 16 -21 21 -21
13z"/>
<path d="M12160 7960 c-9 -6 -10 -10 -3 -10 6 0 15 5 18 10 8 12 4 12 -15 0z"/>
<path d="M11640 16240 c-9 -6 -10 -10 -3 -10 6 0 15 5 18 10 8 12 4 12 -15 0z"/>
<path d="M11786 16238 c3 -5 10 -6 15 -3 13 9 11 12 -6 12 -8 0 -12 -4 -9 -9z"/>
<path d="M11090 16146 c0 -2 7 -7 16 -10 8 -3 12 -2 9 4 -6 10 -25 14 -25 6z"/>
<path d="M13056 16127 c3 -10 9 -15 12 -12 3 3 0 11 -7 18 -10 9 -11 8 -5 -6z"/>
<path d="M10906 16098 c3 -5 10 -6 15 -3 13 9 11 12 -6 12 -8 0 -12 -4 -9 -9z"/>
<path d="M13131 16107 c2 -1 13 -9 24 -17 19 -14 19 -14 6 3 -7 9 -18 17 -24
17 -6 0 -8 -1 -6 -3z"/>
<path d="M10856 16087 c3 -10 9 -15 12 -12 3 3 0 11 -7 18 -10 9 -11 8 -5 -6z"/>
<path d="M13336 16047 c3 -10 9 -15 12 -12 3 3 0 11 -7 18 -10 9 -11 8 -5 -6z"/>
<path d="M9954 15688 l-19 -23 25 20 c14 11 27 21 29 22 2 2 0 3 -6 3 -5 0
-18 -10 -29 -22z"/>
<path d="M14115 15680 c3 -5 8 -10 11 -10 2 0 4 5 4 10 0 6 -5 10 -11 10 -5 0
-7 -4 -4 -10z"/>
<path d="M14380 15506 c0 -2 8 -10 18 -17 15 -13 16 -12 3 4 -13 16 -21 21
-21 13z"/>
<path d="M15593 14206 c0 -15 22 -15 34 0 4 5 4 6 -1 2 -5 -4 -14 -3 -21 2 -8
7 -12 5 -12 -4z"/>
<path d="M15653 14205 c0 -8 4 -15 9 -15 4 0 8 4 8 9 0 6 -4 12 -8 15 -5 3 -9
-1 -9 -9z"/>
<path d="M15799 14208 c15 -21 31 -23 31 -6 0 6 -3 8 -7 5 -3 -4 -13 -1 -22 6
-14 11 -14 10 -2 -5z"/>
<path d="M15973 14205 c0 -8 4 -15 9 -15 4 0 8 4 8 9 0 6 -4 12 -8 15 -5 3 -9
-1 -9 -9z"/>
<path d="M15926 14198 c3 -5 10 -6 15 -3 13 9 11 12 -6 12 -8 0 -12 -4 -9 -9z"/>
<path d="M16046 14198 c3 -5 10 -6 15 -3 13 9 11 12 -6 12 -8 0 -12 -4 -9 -9z"/>
<path d="M16206 14198 c3 -4 9 -8 15 -8 5 0 9 4 9 8 0 5 -7 9 -15 9 -8 0 -12
-4 -9 -9z"/>
<path d="M16519 14193 c-13 -16 -12 -17 4 -4 9 7 17 15 17 17 0 8 -8 3 -21
-13z"/>
<path d="M10893 12113 c0 -9 4 -10 14 -2 7 6 13 12 13 14 0 1 -6 2 -13 2 -8 0
-14 -6 -14 -14z"/>
<path d="M11010 12121 c0 -6 4 -13 10 -16 6 -3 7 1 4 9 -7 18 -14 21 -14 7z"/>
<path d="M11133 12113 c0 -9 4 -10 14 -2 7 6 13 12 13 14 0 1 -6 2 -13 2 -8 0
-14 -6 -14 -14z"/>
<path d="M11187 12119 c7 -7 15 -10 18 -7 3 3 -2 9 -12 12 -14 6 -15 5 -6 -5z"/>
<path d="M11250 12121 c0 -6 4 -13 10 -16 6 -3 7 1 4 9 -7 18 -14 21 -14 7z"/>
<path d="M11373 12113 c0 -9 4 -10 14 -2 7 6 13 12 13 14 0 1 -6 2 -13 2 -8 0
-14 -6 -14 -14z"/>
<path d="M11427 12119 c7 -7 15 -10 18 -7 3 3 -2 9 -12 12 -14 6 -15 5 -6 -5z"/>
<path d="M11490 12121 c0 -6 4 -13 10 -16 6 -3 7 1 4 9 -7 18 -14 21 -14 7z"/>
<path d="M11613 12113 c0 -9 4 -10 14 -2 7 6 13 12 13 14 0 1 -6 2 -13 2 -8 0
-14 -6 -14 -14z"/>
<path d="M11667 12119 c7 -7 15 -10 18 -7 3 3 -2 9 -12 12 -14 6 -15 5 -6 -5z"/>
<path d="M11853 12113 c0 -9 4 -10 14 -2 7 6 13 12 13 14 0 1 -6 2 -13 2 -8 0
-14 -6 -14 -14z"/>
<path d="M11907 12119 c7 -7 15 -10 18 -7 3 3 -2 9 -12 12 -14 6 -15 5 -6 -5z"/>
<path d="M12093 12113 c0 -9 4 -10 14 -2 7 6 13 12 13 14 0 1 -6 2 -13 2 -8 0
-14 -6 -14 -14z"/>
<path d="M12147 12119 c7 -7 15 -10 18 -7 3 3 -2 9 -12 12 -14 6 -15 5 -6 -5z"/>
<path d="M12210 12121 c0 -6 4 -13 10 -16 6 -3 7 1 4 9 -7 18 -14 21 -14 7z"/>
<path d="M12333 12113 c0 -9 4 -10 14 -2 7 6 13 12 13 14 0 1 -6 2 -13 2 -8 0
-14 -6 -14 -14z"/>
<path d="M12387 12119 c7 -7 15 -10 18 -7 3 3 -2 9 -12 12 -14 6 -15 5 -6 -5z"/>
<path d="M12450 12121 c0 -6 4 -13 10 -16 6 -3 7 1 4 9 -7 18 -14 21 -14 7z"/>
<path d="M12576 12118 c3 -5 10 -6 15 -3 13 9 11 12 -6 12 -8 0 -12 -4 -9 -9z"/>
<path d="M12627 12119 c7 -7 15 -10 18 -7 3 3 -2 9 -12 12 -14 6 -15 5 -6 -5z"/>
<path d="M12816 12118 c3 -5 10 -6 15 -3 13 9 11 12 -6 12 -8 0 -12 -4 -9 -9z"/>
<path d="M12867 12119 c7 -7 15 -10 18 -7 3 3 -2 9 -12 12 -14 6 -15 5 -6 -5z"/>
<path d="M12930 12121 c0 -6 4 -13 10 -16 6 -3 7 1 4 9 -7 18 -14 21 -14 7z"/>
<path d="M13053 12113 c0 -9 4 -10 14 -2 7 6 13 12 13 14 0 1 -6 2 -13 2 -8 0
-14 -6 -14 -14z"/>
<path d="M13107 12119 c7 -7 15 -10 18 -7 3 3 -2 9 -12 12 -14 6 -15 5 -6 -5z"/>
<path d="M13170 12121 c0 -6 4 -13 10 -16 6 -3 7 1 4 9 -7 18 -14 21 -14 7z"/>
<path d="M13293 12113 c0 -9 4 -10 14 -2 7 6 13 12 13 14 0 1 -6 2 -13 2 -8 0
-14 -6 -14 -14z"/>
<path d="M13347 12119 c7 -7 15 -10 18 -7 3 3 -2 9 -12 12 -14 6 -15 5 -6 -5z"/>
<path d="M13530 12118 c0 -4 4 -8 9 -8 6 0 12 4 15 8 3 5 -1 9 -9 9 -8 0 -15
-4 -15 -9z"/>
<path d="M13650 12121 c0 -6 4 -13 10 -16 6 -3 7 1 4 9 -7 18 -14 21 -14 7z"/>
<path d="M13773 12113 c0 -9 4 -10 14 -2 7 6 13 12 13 14 0 1 -6 2 -13 2 -8 0
-14 -6 -14 -14z"/>
<path d="M13827 12119 c7 -7 15 -10 18 -7 3 3 -2 9 -12 12 -14 6 -15 5 -6 -5z"/>
<path d="M14067 12119 c7 -7 15 -10 18 -7 3 3 -2 9 -12 12 -14 6 -15 5 -6 -5z"/>
<path d="M14130 12121 c0 -6 4 -13 10 -16 6 -3 7 1 4 9 -7 18 -14 21 -14 7z"/>
<path d="M14253 12113 c0 -9 4 -10 14 -2 7 6 13 12 13 14 0 1 -6 2 -13 2 -8 0
-14 -6 -14 -14z"/>
<path d="M14307 12119 c7 -7 15 -10 18 -7 3 3 -2 9 -12 12 -14 6 -15 5 -6 -5z"/>
<path d="M14370 12121 c0 -6 4 -13 10 -16 6 -3 7 1 4 9 -7 18 -14 21 -14 7z"/>
<path d="M14493 12113 c0 -9 4 -10 14 -2 7 6 13 12 13 14 0 1 -6 2 -13 2 -8 0
-14 -6 -14 -14z"/>
<path d="M14547 12119 c7 -7 15 -10 18 -7 3 3 -2 9 -12 12 -14 6 -15 5 -6 -5z"/>
<path d="M14733 12113 c0 -9 4 -10 14 -2 7 6 13 12 13 14 0 1 -6 2 -13 2 -8 0
-14 -6 -14 -14z"/>
<path d="M14850 12121 c0 -6 4 -13 10 -16 6 -3 7 1 4 9 -7 18 -14 21 -14 7z"/>
<path d="M14973 12113 c0 -9 4 -10 14 -2 7 6 13 12 13 14 0 1 -6 2 -13 2 -8 0
-14 -6 -14 -14z"/>
<path d="M15027 12119 c7 -7 15 -10 18 -7 3 3 -2 9 -12 12 -14 6 -15 5 -6 -5z"/>
<path d="M15090 12121 c0 -6 4 -13 10 -16 6 -3 7 1 4 9 -7 18 -14 21 -14 7z"/>
<path d="M15213 12113 c0 -9 4 -10 14 -2 7 6 13 12 13 14 0 1 -6 2 -13 2 -8 0
-14 -6 -14 -14z"/>
<path d="M15270 12116 c7 -7 13 -7 20 0 6 6 3 10 -10 10 -13 0 -16 -4 -10 -10z"/>
<path d="M15574 12122 c4 -3 14 -7 22 -8 9 -1 13 0 10 4 -4 3 -14 7 -22 8 -9
1 -13 0 -10 -4z"/>
<path d="M11913 6645 c0 -8 4 -12 9 -9 5 3 6 10 3 15 -9 13 -12 11 -12 -6z"/>
<path d="M14793 6645 c0 -8 4 -12 9 -9 5 3 6 10 3 15 -9 13 -12 11 -12 -6z"/>
<path d="M16490 6626 c0 -2 7 -7 16 -10 8 -3 12 -2 9 4 -6 10 -25 14 -25 6z"/>
<path d="M10813 5255 c0 -8 4 -12 9 -9 5 3 6 10 3 15 -9 13 -12 11 -12 -6z"/>
<path d="M11136 5038 c3 -5 10 -6 15 -3 13 9 11 12 -6 12 -8 0 -12 -4 -9 -9z"/>
<path d="M11710 4646 c0 -2 7 -7 16 -10 8 -3 12 -2 9 4 -6 10 -25 14 -25 6z"/>
<path d="M12680 4000 c8 -5 20 -10 25 -10 6 0 3 5 -5 10 -8 5 -19 10 -25 10
-5 0 -3 -5 5 -10z"/>
<path d="M8510 3679 c0 -5 5 -7 10 -4 6 3 10 8 10 11 0 2 -4 4 -10 4 -5 0 -10
-5 -10 -11z"/>
<path d="M8400 3600 c-12 -7 -10 -9 7 -7 12 0 19 5 17 9 -6 10 -6 10 -24 -2z"/>
<path d="M13256 3602 c-3 -5 1 -9 9 -9 8 0 12 4 9 9 -3 4 -7 8 -9 8 -2 0 -6
-4 -9 -8z"/>
<path d="M2380 3420 c8 -5 20 -10 25 -10 6 0 3 5 -5 10 -8 5 -19 10 -25 10 -5
0 -3 -5 5 -10z"/>
<path d="M13655 3341 c-3 -5 -2 -12 3 -15 5 -3 9 1 9 9 0 17 -3 19 -12 6z"/>
<path d="M3216 2947 c3 -10 9 -15 12 -12 3 3 0 11 -7 18 -10 9 -11 8 -5 -6z"/>
<path d="M14270 2920 c0 -5 5 -10 11 -10 5 0 7 5 4 10 -3 6 -8 10 -11 10 -2 0
-4 -4 -4 -10z"/>
<path d="M6800 2740 c-9 -6 -10 -10 -3 -10 6 0 15 5 18 10 8 12 4 12 -15 0z"/>
<path d="M6720 2720 c-9 -6 -10 -10 -3 -10 6 0 15 5 18 10 8 12 4 12 -15 0z"/>
<path d="M3845 2700 c-3 -6 1 -7 9 -4 18 7 21 14 7 14 -6 0 -13 -4 -16 -10z"/>
<path d="M3933 2685 c0 -8 4 -12 9 -9 5 3 6 10 3 15 -9 13 -12 11 -12 -6z"/>
<path d="M4050 2660 c0 -5 5 -10 11 -10 5 0 7 5 4 10 -3 6 -8 10 -11 10 -2 0
-4 -4 -4 -10z"/>
<path d="M6446 2638 c3 -5 10 -6 15 -3 13 9 11 12 -6 12 -8 0 -12 -4 -9 -9z"/>
<path d="M14676 2642 c-3 -5 1 -9 9 -9 8 0 12 4 9 9 -3 4 -7 8 -9 8 -2 0 -6
-4 -9 -8z"/>
<path d="M6144 2582 c4 -3 14 -7 22 -8 9 -1 13 0 10 4 -4 3 -14 7 -22 8 -9 1
-13 0 -10 -4z"/>
<path d="M6066 2558 c3 -5 10 -6 15 -3 13 9 11 12 -6 12 -8 0 -12 -4 -9 -9z"/>
<path d="M14796 2562 c-3 -5 1 -9 9 -9 8 0 12 4 9 9 -3 4 -7 8 -9 8 -2 0 -6
-4 -9 -8z"/>
<path d="M5656 2518 c3 -5 10 -6 15 -3 13 9 11 12 -6 12 -8 0 -12 -4 -9 -9z"/>
<path d="M15086 2518 c3 -5 10 -6 15 -3 13 9 11 12 -6 12 -8 0 -12 -4 -9 -9z"/>
<path d="M15806 2518 c3 -5 10 -6 15 -3 13 9 11 12 -6 12 -8 0 -12 -4 -9 -9z"/>
<path d="M15980 2526 c0 -2 8 -10 18 -17 15 -13 16 -12 3 4 -13 16 -21 21 -21
13z"/>
<path d="M5025 2500 c-3 -6 1 -7 9 -4 18 7 21 14 7 14 -6 0 -13 -4 -16 -10z"/>
<path d="M5130 2506 c0 -2 7 -7 16 -10 8 -3 12 -2 9 4 -6 10 -25 14 -25 6z"/>
<path d="M5205 2500 c-3 -6 1 -7 9 -4 18 7 21 14 7 14 -6 0 -13 -4 -16 -10z"/>
<path d="M5370 2506 c0 -2 7 -7 16 -10 8 -3 12 -2 9 4 -6 10 -25 14 -25 6z"/>
<path d="M7335 2500 c3 -5 8 -10 11 -10 2 0 4 5 4 10 0 6 -5 10 -11 10 -5 0
-7 -4 -4 -10z"/>
<path d="M7455 2500 c3 -5 8 -10 11 -10 2 0 4 5 4 10 0 6 -5 10 -11 10 -5 0
-7 -4 -4 -10z"/>
<path d="M7575 2500 c3 -5 8 -10 11 -10 2 0 4 5 4 10 0 6 -5 10 -11 10 -5 0
-7 -4 -4 -10z"/>
<path d="M15316 2498 c3 -5 10 -6 15 -3 13 9 11 12 -6 12 -8 0 -12 -4 -9 -9z"/>
<path d="M15560 2500 c-9 -6 -10 -10 -3 -10 6 0 15 5 18 10 8 12 4 12 -15 0z"/>
<path d="M7195 2480 c-3 -5 -1 -10 4 -10 6 0 11 5 11 10 0 6 -2 10 -4 10 -3 0
-8 -4 -11 -10z"/>
<path d="M8780 2081 c0 -5 7 -14 15 -21 8 -7 15 -19 15 -26 0 -8 5 -14 10 -14
6 0 10 -5 10 -11 0 -7 8 -19 18 -28 9 -9 46 -56 82 -106 35 -49 81 -112 102
-139 20 -28 35 -54 32 -58 -3 -5 -1 -7 4 -6 14 4 84 -92 78 -107 -3 -9 0 -12
10 -8 12 5 19 -7 15 -30 0 -4 3 -6 8 -5 5 2 9 0 10 -4 1 -5 9 -16 19 -26 9
-11 26 -32 37 -47 11 -16 26 -34 33 -41 6 -7 12 -15 12 -19 0 -4 6 -13 13 -20
31 -35 37 -45 34 -57 -2 -7 -2 -9 1 -5 6 11 32 -13 32 -29 0 -8 5 -14 10 -14
6 0 10 -6 10 -13 0 -7 9 -18 21 -25 14 -9 18 -19 14 -35 -4 -15 -3 -18 3 -9 7
10 13 7 25 -12 10 -14 17 -30 17 -36 0 -9 -53 -88 -87 -130 -7 -8 -96 -127
-198 -265 -101 -137 -193 -261 -202 -274 -10 -13 -75 -100 -145 -194 l-126
-171 26 -13 c21 -11 27 -11 34 -1 6 10 8 10 8 -2 0 -12 2 -12 9 -1 6 9 11 10
15 2 4 -6 13 -8 19 -4 23 15 141 10 155 -7 11 -13 11 -13 7 1 -4 10 0 16 10
16 8 0 15 -5 15 -10 0 -5 7 -4 15 3 13 11 18 10 30 -6 11 -13 13 -14 10 -3 -4
10 0 16 10 16 8 0 15 -5 15 -10 0 -6 5 -6 13 0 14 12 66 11 86 -2 10 -5 12 -4
7 3 -4 7 -2 12 3 12 6 0 11 -6 11 -12 0 -10 3 -9 9 1 7 11 9 11 14 0 4 -11 6
-11 6 0 1 11 5 10 16 -5 10 -13 14 -14 13 -4 -2 12 11 15 72 15 41 1 80 -1 85
-4 18 -10 35 -9 41 0 3 5 10 6 16 3 6 -4 8 -2 5 3 -4 6 0 13 8 17 8 3 15 10
15 16 0 16 42 70 50 65 4 -3 7 3 6 13 0 9 5 16 12 14 7 -1 12 3 10 10 -2 7 7
27 20 45 12 17 22 34 22 38 0 4 10 17 23 29 12 11 23 23 24 26 9 28 17 39 24
34 5 -3 9 -2 8 3 -3 19 2 31 24 55 12 14 30 38 39 54 10 16 22 28 28 26 7 -1
9 2 5 7 -7 12 43 91 57 91 5 0 7 4 3 9 -3 6 3 14 12 20 10 6 14 11 9 11 -5 0
-3 6 4 14 6 8 19 12 28 9 14 -4 15 -3 2 6 -11 7 -12 13 -4 21 9 9 18 1 35 -27
13 -21 27 -39 31 -41 4 -2 8 -10 8 -17 0 -7 6 -15 13 -18 9 -3 8 -8 -3 -23
-14 -17 -14 -18 2 -5 15 11 19 10 29 -13 7 -14 17 -26 22 -26 6 0 8 -3 4 -6
-3 -4 1 -13 9 -21 8 -8 11 -19 8 -25 -4 -6 -3 -8 2 -5 11 6 111 -139 106 -155
-1 -5 2 -7 7 -3 12 7 33 -29 23 -40 -4 -5 -1 -4 7 0 11 6 13 4 8 -8 -4 -10 -2
-16 5 -14 6 1 15 -9 19 -23 4 -14 7 -21 8 -16 1 11 30 -25 31 -37 0 -5 -5 -5
-12 -1 -7 4 -8 3 -4 -5 4 -6 12 -9 17 -5 6 3 13 -3 16 -15 3 -11 9 -18 14 -15
5 3 9 0 9 -5 0 -6 0 -13 0 -16 0 -6 28 -33 55 -55 10 -8 16 -10 12 -4 -8 14
51 13 73 -1 9 -5 11 -4 6 3 -4 7 -2 12 3 12 6 0 11 -6 11 -12 0 -10 3 -9 9 1
7 11 9 11 14 0 4 -11 6 -11 6 0 1 11 5 10 16 -5 8 -10 15 -14 14 -9 -3 22 2
29 11 15 8 -12 10 -12 10 -1 0 11 3 11 17 0 11 -10 14 -10 9 -1 -4 6 -2 12 3
12 6 0 11 -6 11 -12 0 -8 3 -9 8 -3 9 13 72 13 91 1 10 -6 12 -5 7 2 -11 19 5
14 20 -6 11 -13 13 -14 9 -1 -4 10 0 16 10 16 8 0 15 -5 15 -10 0 -5 7 -4 15
3 13 11 18 10 30 -6 11 -13 13 -14 10 -3 -5 12 1 15 27 15 18 -1 39 -8 46 -16
11 -13 11 -13 7 1 -4 10 0 16 10 16 8 0 15 -5 15 -10 0 -5 7 -4 15 3 13 11 18
10 30 -6 9 -12 13 -13 10 -4 -4 12 5 15 54 15 33 0 57 -3 55 -7 -3 -5 0 -8 5
-8 6 0 11 5 11 11 0 6 7 9 15 5 8 -3 15 -3 15 0 0 6 -120 175 -130 184 -3 3
-42 55 -85 115 -44 61 -85 117 -92 125 -62 76 -443 602 -443 612 0 7 16 33 35
57 19 24 35 47 35 50 0 11 47 61 53 55 3 -3 4 3 3 13 0 10 4 17 11 16 7 -2 10
3 8 10 -6 16 32 60 45 52 5 -3 7 0 5 7 -7 17 39 80 50 70 5 -4 5 -1 0 7 -4 7
-4 16 1 20 5 3 22 25 38 48 16 24 33 40 40 36 6 -3 8 -3 4 2 -10 11 11 47 22
40 6 -3 7 1 4 9 -3 9 -1 16 5 16 6 0 11 7 11 15 0 7 8 19 18 24 9 6 14 11 10
11 -8 0 18 33 54 71 9 9 14 19 12 22 -2 2 8 17 23 33 15 16 26 31 25 34 0 3 7
4 16 3 10 -1 11 0 4 3 -16 7 16 64 36 64 7 0 10 4 7 10 -3 5 6 22 22 37 15 16
27 30 26 33 0 3 12 24 28 47 16 23 29 44 29 47 0 3 -168 6 -374 6 l-374 0
-194 -309 -193 -309 -56 87 c-31 47 -94 145 -139 216 -45 72 -109 172 -142
223 l-61 92 -378 0 c-211 0 -379 -4 -379 -9z"/>
<path d="M11650 2050 c17 -22 29 -40 26 -40 -3 0 6 -11 20 -25 14 -14 22 -30
18 -37 -4 -6 -3 -8 3 -5 12 8 56 -50 48 -63 -4 -6 -2 -9 3 -8 14 4 73 -72 65
-85 -3 -6 -1 -7 5 -3 7 4 12 3 12 -3 0 -5 7 -16 15 -25 21 -21 85 -105 85
-112 0 -3 6 -12 13 -19 39 -44 107 -133 107 -140 0 -3 9 -14 20 -25 12 -12 18
-25 15 -31 -4 -5 -2 -8 3 -7 13 4 84 -91 77 -103 -4 -5 -1 -8 5 -7 7 2 17 -6
23 -17 7 -11 18 -25 26 -31 8 -6 11 -16 7 -23 -4 -6 -3 -10 2 -9 14 4 73 -72
65 -85 -3 -6 -1 -7 5 -3 7 4 12 3 12 -3 0 -6 9 -19 21 -30 12 -11 18 -24 14
-30 -3 -7 -2 -10 3 -9 8 3 62 -54 62 -66 0 -6 23 -36 48 -61 9 -11 12 -111 12
-434 0 -290 3 -421 11 -421 5 0 7 -5 3 -11 -5 -8 -1 -8 13 0 14 7 24 7 33 -2
10 -9 11 -9 6 1 -11 18 5 15 20 -5 11 -14 13 -15 9 -2 -6 17 19 20 44 4 9 -5
12 -4 8 2 -8 13 52 11 73 -2 9 -5 11 -4 6 3 -4 7 -2 12 3 12 6 0 11 -6 11 -12
0 -10 3 -9 9 1 7 11 9 11 14 0 4 -11 6 -11 6 0 1 11 5 10 16 -5 8 -10 15 -14
14 -9 -3 22 2 29 11 15 8 -12 10 -12 10 -1 0 11 3 11 17 0 11 -10 14 -10 9 -1
-4 6 -2 12 3 12 6 0 11 -6 11 -12 0 -8 3 -9 8 -3 9 13 72 13 91 1 10 -6 12 -5
7 2 -11 19 5 14 20 -5 11 -14 13 -15 9 -2 -4 10 0 16 10 16 8 0 15 -5 15 -10
0 -5 7 -4 15 3 13 11 18 10 30 -6 10 -12 13 -14 10 -4 -5 13 5 16 57 15 l63 0
3 423 c1 239 6 421 11 418 5 -3 8 2 7 12 0 10 5 16 14 14 8 -2 12 0 8 3 -11
11 11 47 24 39 7 -4 8 -3 4 4 -4 7 -2 12 4 12 6 0 9 4 6 9 -4 5 11 26 31 48
21 21 37 40 36 43 -5 14 88 125 101 122 6 -2 8 0 4 3 -13 14 12 47 30 40 13
-5 14 -4 5 6 -10 9 -6 19 14 43 14 17 31 31 37 31 6 0 11 7 11 15 0 23 36 71
48 63 6 -3 7 -1 3 5 -4 7 4 23 18 37 14 14 23 25 20 25 -4 0 74 109 87 120 3
3 13 16 22 30 10 14 23 25 30 25 6 0 11 8 9 17 -1 9 6 22 16 30 11 7 20 17 20
21 0 9 15 30 71 103 31 40 52 60 35 32 -4 -7 -3 -8 5 -4 6 4 9 11 6 16 -3 5 3
18 15 30 11 11 17 20 14 20 -4 0 -1 7 6 15 7 8 17 12 23 8 6 -3 7 -1 3 6 -4 6
-2 18 4 27 10 12 16 12 29 2 14 -12 14 -11 3 4 -12 15 -10 22 13 53 l27 35
-384 0 -384 0 -115 -172 c-63 -95 -116 -175 -120 -178 -3 -3 -20 -30 -38 -60
-19 -30 -36 -57 -40 -60 -3 -3 -35 -49 -71 -102 -36 -54 -68 -96 -71 -95 -4 1
-100 142 -214 312 -115 171 -216 320 -224 332 l-16 22 -383 1 -384 0 32 -40z"/>
<path d="M14545 1893 c0 -109 -3 -204 -8 -210 -9 -12 7 -16 39 -12 4 0 11 -5
15 -13 5 -7 9 -8 9 -2 0 11 59 12 77 1 6 -4 13 -1 16 5 3 9 10 7 22 -7 9 -11
14 -15 11 -9 -8 16 8 20 81 19 36 0 63 -4 62 -10 -1 -5 -5 -9 -11 -7 -5 1 -6
-3 -2 -9 5 -9 13 -5 26 11 16 20 21 21 29 9 7 -12 9 -12 9 1 0 13 1 13 10 0 9
-13 11 -13 20 0 9 13 10 13 10 0 0 -13 1 -13 11 0 8 11 12 12 16 3 2 -7 9 -13
14 -13 6 0 7 6 3 13 -5 8 -2 8 9 -2 9 -7 17 -9 17 -4 0 11 29 11 48 -1 6 -4
12 -2 12 3 0 19 16 12 29 -11 6 -13 9 -15 7 -5 -3 9 0 17 7 18 44 4 95 1 105
-5 7 -4 12 -2 12 3 0 19 16 12 29 -11 6 -13 9 -15 7 -5 -6 19 -8 18 57 20 27
1 51 -2 54 -7 3 -4 9 -2 14 5 7 11 11 10 24 -6 9 -11 14 -14 10 -7 -7 14 -8
13 58 15 27 1 51 -2 54 -7 3 -4 10 -2 15 5 7 11 11 11 15 1 2 -6 9 -9 14 -6
11 7 59 13 59 8 0 -5 -63 -66 -190 -184 -63 -58 -126 -116 -140 -130 -15 -14
-78 -73 -141 -131 -63 -59 -130 -121 -149 -139 -19 -18 -86 -80 -149 -139 -63
-58 -126 -117 -141 -131 -14 -14 -78 -72 -140 -130 -62 -58 -131 -122 -153
-142 l-39 -37 -1 -200 c0 -136 3 -205 10 -212 6 -6 9 -19 7 -28 -3 -9 1 -6 8
7 11 18 16 20 27 10 8 -8 11 -8 8 -2 -8 14 51 13 73 -1 9 -5 11 -4 6 3 -11 19
5 14 20 -5 11 -14 13 -15 9 -2 -4 10 0 16 10 16 8 0 15 -5 15 -10 0 -5 7 -4
15 3 13 11 18 10 30 -6 11 -13 13 -14 10 -3 -5 12 1 15 27 15 18 -1 39 -8 46
-16 11 -13 11 -13 7 1 -4 10 0 16 10 16 8 0 15 -5 15 -10 0 -5 7 -4 15 3 13
11 18 10 30 -6 12 -16 14 -16 9 -2 -4 13 -1 16 15 13 12 -2 26 -7 33 -11 6 -4
8 -3 5 3 -8 13 52 11 73 -2 9 -5 11 -4 6 3 -4 7 -2 12 3 12 6 0 11 -6 11 -12
0 -10 3 -9 9 1 7 11 9 11 14 0 4 -11 6 -11 6 0 1 11 5 10 16 -5 8 -10 14 -14
13 -9 -3 8 6 17 15 14 20 -6 36 -5 31 2 -3 5 0 9 5 9 6 0 11 -6 11 -12 0 -8 3
-9 8 -3 9 13 72 13 91 1 10 -6 12 -5 7 2 -11 19 5 14 20 -6 10 -12 13 -13 9
-2 -4 12 4 15 42 15 27 0 54 -4 62 -9 9 -6 12 -5 8 1 -10 17 26 10 41 -7 10
-13 11 -13 6 2 -4 13 -1 16 15 13 12 -2 26 -7 33 -11 7 -4 8 -3 4 4 -11 19 5
14 20 -6 11 -13 13 -14 9 -1 -6 17 19 20 44 4 9 -5 12 -4 8 2 -8 13 52 11 73
-2 9 -5 11 -4 6 3 -4 7 -2 12 3 12 6 0 11 -6 11 -12 0 -10 3 -9 9 1 7 11 9 11
14 0 4 -11 6 -11 6 0 1 11 5 10 16 -5 8 -10 15 -14 14 -9 -3 22 2 29 11 15 8
-12 10 -12 10 -1 0 11 3 11 17 0 11 -10 14 -10 9 -1 -4 6 -2 12 3 12 6 0 11
-6 11 -12 0 -8 3 -9 8 -3 9 13 72 13 91 1 10 -6 12 -5 7 2 -11 19 5 14 20 -5
11 -14 13 -15 9 -2 -4 10 0 16 10 16 8 0 15 -5 15 -10 0 -5 7 -4 15 3 13 11
18 10 30 -6 11 -13 13 -14 10 -3 -5 12 1 15 27 15 18 -1 39 -8 46 -16 11 -13
11 -13 7 1 -4 10 0 16 10 16 8 0 15 -5 15 -10 0 -5 7 -4 15 3 13 11 18 10 30
-6 12 -16 14 -16 9 -2 -4 13 -1 16 15 13 12 -2 26 -7 33 -11 6 -4 8 -3 5 3 -8
13 52 11 73 -2 9 -5 11 -4 6 3 -4 7 -2 12 3 12 6 0 11 -6 11 -12 0 -10 3 -9 9
1 7 11 9 11 14 0 4 -11 6 -11 6 0 1 11 5 10 16 -5 8 -10 14 -14 13 -9 -3 8 6
17 15 14 20 -6 36 -5 31 2 -3 5 0 9 5 9 6 0 11 -6 11 -12 0 -9 4 -8 10 2 7 11
10 11 10 2 0 -8 5 -10 13 -5 23 14 39 12 33 -5 -5 -15 -4 -15 6 -2 7 8 20 15
28 15 8 0 21 -7 28 -15 10 -13 11 -13 6 2 -6 17 10 19 33 5 6 -4 14 -3 18 3 7
11 8 430 2 437 -2 2 -296 4 -653 4 l-648 1 57 54 c32 30 62 52 67 49 5 -3 7 1
4 9 -3 9 2 17 15 21 12 4 18 11 15 17 -5 8 -1 9 10 5 9 -4 15 -3 12 1 -7 11
33 44 44 37 5 -3 12 0 16 6 5 8 3 9 -6 4 -8 -5 -11 -3 -8 6 3 8 12 13 21 13 9
-1 15 2 12 6 -7 11 134 142 145 135 6 -3 7 1 4 9 -6 14 5 21 29 17 4 0 6 5 5
11 -2 7 4 11 12 10 8 -2 12 -1 8 3 -9 9 63 85 80 85 7 0 10 5 7 10 -3 6 0 13
8 16 8 3 47 36 87 75 54 52 76 66 82 57 6 -9 7 -5 3 10 -3 12 -2 22 3 22 5 0
32 23 60 50 28 28 56 50 62 50 5 0 10 7 10 16 0 10 6 14 15 10 8 -3 14 -1 12
3 -3 14 125 131 136 124 5 -3 7 -1 4 4 -8 13 17 36 28 25 5 -4 5 -2 2 4 -3 6
22 35 55 65 34 30 73 66 87 82 19 21 27 24 34 15 6 -10 7 -9 4 3 -3 9 -1 21 5
27 8 8 12 191 8 380 l0 22 -983 0 -983 0 1 -197z"/>
<path d="M12070 1439 c0 -5 5 -7 10 -4 6 3 10 8 10 11 0 2 -4 4 -10 4 -5 0
-10 -5 -10 -11z"/>
<path d="M7517 603 c-3 -5 -5 -123 -4 -264 0 -254 0 -256 21 -255 14 1 20 -4
18 -14 -2 -13 -1 -13 10 0 15 17 89 21 100 5 5 -6 8 -4 8 5 0 13 1 13 10 0 8
-12 10 -12 10 -1 0 11 3 11 17 0 11 -10 14 -10 9 -1 -4 6 -2 12 3 12 6 0 11
-6 11 -12 0 -8 3 -9 8 -3 9 13 72 13 91 1 10 -6 12 -5 7 2 -11 19 5 14 20 -5
11 -14 13 -15 9 -2 -4 10 0 16 10 16 8 0 15 -5 15 -10 0 -5 7 -4 15 3 13 11
18 10 30 -6 11 -13 13 -14 10 -3 -6 17 19 20 44 4 9 -5 12 -4 8 2 -8 13 52 11
73 -2 9 -5 11 -4 6 3 -4 7 -2 12 3 12 6 0 11 -6 11 -12 0 -10 3 -9 9 1 7 11 9
11 14 0 4 -11 6 -11 6 0 1 11 5 10 16 -5 10 -12 14 -14 13 -4 -3 16 39 23 48
8 18 -28 24 41 24 275 l0 257 -349 0 c-193 0 -352 -3 -354 -7z"/>
<path d="M15316 553 c-6 -14 -5 -15 5 -6 7 7 10 15 7 18 -3 3 -9 -2 -12 -12z"/>
<path d="M8836 58 c3 -4 11 -5 19 -1 21 7 19 12 -4 10 -11 0 -18 -5 -15 -9z"/>
<path d="M8947 59 c7 -7 15 -10 18 -7 3 3 -2 9 -12 12 -14 6 -15 5 -6 -5z"/>
</g>
</svg>
