<svg width="179" height="186" viewBox="0 0 179 186" fill="none" xmlns="http://www.w3.org/2000/svg">
<g filter="url(#filter0_d_1_39)">
<path d="M85.3 177.5H78V172.1H85.3V177.5ZM107.5 177.5L102.9 170.8L98.3 177.5H90.3L98.3 166.7L91 156.8H98.9L103 163.2L107 156.8H114.8L107.6 166.8L115.5 177.5H107.5ZM136.6 168.8V177.5H129.4V168.8L120.4 156.8H128.3L133 163.8L137.7 156.8H145.6L136.6 168.8ZM171.3 177.5H149.3V173.2L162.2 161.2H150.6V156.8H170.9V160.9L157.9 173H171.4V177.5H171.3Z" fill="black"/>
</g>
<g filter="url(#filter1_d_1_39)">
<path d="M95.9 21.8C94 19.1 91.9 16.6 89.5 14.3C80.5 5.70002 68 0.400024 54.3 0.400024C26.8 0.400024 4.40002 21.7 4.40002 47.9C4.40002 74.1 26.8 95.4 54.3 95.4C58.4 95.4 62.4 94.9 66.3 94V83.9C62.5 85 58.5 85.7 54.3 85.7C32.2 85.7 14.3 68.8 14.3 48C14.3 27.2 32.3 10.3 54.3 10.3C65.6 10.3 75.8 14.7 83.1 21.8C83.7 22.4 84.3 23 84.9 23.6C84.9 23.7 85 23.7 85 23.8C85.5 24.4 86.1 25.1 86.6 25.7C87.1 26.3 87.6 27 88 27.7C88.1 27.8 88.2 27.9 88.2 28C91.2 32.5 93.2 37.5 93.9 43H85C84.8 44.6 84.6 46.3 84.6 47.9C84.6 49.6 84.7 51.2 84.9 52.8H93.8H98.7H103.8C104 51.2 104.1 49.5 104.1 47.9C104.1 38.3 101.1 29.3 95.9 21.8Z" fill="black"/>
<path d="M74.8 48C74.8 46.3 74.9 44.7 75.1 43.1H24.9V53H75C74.9 51.2 74.8 49.6 74.8 48Z" fill="black"/>
</g>
<g filter="url(#filter2_d_1_39)">
<path d="M74.4 148.6C74.4 150.9 74.4 152.3 74.4 152.4H84.3C84.3 152.3 84.3 148.6 84.3 143.3C81.2 145.4 77.9 147.2 74.4 148.6Z" fill="black"/>
<path d="M168.8 109.7H173.9C174.1 108.1 174.2 106.4 174.2 104.8C174.2 78.6 151.8 57.3 124.3 57.3C96.8 57.3 74.4 78.6 74.4 104.8C74.4 105.1 74.4 123.9 74.4 137.7C78.1 135.8 81.4 133.3 84.3 130.4C84.3 118 84.3 104.9 84.3 104.7C84.3 83.9 102.3 67 124.3 67C144.6 67 161.4 81.3 164 99.8H91.3V106.3V109.8L94.3 111.8L97.6 114L153.9 152.1H170.8L111.7 109.5H164H168.8V109.7Z" fill="black"/>
</g>
<g filter="url(#filter3_d_1_39)">
<path d="M104.6 99.9C104.3 96.7 103.5 93.6 102.6 90.6C98.5 88.7 94.8 86.2 91.4 83.4C90.8 84.2 90.2 85.1 89.6 86C92.2 90.2 93.9 94.9 94.6 99.9H104.6Z" fill="#FF6633"/>
<path d="M28.4 76.7C35.5 70.8 44.8 67.1 55 67.1C65.9 67.1 75.9 71.3 83.1 78C83.6 77.4 84 76.7 84.5 76.1C81.3 71.9 78.7 67.3 77.1 62.2C70.4 59 62.9 57.3 55 57.3C42.1 57.3 30.4 62 21.5 69.6C23.5 72.2 25.8 74.6 28.4 76.7Z" fill="#FF6633"/>
<path d="M84.2 130.5C81.3 133.4 78 135.8 74.3 137.8C68.6 140.8 61.9 142.5 54.9 142.5C32.8 142.5 14.9 125.6 14.9 104.8C14.9 97.1 17.4 89.9 21.6 83.9C19 81.8 16.7 79.4 14.6 76.8C8.6 84.7 5 94.3 5 104.8C5 131 27.4 152.3 54.9 152.3C61.8 152.3 68.3 151 74.3 148.6C77.8 147.2 81.1 145.4 84.2 143.3C93.1 137.1 99.8 128.2 102.9 117.9L94.2 112C92.8 119.1 89.2 125.4 84.2 130.5Z" fill="#FF6633"/>
</g>
<g filter="url(#filter4_d_1_39)">
<path d="M124.6 10.3C140.4 10.3 154.1 18.9 160.6 31.5H171.4C164.3 13.4 146 0.5 124.6 0.5C110.9 0.5 98.4001 5.8 89.4001 14.4C91.8001 16.7 93.9001 19.2 95.8001 21.9C103.1 14.7 113.4 10.3 124.6 10.3Z" fill="#0099FF"/>
<path d="M174.5 48C174.5 46.3 174.4 44.7 174.2 43.1H169.1H164.2H110.5V53H164.2C164 54.5 163.7 55.9 163.3 57.3C163.2 57.6 163.1 57.9 163 58.3C162.9 58.6 162.8 58.9 162.7 59.1C162.6 59.4 162.5 59.7 162.4 60.1C162.3 60.5 162.1 60.8 162 61.2C161.9 61.6 161.7 61.9 161.5 62.3C161.3 62.7 161.1 63.1 160.9 63.5C160.8 63.7 160.7 64 160.6 64.2C160.4 64.6 160.2 65.1 159.9 65.5C159.8 65.6 159.7 65.8 159.7 65.9C159.4 66.5 159 67 158.7 67.6C158.6 67.7 158.5 67.9 158.4 68C158.1 68.5 157.8 68.9 157.4 69.4C157.3 69.5 157.3 69.5 157.2 69.6C157.1 69.7 157.1 69.8 157 69.9C156.8 70.2 156.5 70.5 156.3 70.8C156 71.2 155.7 71.5 155.4 71.9C155.2 72.1 155.1 72.3 154.9 72.5C154.6 72.9 154.2 73.2 153.9 73.6C153.8 73.7 153.7 73.8 153.5 74C153 74.5 152.6 74.9 152.1 75.3C152 75.4 151.9 75.5 151.7 75.6C151.3 76 150.8 76.3 150.4 76.7L150.3 76.8C149 77.9 147.6 78.8 146.2 79.7C146.2 79.7 146.2 79.7 146.1 79.7C145.7 80 145.2 80.2 144.7 80.5C144.6 80.5 144.6 80.6 144.5 80.6C144.1 80.8 143.7 81.1 143.2 81.3C143.1 81.3 143 81.4 142.9 81.4C142.5 81.6 142.1 81.8 141.7 82C141.6 82.1 141.5 82.1 141.3 82.2C140.9 82.4 140.5 82.5 140.1 82.7C140 82.8 139.8 82.8 139.7 82.9C139.3 83.1 138.9 83.2 138.6 83.3C138.4 83.4 138.3 83.4 138.1 83.5C137.7 83.6 137.4 83.8 137 83.9C136.8 84 136.6 84 136.5 84.1C136.1 84.2 135.8 84.3 135.4 84.4C135.2 84.5 135 84.5 134.8 84.6C134.4 84.7 134.1 84.8 133.7 84.9C133.5 84.9 133.3 85 133.1 85C132.7 85.1 132.4 85.1 132 85.2C131.8 85.2 131.6 85.3 131.4 85.3C131 85.4 130.7 85.4 130.3 85.5C130.1 85.5 129.9 85.6 129.6 85.6C129.2 85.6 128.9 85.7 128.5 85.7C128.3 85.7 128.1 85.7 127.9 85.8C127.5 85.8 127.1 85.9 126.7 85.9C126.5 85.9 126.3 85.9 126.1 85.9C125.5 85.9 124.9 85.9 124.3 85.9C123.7 85.9 123.1 85.9 122.5 85.9C122.3 85.9 122.1 85.9 121.9 85.9C121.5 85.9 121.1 85.9 120.7 85.8C120.5 85.8 120.2 85.8 120 85.7C119.6 85.7 119.3 85.6 118.9 85.6C118.7 85.6 118.4 85.5 118.2 85.5C117.9 85.4 117.5 85.4 117.2 85.3C117 85.3 116.7 85.2 116.5 85.2C116.2 85.1 115.8 85.1 115.5 85C115.3 84.9 115 84.9 114.8 84.8C114.5 84.7 114.1 84.6 113.8 84.6C113.6 84.5 113.3 84.5 113.1 84.4C112.8 84.3 112.4 84.2 112.1 84.1C111.9 84 111.7 84 111.4 83.9C111.1 83.8 110.7 83.7 110.4 83.6C110.2 83.5 110 83.5 109.8 83.4C109.4 83.3 109.1 83.1 108.7 83C108.5 82.9 108.3 82.9 108.2 82.8C107.8 82.6 107.4 82.5 107 82.3C106.9 82.2 106.7 82.2 106.6 82.1C106.1 81.9 105.6 81.6 105.2 81.4C105.2 81.4 105.2 81.4 105.1 81.4C104.1 80.9 103.1 80.3 102.1 79.7C101.6 79.4 101.2 79.1 100.7 78.8C100.6 78.8 100.6 78.7 100.5 78.7C100.1 78.4 99.7001 78.1 99.3001 77.9C99.2001 77.8 99.1001 77.8 99.0001 77.7C98.6001 77.4 98.3001 77.1 97.9001 76.8L97.8001 76.7C95.2001 78.8 92.9001 81.2 91.0001 83.8C94.4001 86.7 98.1001 89.1 102.2 91.1C102.3 91.1 102.3 91.2 102.4 91.2C103.1 91.5 103.9 91.9 104.7 92.2C104.7 92.2 104.8 92.2 104.8 92.3C105.6 92.6 106.5 93 107.4 93.3H107.5C108.3 93.6 109.1 93.8 109.9 94C110.1 94.1 110.3 94.1 110.4 94.2C111.1 94.4 111.8 94.6 112.5 94.7C112.7 94.7 112.8 94.8 113 94.8C113.9 95 114.7 95.2 115.6 95.3C115.7 95.3 115.7 95.3 115.8 95.3C116.6 95.4 117.4 95.5 118.2 95.6C118.5 95.6 118.7 95.7 119 95.7C119.6 95.8 120.3 95.8 120.9 95.9C121.2 95.9 121.4 95.9 121.7 95.9C122.6 95.9 123.5 96 124.4 96C125.2 96 125.9 96 126.7 95.9C126.9 95.9 127.1 95.9 127.4 95.9C127.9 95.9 128.5 95.8 129 95.8C129.2 95.8 129.5 95.7 129.7 95.7C130.2 95.6 130.7 95.6 131.2 95.5C131.4 95.5 131.7 95.4 131.9 95.4C132.4 95.3 132.9 95.3 133.4 95.2C133.6 95.2 133.8 95.1 134.1 95.1C134.6 95 135.1 94.9 135.6 94.8C135.8 94.8 136 94.7 136.2 94.7C136.7 94.6 137.3 94.4 137.8 94.3C138 94.3 138.1 94.2 138.3 94.2C138.8 94 139.4 93.9 139.9 93.7C140 93.7 140.2 93.6 140.3 93.6C140.9 93.4 141.4 93.2 142 93C142.1 93 142.2 92.9 142.4 92.9C143 92.7 143.5 92.5 144.1 92.2C144.2 92.2 144.3 92.1 144.4 92.1C145 91.9 145.6 91.6 146.1 91.3C146.2 91.3 146.3 91.2 146.3 91.2C146.9 90.9 147.5 90.6 148 90.3C148.1 90.3 148.1 90.2 148.2 90.2C148.8 89.9 149.4 89.6 150 89.2C150 89.2 150.1 89.2 150.1 89.1C150.7 88.8 151.3 88.4 151.8 88H151.9C152.5 87.6 153.1 87.2 153.6 86.9C154 86.6 154.5 86.3 154.9 86C155 85.9 155.2 85.8 155.3 85.7C155.6 85.5 155.8 85.3 156.1 85.1C156.4 84.9 156.6 84.7 156.9 84.5C157.1 84.3 157.4 84.1 157.6 83.9C157.9 83.7 158.2 83.4 158.4 83.2C158.6 83 158.8 82.8 159 82.6C159.3 82.3 159.6 82 159.9 81.7C160.1 81.5 160.2 81.4 160.4 81.2C160.8 80.8 161.1 80.5 161.5 80.1C161.6 80 161.7 79.9 161.8 79.8C163.2 78.3 164.4 76.7 165.6 75C165.7 74.8 165.8 74.7 166 74.5C166.2 74.2 166.4 73.9 166.6 73.6C166.8 73.4 166.9 73.1 167.1 72.9C167.3 72.5 167.5 72.2 167.7 71.8C167.8 71.6 167.9 71.4 168.1 71.2C168.4 70.8 168.6 70.3 168.8 69.8C168.9 69.7 168.9 69.6 169 69.4C170.2 67 171.3 64.5 172.1 61.9V61.8C172.3 61.2 172.5 60.5 172.6 59.9C172.6 59.8 172.6 59.8 172.6 59.7C172.8 59.1 172.9 58.5 173 57.9V57.8C174.2 54.2 174.5 51.1 174.5 48Z" fill="#0099FF"/>
<path d="M91.5001 69C88.1001 64.3 85.8001 58.8 85.0001 52.9C84.8001 51.3 84.7001 49.7 84.7001 48C84.7001 46.3 84.9001 44.7 85.1001 43.1C85.7001 38.5 87.3001 34.1 89.6001 30.1C87.9001 27.1 85.7001 24.3 83.2001 21.9C78.7001 28 75.9001 35.2 75.0001 43C74.8001 44.6 74.7001 46.3 74.7001 47.9C74.7001 49.6 74.8001 51.2 75.0001 52.8C75.2001 54.3 75.4001 55.7 75.7001 57.1V57.2C75.8001 57.6 75.9001 58 76.0001 58.4C76.1001 58.7 76.2001 59.1 76.2001 59.4C76.3001 59.8 76.4001 60.1 76.5001 60.5C76.6001 60.9 76.7001 61.2 76.8001 61.6C76.9001 61.8 76.9001 61.9 77.0001 62.1C78.7001 67.1 81.2001 71.8 84.4001 76C86.6001 73.5 88.9001 71.1 91.5001 69Z" fill="#0099FF"/>
</g>
<defs>
<filter id="filter0_d_1_39" x="74" y="156.8" width="101.4" height="28.7" filterUnits="userSpaceOnUse" color-interpolation-filters="sRGB">
<feFlood flood-opacity="0" result="BackgroundImageFix"/>
<feColorMatrix in="SourceAlpha" type="matrix" values="0 0 0 0 0 0 0 0 0 0 0 0 0 0 0 0 0 0 127 0" result="hardAlpha"/>
<feOffset dy="4"/>
<feGaussianBlur stdDeviation="2"/>
<feComposite in2="hardAlpha" operator="out"/>
<feColorMatrix type="matrix" values="0 0 0 0 0 0 0 0 0 0 0 0 0 0 0 0 0 0 0.25 0"/>
<feBlend mode="normal" in2="BackgroundImageFix" result="effect1_dropShadow_1_39"/>
<feBlend mode="normal" in="SourceGraphic" in2="effect1_dropShadow_1_39" result="shape"/>
</filter>
<filter id="filter1_d_1_39" x="0.400024" y="0.400024" width="107.7" height="103" filterUnits="userSpaceOnUse" color-interpolation-filters="sRGB">
<feFlood flood-opacity="0" result="BackgroundImageFix"/>
<feColorMatrix in="SourceAlpha" type="matrix" values="0 0 0 0 0 0 0 0 0 0 0 0 0 0 0 0 0 0 127 0" result="hardAlpha"/>
<feOffset dy="4"/>
<feGaussianBlur stdDeviation="2"/>
<feComposite in2="hardAlpha" operator="out"/>
<feColorMatrix type="matrix" values="0 0 0 0 0 0 0 0 0 0 0 0 0 0 0 0 0 0 0.25 0"/>
<feBlend mode="normal" in2="BackgroundImageFix" result="effect1_dropShadow_1_39"/>
<feBlend mode="normal" in="SourceGraphic" in2="effect1_dropShadow_1_39" result="shape"/>
</filter>
<filter id="filter2_d_1_39" x="70.4" y="57.3" width="107.8" height="103.1" filterUnits="userSpaceOnUse" color-interpolation-filters="sRGB">
<feFlood flood-opacity="0" result="BackgroundImageFix"/>
<feColorMatrix in="SourceAlpha" type="matrix" values="0 0 0 0 0 0 0 0 0 0 0 0 0 0 0 0 0 0 127 0" result="hardAlpha"/>
<feOffset dy="4"/>
<feGaussianBlur stdDeviation="2"/>
<feComposite in2="hardAlpha" operator="out"/>
<feColorMatrix type="matrix" values="0 0 0 0 0 0 0 0 0 0 0 0 0 0 0 0 0 0 0.25 0"/>
<feBlend mode="normal" in2="BackgroundImageFix" result="effect1_dropShadow_1_39"/>
<feBlend mode="normal" in="SourceGraphic" in2="effect1_dropShadow_1_39" result="shape"/>
</filter>
<filter id="filter3_d_1_39" x="1" y="57.3" width="107.6" height="103" filterUnits="userSpaceOnUse" color-interpolation-filters="sRGB">
<feFlood flood-opacity="0" result="BackgroundImageFix"/>
<feColorMatrix in="SourceAlpha" type="matrix" values="0 0 0 0 0 0 0 0 0 0 0 0 0 0 0 0 0 0 127 0" result="hardAlpha"/>
<feOffset dy="4"/>
<feGaussianBlur stdDeviation="2"/>
<feComposite in2="hardAlpha" operator="out"/>
<feColorMatrix type="matrix" values="0 0 0 0 0 0 0 0 0 0 0 0 0 0 0 0 0 0 0.25 0"/>
<feBlend mode="normal" in2="BackgroundImageFix" result="effect1_dropShadow_1_39"/>
<feBlend mode="normal" in="SourceGraphic" in2="effect1_dropShadow_1_39" result="shape"/>
</filter>
<filter id="filter4_d_1_39" x="70.7001" y="0.5" width="107.8" height="103.5" filterUnits="userSpaceOnUse" color-interpolation-filters="sRGB">
<feFlood flood-opacity="0" result="BackgroundImageFix"/>
<feColorMatrix in="SourceAlpha" type="matrix" values="0 0 0 0 0 0 0 0 0 0 0 0 0 0 0 0 0 0 127 0" result="hardAlpha"/>
<feOffset dy="4"/>
<feGaussianBlur stdDeviation="2"/>
<feComposite in2="hardAlpha" operator="out"/>
<feColorMatrix type="matrix" values="0 0 0 0 0 0 0 0 0 0 0 0 0 0 0 0 0 0 0.25 0"/>
<feBlend mode="normal" in2="BackgroundImageFix" result="effect1_dropShadow_1_39"/>
<feBlend mode="normal" in="SourceGraphic" in2="effect1_dropShadow_1_39" result="shape"/>
</filter>
</defs>
</svg>
