<svg width="1000" height="472" viewBox="0 0 1000 472" fill="none" xmlns="http://www.w3.org/2000/svg">
<g filter="url(#filter0_d_78_41)">
<path d="M996.697 272.77C980.651 231.713 923.077 231.713 879.66 239.264C887.211 206.23 868.334 168.948 836.715 155.734C805.097 142.52 765.455 155.734 747.522 184.521C753.657 159.037 741.387 130.25 718.735 116.565C696.083 102.879 664.936 105.71 645.116 122.7H642.284C639.924 62.7656 590.373 8.96664 531.383 0.943992C472.393 -6.60674 410.571 32.5627 393.11 89.1932C355.356 70.7883 303.445 96.7439 295.894 138.273C261.444 110.43 210.005 101.463 171.307 123.171C132.61 144.88 114.205 199.623 137.801 237.376C94.856 194.431 6.13495 225.578 -1.42617e-05 285.984C-6.13498 346.39 75.0354 394.526 125.059 360.548C135.441 395.47 166.588 422.841 201.982 429.448C237.848 435.583 276.546 420.481 298.254 391.694C311.468 426.145 345.446 451.628 382.256 455.404C419.066 458.707 457.291 439.83 476.64 408.683C498.348 433.223 522.888 456.819 554.035 467.202C585.182 477.584 623.407 472.393 644.172 446.909C649.835 439.83 654.082 431.808 661.633 426.616C680.038 413.875 704.106 427.56 724.398 436.999C754.601 451.156 790.939 454.932 821.142 441.718C851.345 428.032 873.997 394.998 868.806 361.963C899.953 363.851 932.515 364.323 959.887 350.165C987.258 336.008 1007.55 302.501 996.225 273.242L996.697 272.77Z" fill="#E6E6E6"/>
<g opacity="0.82">
<path d="M537.99 2.35975C537.99 2.35975 533.742 0.943992 531.383 0.943992C472.393 -6.60674 410.571 32.5627 393.11 89.1932C355.356 70.7883 303.445 96.7439 295.894 138.273C261.444 110.43 210.005 101.463 171.307 123.171C132.61 144.88 114.205 199.623 137.801 237.376C94.856 194.432 6.13495 225.578 -1.42617e-05 285.984C-6.13498 346.39 75.0354 394.526 125.059 360.548C135.441 395.47 166.588 422.841 201.982 429.448C237.848 435.583 276.546 420.482 298.254 391.694C311.468 426.145 345.446 451.628 382.256 455.404C419.066 458.707 457.291 439.83 476.64 408.683C494.101 428.504 513.922 447.381 537.046 459.651V2.35975H537.99Z" fill="white"/>
</g>
</g>
<defs>
<filter id="filter0_d_78_41" x="-4.32867" y="0.0126953" width="1007.75" height="480.218" filterUnits="userSpaceOnUse" color-interpolation-filters="sRGB">
<feFlood flood-opacity="0" result="BackgroundImageFix"/>
<feColorMatrix in="SourceAlpha" type="matrix" values="0 0 0 0 0 0 0 0 0 0 0 0 0 0 0 0 0 0 127 0" result="hardAlpha"/>
<feOffset dy="4"/>
<feGaussianBlur stdDeviation="2"/>
<feComposite in2="hardAlpha" operator="out"/>
<feColorMatrix type="matrix" values="0 0 0 0 0 0 0 0 0 0 0 0 0 0 0 0 0 0 0.25 0"/>
<feBlend mode="normal" in2="BackgroundImageFix" result="effect1_dropShadow_78_41"/>
<feBlend mode="normal" in="SourceGraphic" in2="effect1_dropShadow_78_41" result="shape"/>
</filter>
</defs>
</svg>
