<svg width="392" height="392" viewBox="0 0 392 392" fill="none" xmlns="http://www.w3.org/2000/svg">
<g filter="url(#filter0_d_44_334)">
<circle cx="196" cy="192" r="192" fill="white"/>
</g>
<g filter="url(#filter1_i_44_334)">
<circle cx="196" cy="192" r="160.525" fill="white"/>
</g>
<g filter="url(#filter2_i_44_334)">
<circle cx="196" cy="192" r="132.197" fill="white"/>
</g>
<g filter="url(#filter3_d_44_334)">
<path d="M191.9 280.1H184.6V274.7H191.9V280.1ZM214.1 280.1L209.5 273.4L204.9 280.1H196.9L204.9 269.3L197.6 259.4H205.5L209.6 265.8L213.6 259.4H221.4L214.2 269.4L222.1 280.1H214.1ZM243.2 271.4V280.1H236V271.4L227 259.4H234.9L239.6 266.4L244.3 259.4H252.2L243.2 271.4ZM277.9 280.1H255.9V275.8L268.8 263.8H257.2V259.4H277.5V263.5L264.5 275.6H278V280.1H277.9Z" fill="black"/>
</g>
<g filter="url(#filter4_d_44_334)">
<path d="M202.5 124.4C200.6 121.7 198.5 119.2 196.1 116.9C187.1 108.3 174.6 103 160.9 103C133.4 103 111 124.3 111 150.5C111 176.7 133.4 198 160.9 198C165 198 169 197.5 172.9 196.6V186.5C169.1 187.6 165.1 188.3 160.9 188.3C138.8 188.3 120.9 171.4 120.9 150.6C120.9 129.8 138.9 112.9 160.9 112.9C172.2 112.9 182.4 117.3 189.7 124.4C190.3 125 190.9 125.6 191.5 126.2C191.5 126.3 191.6 126.3 191.6 126.4C192.1 127 192.7 127.7 193.2 128.3C193.7 128.9 194.2 129.6 194.6 130.3C194.7 130.4 194.8 130.5 194.8 130.6C197.8 135.1 199.8 140.1 200.5 145.6H191.6C191.4 147.2 191.2 148.9 191.2 150.5C191.2 152.2 191.3 153.8 191.5 155.4H200.4H205.3H210.4C210.6 153.8 210.7 152.1 210.7 150.5C210.7 140.9 207.7 131.9 202.5 124.4Z" fill="black"/>
<path d="M181.4 150.6C181.4 148.9 181.5 147.3 181.7 145.7H131.5V155.6H181.6C181.5 153.8 181.4 152.2 181.4 150.6Z" fill="black"/>
</g>
<g filter="url(#filter5_d_44_334)">
<path d="M181 251.2C181 253.5 181 254.9 181 255H190.9C190.9 254.9 190.9 251.2 190.9 245.9C187.8 248 184.5 249.8 181 251.2Z" fill="black"/>
<path d="M275.4 212.3H280.5C280.7 210.7 280.8 209 280.8 207.4C280.8 181.2 258.4 159.9 230.9 159.9C203.4 159.9 181 181.2 181 207.4C181 207.7 181 226.5 181 240.3C184.7 238.4 188 235.9 190.9 233C190.9 220.6 190.9 207.5 190.9 207.3C190.9 186.5 208.9 169.6 230.9 169.6C251.2 169.6 268 183.9 270.6 202.4H197.9V208.9V212.4L200.9 214.4L204.2 216.6L260.5 254.7H277.4L218.3 212.1H270.6H275.4V212.3Z" fill="black"/>
</g>
<g filter="url(#filter6_d_44_334)">
<path d="M211.2 202.5C210.9 199.3 210.1 196.2 209.2 193.2C205.1 191.3 201.4 188.8 198 186C197.4 186.8 196.8 187.7 196.2 188.6C198.8 192.8 200.5 197.5 201.2 202.5H211.2Z" fill="#FF6633"/>
<path d="M135 179.3C142.1 173.4 151.4 169.7 161.6 169.7C172.5 169.7 182.5 173.9 189.7 180.6C190.2 180 190.6 179.3 191.1 178.7C187.9 174.5 185.3 169.9 183.7 164.8C177 161.6 169.5 159.9 161.6 159.9C148.7 159.9 137 164.6 128.1 172.2C130.1 174.8 132.4 177.2 135 179.3Z" fill="#FF6633"/>
<path d="M190.8 233.1C187.9 236 184.6 238.4 180.9 240.4C175.2 243.4 168.5 245.1 161.5 245.1C139.4 245.1 121.5 228.2 121.5 207.4C121.5 199.7 124 192.5 128.2 186.5C125.6 184.4 123.3 182 121.2 179.4C115.2 187.3 111.6 196.9 111.6 207.4C111.6 233.6 134 254.9 161.5 254.9C168.4 254.9 174.9 253.6 180.9 251.2C184.4 249.8 187.7 248 190.8 245.9C199.7 239.7 206.4 230.8 209.5 220.5L200.8 214.6C199.4 221.7 195.8 228 190.8 233.1Z" fill="#FF6633"/>
</g>
<g filter="url(#filter7_d_44_334)">
<path d="M231.2 112.9C247 112.9 260.7 121.5 267.2 134.1H278C270.9 116 252.6 103.1 231.2 103.1C217.5 103.1 205 108.4 196 117C198.4 119.3 200.5 121.8 202.4 124.5C209.7 117.3 220 112.9 231.2 112.9Z" fill="#0099FF"/>
<path d="M281.1 150.6C281.1 148.9 281 147.3 280.8 145.7H275.7H270.8H217.1V155.6H270.8C270.6 157.1 270.3 158.5 269.9 159.9C269.8 160.2 269.7 160.5 269.6 160.9C269.5 161.2 269.4 161.5 269.3 161.7C269.2 162 269.1 162.3 269 162.7C268.9 163.1 268.7 163.4 268.6 163.8C268.5 164.2 268.3 164.5 268.1 164.9C267.9 165.3 267.7 165.7 267.5 166.1C267.4 166.3 267.3 166.6 267.2 166.8C267 167.2 266.8 167.7 266.5 168.1C266.4 168.2 266.3 168.4 266.3 168.5C266 169.1 265.6 169.6 265.3 170.2C265.2 170.3 265.1 170.5 265 170.6C264.7 171.1 264.4 171.5 264 172C263.9 172.1 263.9 172.1 263.8 172.2C263.7 172.3 263.7 172.4 263.6 172.5C263.4 172.8 263.1 173.1 262.9 173.4C262.6 173.8 262.3 174.1 262 174.5C261.8 174.7 261.7 174.9 261.5 175.1C261.2 175.5 260.8 175.8 260.5 176.2C260.4 176.3 260.3 176.4 260.1 176.6C259.6 177.1 259.2 177.5 258.7 177.9C258.6 178 258.5 178.1 258.3 178.2C257.9 178.6 257.4 178.9 257 179.3L256.9 179.4C255.6 180.5 254.2 181.4 252.8 182.3C252.8 182.3 252.8 182.3 252.7 182.3C252.3 182.6 251.8 182.8 251.3 183.1C251.2 183.1 251.2 183.2 251.1 183.2C250.7 183.4 250.3 183.7 249.8 183.9C249.7 183.9 249.6 184 249.5 184C249.1 184.2 248.7 184.4 248.3 184.6C248.2 184.7 248.1 184.7 247.9 184.8C247.5 185 247.1 185.1 246.7 185.3C246.6 185.4 246.4 185.4 246.3 185.5C245.9 185.7 245.5 185.8 245.2 185.9C245 186 244.9 186 244.7 186.1C244.3 186.2 244 186.4 243.6 186.5C243.4 186.6 243.2 186.6 243.1 186.7C242.7 186.8 242.4 186.9 242 187C241.8 187.1 241.6 187.1 241.4 187.2C241 187.3 240.7 187.4 240.3 187.5C240.1 187.5 239.9 187.6 239.7 187.6C239.3 187.7 239 187.7 238.6 187.8C238.4 187.8 238.2 187.9 238 187.9C237.6 188 237.3 188 236.9 188.1C236.7 188.1 236.5 188.2 236.2 188.2C235.8 188.2 235.5 188.3 235.1 188.3C234.9 188.3 234.7 188.3 234.5 188.4C234.1 188.4 233.7 188.5 233.3 188.5C233.1 188.5 232.9 188.5 232.7 188.5C232.1 188.5 231.5 188.5 230.9 188.5C230.3 188.5 229.7 188.5 229.1 188.5C228.9 188.5 228.7 188.5 228.5 188.5C228.1 188.5 227.7 188.5 227.3 188.4C227.1 188.4 226.8 188.4 226.6 188.3C226.2 188.3 225.9 188.2 225.5 188.2C225.3 188.2 225 188.1 224.8 188.1C224.5 188 224.1 188 223.8 187.9C223.6 187.9 223.3 187.8 223.1 187.8C222.8 187.7 222.4 187.7 222.1 187.6C221.9 187.5 221.6 187.5 221.4 187.4C221.1 187.3 220.7 187.2 220.4 187.2C220.2 187.1 219.9 187.1 219.7 187C219.4 186.9 219 186.8 218.7 186.7C218.5 186.6 218.3 186.6 218 186.5C217.7 186.4 217.3 186.3 217 186.2C216.8 186.1 216.6 186.1 216.4 186C216 185.9 215.7 185.7 215.3 185.6C215.1 185.5 214.9 185.5 214.8 185.4C214.4 185.2 214 185.1 213.6 184.9C213.5 184.8 213.3 184.8 213.2 184.7C212.7 184.5 212.2 184.2 211.8 184C211.8 184 211.8 184 211.7 184C210.7 183.5 209.7 182.9 208.7 182.3C208.2 182 207.8 181.7 207.3 181.4C207.2 181.4 207.2 181.3 207.1 181.3C206.7 181 206.3 180.7 205.9 180.5C205.8 180.4 205.7 180.4 205.6 180.3C205.2 180 204.9 179.7 204.5 179.4L204.4 179.3C201.8 181.4 199.5 183.8 197.6 186.4C201 189.3 204.7 191.7 208.8 193.7C208.9 193.7 208.9 193.8 209 193.8C209.7 194.1 210.5 194.5 211.3 194.8C211.3 194.8 211.4 194.8 211.4 194.9C212.2 195.2 213.1 195.6 214 195.9H214.1C214.9 196.2 215.7 196.4 216.5 196.6C216.7 196.7 216.9 196.7 217 196.8C217.7 197 218.4 197.2 219.1 197.3C219.3 197.3 219.4 197.4 219.6 197.4C220.5 197.6 221.3 197.8 222.2 197.9C222.3 197.9 222.3 197.9 222.4 197.9C223.2 198 224 198.1 224.8 198.2C225.1 198.2 225.3 198.3 225.6 198.3C226.2 198.4 226.9 198.4 227.5 198.5C227.8 198.5 228 198.5 228.3 198.5C229.2 198.5 230.1 198.6 231 198.6C231.8 198.6 232.5 198.6 233.3 198.5C233.5 198.5 233.7 198.5 234 198.5C234.5 198.5 235.1 198.4 235.6 198.4C235.8 198.4 236.1 198.3 236.3 198.3C236.8 198.2 237.3 198.2 237.8 198.1C238 198.1 238.3 198 238.5 198C239 197.9 239.5 197.9 240 197.8C240.2 197.8 240.4 197.7 240.7 197.7C241.2 197.6 241.7 197.5 242.2 197.4C242.4 197.4 242.6 197.3 242.8 197.3C243.3 197.2 243.9 197 244.4 196.9C244.6 196.9 244.7 196.8 244.9 196.8C245.4 196.6 246 196.5 246.5 196.3C246.6 196.3 246.8 196.2 246.9 196.2C247.5 196 248 195.8 248.6 195.6C248.7 195.6 248.8 195.5 249 195.5C249.6 195.3 250.1 195.1 250.7 194.8C250.8 194.8 250.9 194.7 251 194.7C251.6 194.5 252.2 194.2 252.7 193.9C252.8 193.9 252.9 193.8 252.9 193.8C253.5 193.5 254.1 193.2 254.6 192.9C254.7 192.9 254.7 192.8 254.8 192.8C255.4 192.5 256 192.2 256.6 191.8C256.6 191.8 256.7 191.8 256.7 191.7C257.3 191.4 257.9 191 258.4 190.6H258.5C259.1 190.2 259.7 189.8 260.2 189.5C260.6 189.2 261.1 188.9 261.5 188.6C261.6 188.5 261.8 188.4 261.9 188.3C262.2 188.1 262.4 187.9 262.7 187.7C263 187.5 263.2 187.3 263.5 187.1C263.7 186.9 264 186.7 264.2 186.5C264.5 186.3 264.8 186 265 185.8C265.2 185.6 265.4 185.4 265.6 185.2C265.9 184.9 266.2 184.6 266.5 184.3C266.7 184.1 266.8 184 267 183.8C267.4 183.4 267.7 183.1 268.1 182.7C268.2 182.6 268.3 182.5 268.4 182.4C269.8 180.9 271 179.3 272.2 177.6C272.3 177.4 272.4 177.3 272.6 177.1C272.8 176.8 273 176.5 273.2 176.2C273.4 176 273.5 175.7 273.7 175.5C273.9 175.1 274.1 174.8 274.3 174.4C274.4 174.2 274.5 174 274.7 173.8C275 173.4 275.2 172.9 275.4 172.4C275.5 172.3 275.5 172.2 275.6 172C276.8 169.6 277.9 167.1 278.7 164.5V164.4C278.9 163.8 279.1 163.1 279.2 162.5C279.2 162.4 279.2 162.4 279.2 162.3C279.4 161.7 279.5 161.1 279.6 160.5V160.4C280.8 156.8 281.1 153.7 281.1 150.6Z" fill="#0099FF"/>
<path d="M198.1 171.6C194.7 166.9 192.4 161.4 191.6 155.5C191.4 153.9 191.3 152.3 191.3 150.6C191.3 148.9 191.5 147.3 191.7 145.7C192.3 141.1 193.9 136.7 196.2 132.7C194.5 129.7 192.3 126.9 189.8 124.5C185.3 130.6 182.5 137.8 181.6 145.6C181.4 147.2 181.3 148.9 181.3 150.5C181.3 152.2 181.4 153.8 181.6 155.4C181.8 156.9 182 158.3 182.3 159.7V159.8C182.4 160.2 182.5 160.6 182.6 161C182.7 161.3 182.8 161.7 182.8 162C182.9 162.4 183 162.7 183.1 163.1C183.2 163.5 183.3 163.8 183.4 164.2C183.5 164.4 183.5 164.5 183.6 164.7C185.3 169.7 187.8 174.4 191 178.6C193.2 176.1 195.5 173.7 198.1 171.6Z" fill="#0099FF"/>
</g>
<defs>
<filter id="filter0_d_44_334" x="0" y="0" width="392" height="392" filterUnits="userSpaceOnUse" color-interpolation-filters="sRGB">
<feFlood flood-opacity="0" result="BackgroundImageFix"/>
<feColorMatrix in="SourceAlpha" type="matrix" values="0 0 0 0 0 0 0 0 0 0 0 0 0 0 0 0 0 0 127 0" result="hardAlpha"/>
<feOffset dy="4"/>
<feGaussianBlur stdDeviation="2"/>
<feComposite in2="hardAlpha" operator="out"/>
<feColorMatrix type="matrix" values="0 0 0 0 0 0 0 0 0 0 0 0 0 0 0 0 0 0 0.25 0"/>
<feBlend mode="normal" in2="BackgroundImageFix" result="effect1_dropShadow_44_334"/>
<feBlend mode="normal" in="SourceGraphic" in2="effect1_dropShadow_44_334" result="shape"/>
</filter>
<filter id="filter1_i_44_334" x="35.4756" y="31.4756" width="321.049" height="322.049" filterUnits="userSpaceOnUse" color-interpolation-filters="sRGB">
<feFlood flood-opacity="0" result="BackgroundImageFix"/>
<feBlend mode="normal" in="SourceGraphic" in2="BackgroundImageFix" result="shape"/>
<feColorMatrix in="SourceAlpha" type="matrix" values="0 0 0 0 0 0 0 0 0 0 0 0 0 0 0 0 0 0 127 0" result="hardAlpha"/>
<feOffset dy="1"/>
<feGaussianBlur stdDeviation="2"/>
<feComposite in2="hardAlpha" operator="arithmetic" k2="-1" k3="1"/>
<feColorMatrix type="matrix" values="0 0 0 0 0 0 0 0 0 0 0 0 0 0 0 0 0 0 0.25 0"/>
<feBlend mode="normal" in2="shape" result="effect1_innerShadow_44_334"/>
</filter>
<filter id="filter2_i_44_334" x="63.8032" y="59.8032" width="264.394" height="265.394" filterUnits="userSpaceOnUse" color-interpolation-filters="sRGB">
<feFlood flood-opacity="0" result="BackgroundImageFix"/>
<feBlend mode="normal" in="SourceGraphic" in2="BackgroundImageFix" result="shape"/>
<feColorMatrix in="SourceAlpha" type="matrix" values="0 0 0 0 0 0 0 0 0 0 0 0 0 0 0 0 0 0 127 0" result="hardAlpha"/>
<feOffset dy="1"/>
<feGaussianBlur stdDeviation="2"/>
<feComposite in2="hardAlpha" operator="arithmetic" k2="-1" k3="1"/>
<feColorMatrix type="matrix" values="0 0 0 0 0 0 0 0 0 0 0 0 0 0 0 0 0 0 0.25 0"/>
<feBlend mode="normal" in2="shape" result="effect1_innerShadow_44_334"/>
</filter>
<filter id="filter3_d_44_334" x="180.6" y="259.4" width="101.4" height="28.7002" filterUnits="userSpaceOnUse" color-interpolation-filters="sRGB">
<feFlood flood-opacity="0" result="BackgroundImageFix"/>
<feColorMatrix in="SourceAlpha" type="matrix" values="0 0 0 0 0 0 0 0 0 0 0 0 0 0 0 0 0 0 127 0" result="hardAlpha"/>
<feOffset dy="4"/>
<feGaussianBlur stdDeviation="2"/>
<feComposite in2="hardAlpha" operator="out"/>
<feColorMatrix type="matrix" values="0 0 0 0 0 0 0 0 0 0 0 0 0 0 0 0 0 0 0.25 0"/>
<feBlend mode="normal" in2="BackgroundImageFix" result="effect1_dropShadow_44_334"/>
<feBlend mode="normal" in="SourceGraphic" in2="effect1_dropShadow_44_334" result="shape"/>
</filter>
<filter id="filter4_d_44_334" x="107" y="103" width="107.7" height="103" filterUnits="userSpaceOnUse" color-interpolation-filters="sRGB">
<feFlood flood-opacity="0" result="BackgroundImageFix"/>
<feColorMatrix in="SourceAlpha" type="matrix" values="0 0 0 0 0 0 0 0 0 0 0 0 0 0 0 0 0 0 127 0" result="hardAlpha"/>
<feOffset dy="4"/>
<feGaussianBlur stdDeviation="2"/>
<feComposite in2="hardAlpha" operator="out"/>
<feColorMatrix type="matrix" values="0 0 0 0 0 0 0 0 0 0 0 0 0 0 0 0 0 0 0.25 0"/>
<feBlend mode="normal" in2="BackgroundImageFix" result="effect1_dropShadow_44_334"/>
<feBlend mode="normal" in="SourceGraphic" in2="effect1_dropShadow_44_334" result="shape"/>
</filter>
<filter id="filter5_d_44_334" x="177" y="159.9" width="107.8" height="103.1" filterUnits="userSpaceOnUse" color-interpolation-filters="sRGB">
<feFlood flood-opacity="0" result="BackgroundImageFix"/>
<feColorMatrix in="SourceAlpha" type="matrix" values="0 0 0 0 0 0 0 0 0 0 0 0 0 0 0 0 0 0 127 0" result="hardAlpha"/>
<feOffset dy="4"/>
<feGaussianBlur stdDeviation="2"/>
<feComposite in2="hardAlpha" operator="out"/>
<feColorMatrix type="matrix" values="0 0 0 0 0 0 0 0 0 0 0 0 0 0 0 0 0 0 0.25 0"/>
<feBlend mode="normal" in2="BackgroundImageFix" result="effect1_dropShadow_44_334"/>
<feBlend mode="normal" in="SourceGraphic" in2="effect1_dropShadow_44_334" result="shape"/>
</filter>
<filter id="filter6_d_44_334" x="107.6" y="159.9" width="107.6" height="103" filterUnits="userSpaceOnUse" color-interpolation-filters="sRGB">
<feFlood flood-opacity="0" result="BackgroundImageFix"/>
<feColorMatrix in="SourceAlpha" type="matrix" values="0 0 0 0 0 0 0 0 0 0 0 0 0 0 0 0 0 0 127 0" result="hardAlpha"/>
<feOffset dy="4"/>
<feGaussianBlur stdDeviation="2"/>
<feComposite in2="hardAlpha" operator="out"/>
<feColorMatrix type="matrix" values="0 0 0 0 0 0 0 0 0 0 0 0 0 0 0 0 0 0 0.25 0"/>
<feBlend mode="normal" in2="BackgroundImageFix" result="effect1_dropShadow_44_334"/>
<feBlend mode="normal" in="SourceGraphic" in2="effect1_dropShadow_44_334" result="shape"/>
</filter>
<filter id="filter7_d_44_334" x="177.3" y="103.1" width="107.8" height="103.5" filterUnits="userSpaceOnUse" color-interpolation-filters="sRGB">
<feFlood flood-opacity="0" result="BackgroundImageFix"/>
<feColorMatrix in="SourceAlpha" type="matrix" values="0 0 0 0 0 0 0 0 0 0 0 0 0 0 0 0 0 0 127 0" result="hardAlpha"/>
<feOffset dy="4"/>
<feGaussianBlur stdDeviation="2"/>
<feComposite in2="hardAlpha" operator="out"/>
<feColorMatrix type="matrix" values="0 0 0 0 0 0 0 0 0 0 0 0 0 0 0 0 0 0 0.25 0"/>
<feBlend mode="normal" in2="BackgroundImageFix" result="effect1_dropShadow_44_334"/>
<feBlend mode="normal" in="SourceGraphic" in2="effect1_dropShadow_44_334" result="shape"/>
</filter>
</defs>
</svg>
