<?xml version="1.0" encoding="UTF-8"?>
<svg id="Layer_2" data-name="Layer 2" xmlns="http://www.w3.org/2000/svg" xmlns:xlink="http://www.w3.org/1999/xlink" viewBox="0 0 34.65 12.16">
  <defs>
    <style>
      .cls-1 {
        fill: url(#linear-gradient);
      }

      .cls-1, .cls-2, .cls-3, .cls-4, .cls-5, .cls-6, .cls-7, .cls-8, .cls-9 {
        stroke-width: 0px;
      }

      .cls-2 {
        fill: url(#linear-gradient-4);
      }

      .cls-3 {
        fill: url(#linear-gradient-2);
      }

      .cls-4 {
        fill: url(#linear-gradient-3);
      }

      .cls-5 {
        fill: url(#linear-gradient-8);
      }

      .cls-6 {
        fill: url(#linear-gradient-9);
      }

      .cls-7 {
        fill: url(#linear-gradient-7);
      }

      .cls-8 {
        fill: url(#linear-gradient-5);
      }

      .cls-9 {
        fill: url(#linear-gradient-6);
      }
    </style>
    <linearGradient id="linear-gradient" x1="12.32" y1="1.94" x2="17.03" y2="3.96" gradientUnits="userSpaceOnUse">
      <stop offset=".34" stop-color="#fff"/>
      <stop offset="1" stop-color="#dadada"/>
    </linearGradient>
    <linearGradient id="linear-gradient-2" x1="9.63" y1="7.6" x2="3.53" y2="-.6" gradientUnits="userSpaceOnUse">
      <stop offset="0" stop-color="#dadada"/>
      <stop offset=".28" stop-color="#ececec"/>
      <stop offset=".58" stop-color="#fafafa"/>
      <stop offset=".85" stop-color="#fff"/>
    </linearGradient>
    <linearGradient id="linear-gradient-3" x1="18.61" y1="2.75" x2="19.49" y2="7.67" gradientUnits="userSpaceOnUse">
      <stop offset="0" stop-color="#cdcdcd"/>
      <stop offset=".34" stop-color="#fff"/>
      <stop offset=".55" stop-color="#fafafa"/>
      <stop offset=".79" stop-color="#ececec"/>
      <stop offset="1" stop-color="#dadada"/>
    </linearGradient>
    <linearGradient id="linear-gradient-4" x1="20.49" y1="5.59" x2="20.63" y2="7.91" gradientUnits="userSpaceOnUse">
      <stop offset="0" stop-color="#e4e5e5"/>
      <stop offset=".29" stop-color="#f5f6f6"/>
      <stop offset=".53" stop-color="#fff"/>
      <stop offset=".71" stop-color="#f8f8f8"/>
      <stop offset=".96" stop-color="#e7e7e7"/>
      <stop offset="1" stop-color="#e4e5e5"/>
    </linearGradient>
    <linearGradient id="linear-gradient-5" x1="1.32" y1="7.98" x2="7.29" y2="7.98" gradientUnits="userSpaceOnUse">
      <stop offset=".15" stop-color="#fff"/>
      <stop offset="1" stop-color="#dadada"/>
    </linearGradient>
    <linearGradient id="linear-gradient-6" x1="22.28" y1="7.06" x2="22.65" y2="9.1" gradientUnits="userSpaceOnUse">
      <stop offset="0" stop-color="#e4e5e5"/>
      <stop offset=".2" stop-color="#e9eaea"/>
      <stop offset=".46" stop-color="#f9f9f9"/>
      <stop offset=".53" stop-color="#fff"/>
      <stop offset=".71" stop-color="#f8f8f8"/>
      <stop offset=".96" stop-color="#e7e7e7"/>
      <stop offset="1" stop-color="#e4e5e5"/>
    </linearGradient>
    <linearGradient id="linear-gradient-7" x1="16.24" y1="8.63" x2="20.85" y2="8.63" xlink:href="#linear-gradient-4"/>
    <linearGradient id="linear-gradient-8" x1="18.59" y1="7.12" x2="19.38" y2="13.46" gradientUnits="userSpaceOnUse">
      <stop offset="0" stop-color="#eee"/>
      <stop offset=".08" stop-color="#f5f5f5"/>
      <stop offset=".24" stop-color="#fcfcfc"/>
      <stop offset=".56" stop-color="#fff"/>
      <stop offset=".76" stop-color="#f5f6f6"/>
      <stop offset="1" stop-color="#e4e5e5"/>
    </linearGradient>
    <linearGradient id="linear-gradient-9" x1="12.14" y1="10.78" x2="16.11" y2="10.78" xlink:href="#linear-gradient-4"/>
  </defs>
  <g id="cloud">
    <g>
      <path class="cls-1" d="M18.65,4.02s-4.45-1.42-4.76-1.73c-.31-.31-1.42-1.79-1.42-1.79h-.49s.74,2.1,1.14,2.44c.4.34,2.69,2.01,2.69,2.01l2.84-.93Z"/>
      <path class="cls-3" d="M13.13,5.01s-4.26.34-5.65-.68C6.08,3.31,2.59.07,1.91,0,1.24-.05,0,.32,0,.32l3.89,6.86,9.23-2.16Z"/>
      <path class="cls-4" d="M34.65,3.13c-.03-.4-1.54-.68-1.54-.68,0,0-.71-.77-2.41-.71-1.7.06-14.7,2.5-14.7,2.5L3.55,6.96s-.65.86,1.33,1.27c1.98.4,5.56.86,8.89.4s17.26-3.12,18.62-3.74c1.36-.62,2.29-1.36,2.25-1.76ZM11.99,7.22l-.09.02c-.05.01-.1-.02-.11-.08l-.04-.21c0-.05.02-.1.08-.11l.09-.02c.05-.01.1.02.11.08l.04.21c0,.05-.02.1-.08.11ZM12.45,7.1l-.09.02c-.05.01-.1-.02-.11-.08l-.04-.21c0-.05.02-.1.08-.11l.09-.02c.05-.01.1.02.11.08l.04.21c0,.05-.02.1-.08.11ZM12.94,7.04l-.09.02c-.05.01-.1-.02-.11-.08l-.04-.21c0-.05.02-.1.08-.11l.09-.02c.05-.01.1.02.11.08l.04.21c0,.05-.02.1-.08.11ZM13.44,6.94l-.09.02c-.05.01-.1-.02-.11-.08l-.04-.21c0-.05.02-.1.08-.11l.09-.02c.05-.01.1.02.11.08l.04.21c0,.05-.02.1-.08.11ZM13.93,6.85l-.09.02c-.05,0-.1-.02-.11-.08l-.04-.21c0-.05.02-.1.08-.11l.09-.02c.05-.01.1.02.11.08l.04.21c0,.05-.02.1-.08.11ZM14.4,6.73l-.09.02c-.05.01-.1-.02-.11-.08l-.04-.21c0-.05.02-.1.08-.11l.09-.02c.05-.01.1.02.11.08l.04.21c0,.05-.02.1-.08.11ZM14.92,6.64l-.09.02c-.05.01-.1-.02-.11-.08l-.04-.21c0-.05.02-.1.08-.11l.09-.02c.05-.01.1.02.11.08l.04.21c0,.05-.02.1-.08.11ZM15.38,6.54l-.09.02c-.05,0-.1-.02-.11-.08l-.04-.21c0-.05.02-.1.08-.11l.09-.02c.05-.01.1.02.11.08l.04.21c0,.05-.02.1-.08.11ZM15.91,6.45l-.09.02c-.05.01-.1-.02-.11-.08l-.04-.21c0-.05.02-.1.08-.11l.09-.02c.05-.01.1.02.11.08l.04.21c0,.05-.02.1-.08.11ZM16.37,6.36l-.09.02c-.05,0-.1-.02-.11-.08l-.04-.21c0-.05.02-.1.08-.11l.09-.02c.05,0,.1.02.11.08l.04.21c0,.05-.02.1-.08.11ZM16.84,6.26l-.09.02c-.05,0-.1-.02-.11-.08l-.04-.21c0-.05.02-.1.08-.11l.09-.02c.05-.01.1.02.11.08l.04.21c0,.05-.02.1-.08.11ZM17.33,6.14l-.09.02c-.05.01-.1-.02-.11-.08l-.04-.21c-.01-.05.02-.1.08-.11l.09-.02c.05-.01.1.02.11.08l.04.21c.01.05-.02.1-.08.11ZM17.82,6.08l-.09.02c-.05,0-.1-.02-.11-.08l-.04-.21c0-.05.02-.1.08-.11l.09-.02c.05-.01.1.02.11.08l.04.21c0,.05-.02.1-.08.11ZM18.32,5.96l-.09.02c-.05,0-.1-.02-.11-.08l-.04-.21c0-.05.02-.1.08-.11l.09-.02c.05-.01.1.02.11.08l.04.21c0,.05-.02.1-.08.11ZM18.81,5.86l-.09.02c-.05,0-.1-.02-.11-.08l-.04-.21c0-.05.02-.1.08-.11l.09-.02c.05-.01.1.02.11.08l.04.21c0,.05-.02.1-.08.11ZM19.31,5.77l-.09.02c-.05,0-.1-.02-.11-.08l-.04-.21c0-.05.02-.1.08-.11l.09-.02c.05,0,.1.02.11.08l.04.21c0,.05-.02.1-.08.11ZM19.8,5.68l-.09.02c-.05,0-.1-.02-.11-.08l-.04-.21c0-.05.02-.1.08-.11l.09-.02c.05,0,.1.02.11.08l.04.21c0,.05-.02.1-.08.11ZM20.3,5.59l-.09.02c-.05.01-.1-.02-.11-.08l-.04-.21c-.01-.05.02-.1.08-.11l.09-.02c.05,0,.1.02.11.08l.04.21c.01.05-.02.1-.08.11ZM21.72,5.31l-.09.02c-.05.01-.1-.02-.11-.08l-.04-.21c0-.05.02-.1.08-.11l.09-.02c.05-.01.1.02.11.08l.04.21c0,.05-.02.1-.08.11ZM22.21,5.21l-.09.02c-.05.01-.1-.02-.11-.08l-.04-.21c0-.05.02-.1.08-.11l.09-.02c.05-.01.1.02.11.08l.04.21c0,.05-.02.1-.08.11ZM22.7,5.12l-.09.02c-.05.01-.1-.02-.11-.08l-.04-.21c-.01-.05.02-.1.08-.11l.09-.02c.05-.01.1.02.11.08l.04.21c.01.05-.02.1-.08.11ZM23.17,5.03l-.09.02c-.05.01-.1-.02-.11-.08l-.04-.21c0-.05.02-.1.08-.11l.09-.02c.05-.01.1.02.11.08l.04.21c0,.05-.02.1-.08.11ZM24.19,4.84l-.09.02c-.05.01-.1-.02-.11-.08l-.04-.21c0-.05.02-.1.08-.11l.09-.02c.05-.01.1.02.11.08l.04.21c0,.05-.02.1-.08.11ZM24.65,4.75l-.09.02c-.05.01-.1-.02-.11-.08l-.04-.21c0-.05.02-.1.08-.11l.09-.02c.05-.01.1.02.11.08l.04.21c0,.05-.02.1-.08.11ZM25.14,4.63l-.09.02c-.05.01-.1-.02-.11-.08l-.04-.21c0-.05.02-.1.08-.11l.09-.02c.05-.01.1.02.11.08l.04.21c0,.05-.02.1-.08.11ZM25.67,4.54l-.09.02c-.05.01-.1-.02-.11-.08l-.04-.21c-.01-.05.02-.1.08-.11l.09-.02c.05-.01.1.02.11.08l.04.21c.01.05-.02.1-.08.11ZM26.13,4.44l-.09.02c-.05.01-.1-.02-.11-.08l-.04-.21c0-.05.02-.1.08-.11l.09-.02c.05-.01.1.02.11.08l.04.21c0,.05-.02.1-.08.11ZM26.6,4.35l-.09.02c-.05.01-.1-.02-.11-.08l-.04-.21c0-.05.02-.1.08-.11l.09-.02c.05-.01.1.02.11.08l.04.21c0,.05-.02.1-.08.11ZM27.09,4.26l-.09.02c-.05.01-.1-.02-.11-.08l-.04-.21c0-.05.02-.1.08-.11l.09-.02c.05-.01.1.02.11.08l.04.21c0,.05-.02.1-.08.11ZM27.62,4.16l-.09.02c-.05.01-.1-.02-.11-.08l-.04-.21c0-.05.02-.1.08-.11l.09-.02c.05-.01.1.02.11.08l.04.21c0,.05-.02.1-.08.11ZM28.08,4.07l-.09.02c-.05,0-.1-.02-.11-.08l-.04-.21c-.01-.05.02-.1.08-.11l.09-.02c.05-.01.1.02.11.08l.04.21c.01.05-.02.1-.08.11ZM31.69,2.97l-.09-.28.43-.12.28.4h-.62ZM32.43,2.97l-.31-.4.25-.12.31.28-.25.25ZM32.71,2.66l-.28-.25.12-.15.31.19-.15.22Z"/>
      <path class="cls-2" d="M23.46,7.08c.14-.03.28-.08.42-.14.49-.24,1.64-.86,1.42-1.28-.28-.53-1.95-.46-3.74,0-1.79.46-5.07.99-5.65,1.95-.59.96,1.7.67,1.7.67l5.85-1.2Z"/>
      <path class="cls-8" d="M7.17,6.96c-.06-.03-3.03.34-3.03.34,0,0-3.03,1.64-2.81,1.7.22.06,1.11-.09,1.11-.09,0,0,4.82-1.51,4.85-1.73.03-.22-.12-.22-.12-.22Z"/>
      <g>
        <path class="cls-9" d="M20.72,9.18c1.91.25,3.18-.15,3.55-.34.37-.19,0-1.76-.37-1.88-.37-.12-3.3.9-3.3.9l.09.77.03.56Z"/>
        <path class="cls-7" d="M20.84,9.19s-4.47.08-4.6-.01c-.12-.09,4.6-1.14,4.6-1.14v1.16Z"/>
      </g>
      <path class="cls-5" d="M23.4,6.01s-4.24.48-5.67,1.1c-.1.04-.16.14-.16.25v.52c0,.11-.04.22-.12.3l-3.65,3.8h1.73s8.31-5.44,8.37-5.68c.06-.25-.49-.28-.49-.28Z"/>
      <path class="cls-6" d="M16.11,11.59s-.73.28-1.07,0c-.34-.28-2.1-2.19-2.1-2.19l-.8.22s1.3,2.5,1.48,2.53,1.58.03,1.99-.17c.42-.2.5-.39.5-.39Z"/>
    </g>
  </g>
</svg>