<svg width="179" height="184" viewBox="0 0 179 184" fill="none" xmlns="http://www.w3.org/2000/svg">
<g filter="url(#filter0_d_313_20)">
<path d="M102.706 176H97V171.565H102.706V176ZM120.057 176L116.461 170.498L112.866 176H106.613L112.866 167.13L107.161 159H113.335L116.54 164.256L119.666 159H125.762L120.135 167.213L126.309 176H120.057ZM142.801 168.855V176H137.173V168.855L130.139 159H136.314L139.987 164.749L143.661 159H149.835L142.801 168.855ZM169.922 176H152.727V172.469L162.809 162.614H153.743V159H169.609V162.367L159.449 172.304H170V176H169.922Z" fill="black"/>
</g>
<g filter="url(#filter1_d_313_20)">
<path d="M95.5 21.4C93.6 18.7 91.5 16.2 89.1 13.9C80.1 5.3 67.6 0 53.9 0C26.4 0 4 21.3 4 47.5C4 73.7 26.4 95 53.9 95C58 95 62 94.5 65.9 93.6V83.5C62.1 84.6 58.1 85.3 53.9 85.3C31.8 85.3 13.9 68.4 13.9 47.6C13.9 26.8 31.9 9.9 53.9 9.9C65.2 9.9 75.4 14.3 82.7 21.4C83.3 22 83.9 22.6 84.5 23.2C84.5 23.3 84.6 23.3 84.6 23.4C85.1 24 85.7 24.7 86.2 25.3C86.7 25.9 87.2 26.6 87.6 27.3C87.7 27.4 87.8 27.5 87.8 27.6C90.8 32.1 92.8 37.1 93.5 42.6H84.6C84.4 44.2 84.2 45.9 84.2 47.5C84.2 49.2 84.3 50.8 84.5 52.4H93.4H98.3H103.4C103.6 50.8 103.7 49.1 103.7 47.5C103.7 37.9 100.7 28.9 95.5 21.4Z" fill="black"/>
<path d="M74.4 47.6C74.4 45.9 74.5 44.3 74.7 42.7H24.5V52.6H74.6C74.5 50.8 74.4 49.2 74.4 47.6Z" fill="black"/>
</g>
<g filter="url(#filter2_d_313_20)">
<path d="M74 148.2C74 150.5 74 151.9 74 152H83.9C83.9 151.9 83.9 148.2 83.9 142.9C80.8 145 77.5 146.8 74 148.2Z" fill="black"/>
<path d="M168.4 109.3H173.5C173.7 107.7 173.8 106 173.8 104.4C173.8 78.2 151.4 56.9 123.9 56.9C96.4 56.9 74 78.2 74 104.4C74 104.7 74 123.5 74 137.3C77.7 135.4 81 132.9 83.9 130C83.9 117.6 83.9 104.5 83.9 104.3C83.9 83.5 101.9 66.6 123.9 66.6C144.2 66.6 161 80.9 163.6 99.4H90.9V105.9V109.4L93.9 111.4L97.2 113.6L153.5 151.7H170.4L111.3 109.1H163.6H168.4V109.3Z" fill="black"/>
</g>
<g filter="url(#filter3_d_313_20)">
<path d="M104.2 99.5C103.9 96.3 103.1 93.2 102.2 90.2C98.1002 88.3 94.4002 85.8 91.0002 83C90.4002 83.8 89.8002 84.7 89.2002 85.6C91.8002 89.8 93.5002 94.5 94.2002 99.5H104.2Z" fill="#FF6633"/>
<path d="M28.0001 76.3C35.1001 70.4 44.4001 66.7 54.6001 66.7C65.5001 66.7 75.5001 70.9 82.7001 77.6C83.2001 77 83.6001 76.3 84.1001 75.7C80.9001 71.5 78.3001 66.9 76.7001 61.8C70.0001 58.6 62.5001 56.9 54.6001 56.9C41.7001 56.9 30.0001 61.6 21.1001 69.2C23.1001 71.8 25.4001 74.2 28.0001 76.3Z" fill="#FF6633"/>
<path d="M83.8001 130.1C80.9001 133 77.6001 135.4 73.9001 137.4C68.2001 140.4 61.5001 142.1 54.5001 142.1C32.4001 142.1 14.5001 125.2 14.5001 104.4C14.5001 96.7 17.0001 89.5 21.2001 83.5C18.6001 81.4 16.3001 79 14.2001 76.4C8.2001 84.3 4.6001 93.9 4.6001 104.4C4.6001 130.6 27.0001 151.9 54.5001 151.9C61.4001 151.9 67.9001 150.6 73.9001 148.2C77.4001 146.8 80.7001 145 83.8001 142.9C92.7001 136.7 99.4001 127.8 102.5 117.5L93.8001 111.6C92.4001 118.7 88.8001 125 83.8001 130.1Z" fill="#FF6633"/>
</g>
<g filter="url(#filter4_d_313_20)">
<path d="M124.2 9.90001C140 9.90001 153.7 18.5 160.2 31.1H171C163.9 13 145.6 0.100006 124.2 0.100006C110.5 0.100006 98 5.40001 89 14C91.4 16.3 93.5 18.8 95.4 21.5C102.7 14.3 113 9.90001 124.2 9.90001Z" fill="#0099FF"/>
<path d="M174.1 47.6C174.1 45.9 174 44.3 173.8 42.7H168.7H163.8H110.1V52.6H163.8C163.6 54.1 163.3 55.5 162.9 56.9C162.8 57.2 162.7 57.5 162.6 57.9C162.5 58.2 162.4 58.5 162.3 58.7C162.2 59 162.1 59.3 162 59.7C161.9 60.1 161.7 60.4 161.6 60.8C161.5 61.2 161.3 61.5 161.1 61.9C160.9 62.3 160.7 62.7 160.5 63.1C160.4 63.3 160.3 63.6 160.2 63.8C160 64.2 159.8 64.7 159.5 65.1C159.4 65.2 159.3 65.4 159.3 65.5C159 66.1 158.6 66.6 158.3 67.2C158.2 67.3 158.1 67.5 158 67.6C157.7 68.1 157.4 68.5 157 69C156.9 69.1 156.9 69.1 156.8 69.2C156.7 69.3 156.7 69.4 156.6 69.5C156.4 69.8 156.1 70.1 155.9 70.4C155.6 70.8 155.3 71.1 155 71.5C154.8 71.7 154.7 71.9 154.5 72.1C154.2 72.5 153.8 72.8 153.5 73.2C153.4 73.3 153.3 73.4 153.1 73.6C152.6 74.1 152.2 74.5 151.7 74.9C151.6 75 151.5 75.1 151.3 75.2C150.9 75.6 150.4 75.9 150 76.3L149.9 76.4C148.6 77.5 147.2 78.4 145.8 79.3C145.8 79.3 145.8 79.3 145.7 79.3C145.3 79.6 144.8 79.8 144.3 80.1C144.2 80.1 144.2 80.2 144.1 80.2C143.7 80.4 143.3 80.7 142.8 80.9C142.7 80.9 142.6 81 142.5 81C142.1 81.2 141.7 81.4 141.3 81.6C141.2 81.7 141.1 81.7 140.9 81.8C140.5 82 140.1 82.1 139.7 82.3C139.6 82.4 139.4 82.4 139.3 82.5C138.9 82.7 138.5 82.8 138.2 82.9C138 83 137.9 83 137.7 83.1C137.3 83.2 137 83.4 136.6 83.5C136.4 83.6 136.2 83.6 136.1 83.7C135.7 83.8 135.4 83.9 135 84C134.8 84.1 134.6 84.1 134.4 84.2C134 84.3 133.7 84.4 133.3 84.5C133.1 84.5 132.9 84.6 132.7 84.6C132.3 84.7 132 84.7 131.6 84.8C131.4 84.8 131.2 84.9 131 84.9C130.6 85 130.3 85 129.9 85.1C129.7 85.1 129.5 85.2 129.2 85.2C128.8 85.2 128.5 85.3 128.1 85.3C127.9 85.3 127.7 85.3 127.5 85.4C127.1 85.4 126.7 85.5 126.3 85.5C126.1 85.5 125.9 85.5 125.7 85.5C125.1 85.5 124.5 85.5 123.9 85.5C123.3 85.5 122.7 85.5 122.1 85.5C121.9 85.5 121.7 85.5 121.5 85.5C121.1 85.5 120.7 85.5 120.3 85.4C120.1 85.4 119.8 85.4 119.6 85.3C119.2 85.3 118.9 85.2 118.5 85.2C118.3 85.2 118 85.1 117.8 85.1C117.5 85 117.1 85 116.8 84.9C116.6 84.9 116.3 84.8 116.1 84.8C115.8 84.7 115.4 84.7 115.1 84.6C114.9 84.5 114.6 84.5 114.4 84.4C114.1 84.3 113.7 84.2 113.4 84.2C113.2 84.1 112.9 84.1 112.7 84C112.4 83.9 112 83.8 111.7 83.7C111.5 83.6 111.3 83.6 111 83.5C110.7 83.4 110.3 83.3 110 83.2C109.8 83.1 109.6 83.1 109.4 83C109 82.9 108.7 82.7 108.3 82.6C108.1 82.5 107.9 82.5 107.8 82.4C107.4 82.2 107 82.1 106.6 81.9C106.5 81.8 106.3 81.8 106.2 81.7C105.7 81.5 105.2 81.2 104.8 81C104.8 81 104.8 81 104.7 81C103.7 80.5 102.7 79.9 101.7 79.3C101.2 79 100.8 78.7 100.3 78.4C100.2 78.4 100.2 78.3 100.1 78.3C99.7001 78 99.3001 77.7 98.9001 77.5C98.8001 77.4 98.7001 77.4 98.6001 77.3C98.2001 77 97.9001 76.7 97.5001 76.4L97.4001 76.3C94.8001 78.4 92.5001 80.8 90.6001 83.4C94.0001 86.3 97.7001 88.7 101.8 90.7C101.9 90.7 101.9 90.8 102 90.8C102.7 91.1 103.5 91.5 104.3 91.8C104.3 91.8 104.4 91.8 104.4 91.9C105.2 92.2 106.1 92.6 107 92.9H107.1C107.9 93.2 108.7 93.4 109.5 93.6C109.7 93.7 109.9 93.7 110 93.8C110.7 94 111.4 94.2 112.1 94.3C112.3 94.3 112.4 94.4 112.6 94.4C113.5 94.6 114.3 94.8 115.2 94.9C115.3 94.9 115.3 94.9 115.4 94.9C116.2 95 117 95.1 117.8 95.2C118.1 95.2 118.3 95.3 118.6 95.3C119.2 95.4 119.9 95.4 120.5 95.5C120.8 95.5 121 95.5 121.3 95.5C122.2 95.5 123.1 95.6 124 95.6C124.8 95.6 125.5 95.6 126.3 95.5C126.5 95.5 126.7 95.5 127 95.5C127.5 95.5 128.1 95.4 128.6 95.4C128.8 95.4 129.1 95.3 129.3 95.3C129.8 95.2 130.3 95.2 130.8 95.1C131 95.1 131.3 95 131.5 95C132 94.9 132.5 94.9 133 94.8C133.2 94.8 133.4 94.7 133.7 94.7C134.2 94.6 134.7 94.5 135.2 94.4C135.4 94.4 135.6 94.3 135.8 94.3C136.3 94.2 136.9 94 137.4 93.9C137.6 93.9 137.7 93.8 137.9 93.8C138.4 93.6 139 93.5 139.5 93.3C139.6 93.3 139.8 93.2 139.9 93.2C140.5 93 141 92.8 141.6 92.6C141.7 92.6 141.8 92.5 142 92.5C142.6 92.3 143.1 92.1 143.7 91.8C143.8 91.8 143.9 91.7 144 91.7C144.6 91.5 145.2 91.2 145.7 90.9C145.8 90.9 145.9 90.8 145.9 90.8C146.5 90.5 147.1 90.2 147.6 89.9C147.7 89.9 147.7 89.8 147.8 89.8C148.4 89.5 149 89.2 149.6 88.8C149.6 88.8 149.7 88.8 149.7 88.7C150.3 88.4 150.9 88 151.4 87.6H151.5C152.1 87.2 152.7 86.8 153.2 86.5C153.6 86.2 154.1 85.9 154.5 85.6C154.6 85.5 154.8 85.4 154.9 85.3C155.2 85.1 155.4 84.9 155.7 84.7C156 84.5 156.2 84.3 156.5 84.1C156.7 83.9 157 83.7 157.2 83.5C157.5 83.3 157.8 83 158 82.8C158.2 82.6 158.4 82.4 158.6 82.2C158.9 81.9 159.2 81.6 159.5 81.3C159.7 81.1 159.8 81 160 80.8C160.4 80.4 160.7 80.1 161.1 79.7C161.2 79.6 161.3 79.5 161.4 79.4C162.8 77.9 164 76.3 165.2 74.6C165.3 74.4 165.4 74.3 165.6 74.1C165.8 73.8 166 73.5 166.2 73.2C166.4 73 166.5 72.7 166.7 72.5C166.9 72.1 167.1 71.8 167.3 71.4C167.4 71.2 167.5 71 167.7 70.8C168 70.4 168.2 69.9 168.4 69.4C168.5 69.3 168.5 69.2 168.6 69C169.8 66.6 170.9 64.1 171.7 61.5V61.4C171.9 60.8 172.1 60.1 172.2 59.5C172.2 59.4 172.2 59.4 172.2 59.3C172.4 58.7 172.5 58.1 172.6 57.5V57.4C173.8 53.8 174.1 50.7 174.1 47.6Z" fill="#0099FF"/>
<path d="M91.1001 68.6C87.7001 63.9 85.4001 58.4 84.6001 52.5C84.4001 50.9 84.3 49.3 84.3 47.6C84.3 45.9 84.5001 44.3 84.7001 42.7C85.3001 38.1 86.9001 33.7 89.2001 29.7C87.5001 26.7 85.3 23.9 82.8 21.5C78.3 27.6 75.5001 34.8 74.6001 42.6C74.4001 44.2 74.3 45.9 74.3 47.5C74.3 49.2 74.4001 50.8 74.6001 52.4C74.8001 53.9 75 55.3 75.3 56.7V56.8C75.4 57.2 75.5001 57.6 75.6001 58C75.7001 58.3 75.8 58.7 75.8 59C75.9 59.4 76.0001 59.7 76.1001 60.1C76.2001 60.5 76.3001 60.8 76.4001 61.2C76.5001 61.4 76.5001 61.5 76.6001 61.7C78.3001 66.7 80.8001 71.4 84.0001 75.6C86.2001 73.1 88.5001 70.7 91.1001 68.6Z" fill="#0099FF"/>
</g>
<defs>
<filter id="filter0_d_313_20" x="93" y="159" width="81" height="25" filterUnits="userSpaceOnUse" color-interpolation-filters="sRGB">
<feFlood flood-opacity="0" result="BackgroundImageFix"/>
<feColorMatrix in="SourceAlpha" type="matrix" values="0 0 0 0 0 0 0 0 0 0 0 0 0 0 0 0 0 0 127 0" result="hardAlpha"/>
<feOffset dy="4"/>
<feGaussianBlur stdDeviation="2"/>
<feComposite in2="hardAlpha" operator="out"/>
<feColorMatrix type="matrix" values="0 0 0 0 0 0 0 0 0 0 0 0 0 0 0 0 0 0 0.25 0"/>
<feBlend mode="normal" in2="BackgroundImageFix" result="effect1_dropShadow_313_20"/>
<feBlend mode="normal" in="SourceGraphic" in2="effect1_dropShadow_313_20" result="shape"/>
</filter>
<filter id="filter1_d_313_20" x="0" y="0" width="107.7" height="103" filterUnits="userSpaceOnUse" color-interpolation-filters="sRGB">
<feFlood flood-opacity="0" result="BackgroundImageFix"/>
<feColorMatrix in="SourceAlpha" type="matrix" values="0 0 0 0 0 0 0 0 0 0 0 0 0 0 0 0 0 0 127 0" result="hardAlpha"/>
<feOffset dy="4"/>
<feGaussianBlur stdDeviation="2"/>
<feComposite in2="hardAlpha" operator="out"/>
<feColorMatrix type="matrix" values="0 0 0 0 0 0 0 0 0 0 0 0 0 0 0 0 0 0 0.25 0"/>
<feBlend mode="normal" in2="BackgroundImageFix" result="effect1_dropShadow_313_20"/>
<feBlend mode="normal" in="SourceGraphic" in2="effect1_dropShadow_313_20" result="shape"/>
</filter>
<filter id="filter2_d_313_20" x="70" y="56.9" width="107.8" height="103.1" filterUnits="userSpaceOnUse" color-interpolation-filters="sRGB">
<feFlood flood-opacity="0" result="BackgroundImageFix"/>
<feColorMatrix in="SourceAlpha" type="matrix" values="0 0 0 0 0 0 0 0 0 0 0 0 0 0 0 0 0 0 127 0" result="hardAlpha"/>
<feOffset dy="4"/>
<feGaussianBlur stdDeviation="2"/>
<feComposite in2="hardAlpha" operator="out"/>
<feColorMatrix type="matrix" values="0 0 0 0 0 0 0 0 0 0 0 0 0 0 0 0 0 0 0.25 0"/>
<feBlend mode="normal" in2="BackgroundImageFix" result="effect1_dropShadow_313_20"/>
<feBlend mode="normal" in="SourceGraphic" in2="effect1_dropShadow_313_20" result="shape"/>
</filter>
<filter id="filter3_d_313_20" x="0.600098" y="56.9" width="107.6" height="103" filterUnits="userSpaceOnUse" color-interpolation-filters="sRGB">
<feFlood flood-opacity="0" result="BackgroundImageFix"/>
<feColorMatrix in="SourceAlpha" type="matrix" values="0 0 0 0 0 0 0 0 0 0 0 0 0 0 0 0 0 0 127 0" result="hardAlpha"/>
<feOffset dy="4"/>
<feGaussianBlur stdDeviation="2"/>
<feComposite in2="hardAlpha" operator="out"/>
<feColorMatrix type="matrix" values="0 0 0 0 0 0 0 0 0 0 0 0 0 0 0 0 0 0 0.25 0"/>
<feBlend mode="normal" in2="BackgroundImageFix" result="effect1_dropShadow_313_20"/>
<feBlend mode="normal" in="SourceGraphic" in2="effect1_dropShadow_313_20" result="shape"/>
</filter>
<filter id="filter4_d_313_20" x="70.3" y="0.100006" width="107.8" height="103.5" filterUnits="userSpaceOnUse" color-interpolation-filters="sRGB">
<feFlood flood-opacity="0" result="BackgroundImageFix"/>
<feColorMatrix in="SourceAlpha" type="matrix" values="0 0 0 0 0 0 0 0 0 0 0 0 0 0 0 0 0 0 127 0" result="hardAlpha"/>
<feOffset dy="4"/>
<feGaussianBlur stdDeviation="2"/>
<feComposite in2="hardAlpha" operator="out"/>
<feColorMatrix type="matrix" values="0 0 0 0 0 0 0 0 0 0 0 0 0 0 0 0 0 0 0.25 0"/>
<feBlend mode="normal" in2="BackgroundImageFix" result="effect1_dropShadow_313_20"/>
<feBlend mode="normal" in="SourceGraphic" in2="effect1_dropShadow_313_20" result="shape"/>
</filter>
</defs>
</svg>
