<svg width="408" height="412" viewBox="0 0 408 412" fill="none" xmlns="http://www.w3.org/2000/svg">
<g filter="url(#filter0_d_10_20)">
<rect x="4" width="400" height="404" rx="70" fill="white"/>
<g filter="url(#filter1_d_10_20)">
<path d="M194.412 372.998H180.271V362.534H194.412V372.998ZM237.414 372.998L228.504 360.015L219.593 372.998H204.097L219.593 352.071L205.453 332.888H220.755L228.697 345.289L236.446 332.888H251.554L237.608 352.265L252.91 372.998H237.414ZM293.782 356.14V372.998H279.835V356.14L262.402 332.888H277.705L286.809 346.452L295.913 332.888H311.215L293.782 356.14ZM360.998 372.998H318.383V364.666L343.37 341.414H320.901V332.888H360.223V340.833L335.041 364.278H361.191V372.998H360.998Z" fill="black"/>
</g>
<g filter="url(#filter2_d_10_20)">
<path d="M214.944 71.3055C211.264 66.0739 207.196 61.2298 202.547 56.7732C185.114 40.1094 160.901 29.8398 134.363 29.8398C81.0944 29.8398 37.7046 71.1118 37.7046 121.878C37.7046 172.645 81.0944 213.917 134.363 213.917C142.305 213.917 150.053 212.948 157.608 211.204V191.634C150.247 193.765 142.499 195.121 134.363 195.121C91.5545 195.121 56.8813 162.375 56.8813 122.072C56.8813 81.7689 91.7482 49.0226 134.363 49.0226C156.252 49.0226 176.01 57.5482 190.15 71.3055C191.312 72.4681 192.475 73.6307 193.637 74.7933C193.637 74.9871 193.831 74.9871 193.831 75.1809C194.799 76.3434 195.961 77.6998 196.93 78.8624C197.898 80.025 198.867 81.3813 199.642 82.7377C199.835 82.9314 200.029 83.1252 200.029 83.319C205.84 92.0384 209.714 101.727 211.07 112.384H193.831C193.443 115.484 193.056 118.778 193.056 121.878C193.056 125.172 193.249 128.272 193.637 131.373H210.877H220.368H230.247C230.634 128.272 230.828 124.978 230.828 121.878C230.828 103.277 225.017 85.8379 214.944 71.3055Z" fill="black"/>
<path d="M174.073 122.072C174.073 118.778 174.266 115.678 174.654 112.578H77.414V131.76H174.46C174.266 128.272 174.073 125.172 174.073 122.072Z" fill="black"/>
</g>
<g filter="url(#filter3_d_10_20)">
<path d="M173.298 317C173.298 321.456 173.298 324.169 173.298 324.363H192.475C192.475 324.169 192.475 317 192.475 306.73C186.47 310.799 180.077 314.287 173.298 317Z" fill="black"/>
<path d="M356.155 241.625H366.034C366.421 238.525 366.615 235.231 366.615 232.131C366.615 181.364 323.225 140.092 269.956 140.092C216.688 140.092 173.298 181.364 173.298 232.131C173.298 232.712 173.298 269.14 173.298 295.879C180.465 292.198 186.857 287.354 192.475 281.734C192.475 257.707 192.475 232.324 192.475 231.937C192.475 191.634 227.341 158.887 269.956 158.887C309.278 158.887 341.821 186.596 346.857 222.442H206.034V235.037V241.819L211.845 245.694L218.237 249.957L327.293 323.781H360.029L245.55 241.237H346.857H356.155V241.625Z" fill="black"/>
</g>
<g filter="url(#filter4_d_10_20)">
<path d="M231.797 222.636C231.215 216.436 229.666 210.429 227.923 204.616C219.981 200.934 212.814 196.09 206.228 190.665C205.065 192.215 203.903 193.959 202.741 195.703C207.777 203.841 211.07 212.948 212.426 222.636H231.797Z" fill="#FF6633"/>
<path d="M84.1937 177.683C97.9467 166.25 115.961 159.081 135.719 159.081C156.833 159.081 176.203 167.219 190.15 180.202C191.119 179.039 191.893 177.683 192.862 176.52C186.663 168.382 181.627 159.469 178.528 149.587C165.55 143.386 151.022 140.092 135.719 140.092C110.731 140.092 88.0678 149.199 70.8281 163.925C74.7022 168.963 79.1574 173.613 84.1937 177.683Z" fill="#FF6633"/>
<path d="M192.281 281.928C186.663 287.547 180.271 292.198 173.104 296.073C162.063 301.886 149.085 305.18 135.525 305.18C92.7167 305.18 58.0436 272.434 58.0436 232.131C58.0436 217.211 62.8862 203.26 71.0218 191.634C65.9855 187.565 61.5303 182.914 57.4625 177.876C45.8402 193.184 38.8668 211.785 38.8668 232.131C38.8668 282.897 82.2567 324.169 135.525 324.169C148.891 324.169 161.482 321.65 173.104 317C179.884 314.287 186.276 310.799 192.281 306.73C209.521 294.717 222.499 277.472 228.504 257.514L211.651 246.082C208.939 259.839 201.966 272.046 192.281 281.928Z" fill="#FF6633"/>
</g>
<g filter="url(#filter5_d_10_20)">
<path d="M270.538 49.0225C301.143 49.0225 327.68 65.6863 340.271 90.1007H361.191C347.438 55.0293 311.99 30.0336 270.538 30.0336C244 30.0336 219.787 40.3031 202.354 56.9669C207.002 61.4235 211.07 66.2676 214.751 71.4993C228.891 57.5482 248.843 49.0225 270.538 49.0225Z" fill="#0099FF"/>
<path d="M367.196 122.072C367.196 118.778 367.002 115.678 366.615 112.577H356.736H347.245H243.225V131.76H347.245C346.857 134.667 346.276 137.379 345.501 140.092C345.307 140.673 345.114 141.255 344.92 142.03C344.726 142.611 344.533 143.192 344.339 143.58C344.145 144.161 343.952 144.742 343.758 145.517C343.564 146.293 343.177 146.874 342.983 147.649C342.789 148.424 342.402 149.005 342.015 149.78C341.627 150.555 341.24 151.33 340.852 152.105C340.659 152.493 340.465 153.074 340.271 153.462C339.884 154.237 339.496 155.206 338.915 155.981C338.722 156.175 338.528 156.562 338.528 156.756C337.947 157.918 337.172 158.887 336.591 160.05C336.397 160.244 336.203 160.631 336.01 160.825C335.429 161.794 334.847 162.569 334.073 163.538C333.879 163.731 333.879 163.731 333.685 163.925C333.492 164.119 333.492 164.313 333.298 164.506C332.91 165.088 332.329 165.669 331.942 166.25C331.361 167.025 330.78 167.607 330.199 168.382C329.811 168.769 329.617 169.157 329.23 169.544C328.649 170.319 327.874 170.901 327.293 171.676C327.099 171.869 326.906 172.063 326.518 172.451C325.55 173.42 324.775 174.195 323.806 174.97C323.613 175.163 323.419 175.357 323.031 175.551C322.257 176.326 321.288 176.907 320.513 177.682L320.32 177.876C317.801 180.008 315.09 181.751 312.378 183.495C312.378 183.495 312.378 183.495 312.184 183.495C311.409 184.077 310.441 184.464 309.472 185.046C309.278 185.046 309.278 185.239 309.085 185.239C308.31 185.627 307.535 186.208 306.567 186.596C306.373 186.596 306.179 186.789 305.985 186.789C305.211 187.177 304.436 187.564 303.661 187.952C303.467 188.146 303.274 188.146 302.886 188.34C302.111 188.727 301.337 188.921 300.562 189.308C300.368 189.502 299.981 189.502 299.787 189.696C299.012 190.083 298.237 190.277 297.656 190.471C297.269 190.665 297.075 190.665 296.688 190.858C295.913 191.052 295.332 191.44 294.557 191.634C294.169 191.827 293.782 191.827 293.588 192.021C292.814 192.215 292.232 192.409 291.458 192.602C291.07 192.796 290.683 192.796 290.295 192.99C289.521 193.184 288.939 193.377 288.165 193.571C287.777 193.571 287.39 193.765 287.002 193.765C286.228 193.959 285.646 193.959 284.872 194.152C284.484 194.152 284.097 194.346 283.709 194.346C282.935 194.54 282.354 194.54 281.579 194.734C281.191 194.734 280.804 194.928 280.223 194.928C279.448 194.928 278.867 195.121 278.092 195.121C277.705 195.121 277.317 195.121 276.93 195.315C276.155 195.315 275.38 195.509 274.605 195.509C274.218 195.509 273.831 195.509 273.443 195.509C272.281 195.509 271.119 195.509 269.956 195.509C268.794 195.509 267.632 195.509 266.47 195.509C266.082 195.509 265.695 195.509 265.307 195.509C264.533 195.509 263.758 195.509 262.983 195.315C262.596 195.315 262.015 195.315 261.627 195.121C260.852 195.121 260.271 194.928 259.496 194.928C259.109 194.928 258.528 194.734 258.14 194.734C257.559 194.54 256.784 194.54 256.203 194.346C255.816 194.346 255.235 194.152 254.847 194.152C254.266 193.959 253.492 193.959 252.91 193.765C252.523 193.571 251.942 193.571 251.554 193.377C250.973 193.184 250.199 192.99 249.617 192.99C249.23 192.796 248.649 192.796 248.261 192.602C247.68 192.409 246.906 192.215 246.324 192.021C245.937 191.827 245.55 191.827 244.969 191.634C244.387 191.44 243.613 191.246 243.031 191.052C242.644 190.858 242.257 190.858 241.869 190.665C241.094 190.471 240.513 190.083 239.738 189.89C239.351 189.696 238.964 189.696 238.77 189.502C237.995 189.115 237.22 188.921 236.446 188.533C236.252 188.34 235.864 188.34 235.671 188.146C234.702 187.758 233.734 187.177 232.959 186.789C232.959 186.789 232.959 186.789 232.765 186.789C230.828 185.821 228.891 184.658 226.954 183.495C225.985 182.914 225.211 182.333 224.242 181.752C224.048 181.752 224.048 181.558 223.855 181.558C223.08 180.976 222.305 180.395 221.53 180.008C221.337 179.814 221.143 179.814 220.949 179.62C220.174 179.039 219.593 178.457 218.818 177.876L218.625 177.682C213.588 181.751 209.133 186.402 205.453 191.44C212.039 197.059 219.206 201.709 227.148 205.585C227.341 205.585 227.341 205.778 227.535 205.778C228.891 206.36 230.441 207.135 231.99 207.716C231.99 207.716 232.184 207.716 232.184 207.91C233.734 208.491 235.477 209.266 237.22 209.847H237.414C238.964 210.429 240.513 210.816 242.063 211.204C242.45 211.398 242.838 211.398 243.031 211.591C244.387 211.979 245.743 212.366 247.099 212.56C247.487 212.56 247.68 212.754 248.068 212.754C249.811 213.141 251.361 213.529 253.104 213.723C253.298 213.723 253.298 213.723 253.492 213.723C255.041 213.916 256.591 214.11 258.14 214.304C258.722 214.304 259.109 214.498 259.69 214.498C260.852 214.692 262.208 214.692 263.37 214.885C263.952 214.885 264.339 214.885 264.92 214.885C266.663 214.885 268.407 215.079 270.15 215.079C271.7 215.079 273.056 215.079 274.605 214.885C274.993 214.885 275.38 214.885 275.961 214.885C276.93 214.885 278.092 214.692 279.061 214.692C279.448 214.692 280.029 214.498 280.416 214.498C281.385 214.304 282.353 214.304 283.322 214.11C283.709 214.11 284.291 213.916 284.678 213.916C285.646 213.723 286.615 213.723 287.584 213.529C287.971 213.529 288.358 213.335 288.939 213.335C289.908 213.141 290.877 212.948 291.845 212.754C292.232 212.754 292.62 212.56 293.007 212.56C293.976 212.366 295.138 211.979 296.107 211.785C296.494 211.785 296.688 211.591 297.075 211.591C298.044 211.204 299.206 211.01 300.174 210.622C300.368 210.622 300.755 210.429 300.949 210.429C302.111 210.041 303.08 209.654 304.242 209.266C304.436 209.266 304.63 209.072 305.017 209.072C306.179 208.685 307.148 208.297 308.31 207.716C308.504 207.716 308.697 207.522 308.891 207.522C310.053 207.135 311.215 206.553 312.184 205.972C312.378 205.972 312.571 205.778 312.571 205.778C313.734 205.197 314.896 204.616 315.864 204.034C316.058 204.034 316.058 203.841 316.252 203.841C317.414 203.259 318.576 202.678 319.738 201.903C319.738 201.903 319.932 201.903 319.932 201.709C321.094 201.128 322.257 200.353 323.225 199.578H323.419C324.581 198.803 325.743 198.028 326.712 197.446C327.487 196.865 328.455 196.284 329.23 195.703C329.424 195.509 329.811 195.315 330.005 195.121C330.586 194.734 330.973 194.346 331.554 193.959C332.136 193.571 332.523 193.184 333.104 192.796C333.492 192.409 334.073 192.021 334.46 191.634C335.041 191.246 335.622 190.665 336.01 190.277C336.397 189.89 336.784 189.502 337.172 189.115C337.753 188.533 338.334 187.952 338.915 187.371C339.303 186.983 339.496 186.789 339.884 186.402C340.659 185.627 341.24 185.046 342.015 184.27C342.208 184.077 342.402 183.883 342.596 183.689C345.307 180.783 347.632 177.682 349.956 174.388C350.15 174.001 350.344 173.807 350.731 173.42C351.119 172.838 351.506 172.257 351.893 171.676C352.281 171.288 352.475 170.707 352.862 170.319C353.249 169.544 353.637 168.963 354.024 168.188C354.218 167.8 354.412 167.413 354.799 167.025C355.38 166.25 355.768 165.281 356.155 164.313C356.349 164.119 356.349 163.925 356.542 163.538C358.867 158.887 360.998 154.043 362.547 149.005V148.811C362.935 147.649 363.322 146.293 363.516 145.13C363.516 144.936 363.516 144.936 363.516 144.742C363.903 143.58 364.097 142.417 364.291 141.255V141.061C366.615 134.085 367.196 128.079 367.196 122.072Z" fill="#0099FF"/>
<path d="M206.421 162.763C199.835 153.656 195.38 142.999 193.83 131.566C193.443 128.466 193.249 125.366 193.249 122.072C193.249 118.778 193.637 115.678 194.024 112.577C195.186 103.664 198.286 95.1386 202.741 87.388C199.448 81.575 195.186 76.1496 190.344 71.4993C181.627 83.3189 176.203 97.27 174.46 112.384C174.073 115.484 173.879 118.778 173.879 121.878C173.879 125.172 174.073 128.272 174.46 131.373C174.847 134.279 175.235 136.992 175.816 139.705V139.898C176.01 140.673 176.203 141.448 176.397 142.223C176.591 142.805 176.784 143.58 176.784 144.161C176.978 144.936 177.172 145.517 177.366 146.293C177.559 147.068 177.753 147.649 177.947 148.424C178.14 148.811 178.14 149.005 178.334 149.393C181.627 159.081 186.47 168.188 192.668 176.326C196.93 171.482 201.385 166.832 206.421 162.763Z" fill="#0099FF"/>
</g>
</g>
<defs>
<filter id="filter0_d_10_20" x="0" y="0" width="408" height="412" filterUnits="userSpaceOnUse" color-interpolation-filters="sRGB">
<feFlood flood-opacity="0" result="BackgroundImageFix"/>
<feColorMatrix in="SourceAlpha" type="matrix" values="0 0 0 0 0 0 0 0 0 0 0 0 0 0 0 0 0 0 127 0" result="hardAlpha"/>
<feOffset dy="4"/>
<feGaussianBlur stdDeviation="2"/>
<feComposite in2="hardAlpha" operator="out"/>
<feColorMatrix type="matrix" values="0 0 0 0 0 0 0 0 0 0 0 0 0 0 0 0 0 0 0.25 0"/>
<feBlend mode="normal" in2="BackgroundImageFix" result="effect1_dropShadow_10_20"/>
<feBlend mode="normal" in="SourceGraphic" in2="effect1_dropShadow_10_20" result="shape"/>
</filter>
<filter id="filter1_d_10_20" x="176.271" y="332.888" width="188.92" height="48.1094" filterUnits="userSpaceOnUse" color-interpolation-filters="sRGB">
<feFlood flood-opacity="0" result="BackgroundImageFix"/>
<feColorMatrix in="SourceAlpha" type="matrix" values="0 0 0 0 0 0 0 0 0 0 0 0 0 0 0 0 0 0 127 0" result="hardAlpha"/>
<feOffset dy="4"/>
<feGaussianBlur stdDeviation="2"/>
<feComposite in2="hardAlpha" operator="out"/>
<feColorMatrix type="matrix" values="0 0 0 0 0 0 0 0 0 0 0 0 0 0 0 0 0 0 0.25 0"/>
<feBlend mode="normal" in2="BackgroundImageFix" result="effect1_dropShadow_10_20"/>
<feBlend mode="normal" in="SourceGraphic" in2="effect1_dropShadow_10_20" result="shape"/>
</filter>
<filter id="filter2_d_10_20" x="33.7046" y="29.8398" width="201.123" height="192.077" filterUnits="userSpaceOnUse" color-interpolation-filters="sRGB">
<feFlood flood-opacity="0" result="BackgroundImageFix"/>
<feColorMatrix in="SourceAlpha" type="matrix" values="0 0 0 0 0 0 0 0 0 0 0 0 0 0 0 0 0 0 127 0" result="hardAlpha"/>
<feOffset dy="4"/>
<feGaussianBlur stdDeviation="2"/>
<feComposite in2="hardAlpha" operator="out"/>
<feColorMatrix type="matrix" values="0 0 0 0 0 0 0 0 0 0 0 0 0 0 0 0 0 0 0.25 0"/>
<feBlend mode="normal" in2="BackgroundImageFix" result="effect1_dropShadow_10_20"/>
<feBlend mode="normal" in="SourceGraphic" in2="effect1_dropShadow_10_20" result="shape"/>
</filter>
<filter id="filter3_d_10_20" x="169.298" y="140.092" width="201.317" height="192.27" filterUnits="userSpaceOnUse" color-interpolation-filters="sRGB">
<feFlood flood-opacity="0" result="BackgroundImageFix"/>
<feColorMatrix in="SourceAlpha" type="matrix" values="0 0 0 0 0 0 0 0 0 0 0 0 0 0 0 0 0 0 127 0" result="hardAlpha"/>
<feOffset dy="4"/>
<feGaussianBlur stdDeviation="2"/>
<feComposite in2="hardAlpha" operator="out"/>
<feColorMatrix type="matrix" values="0 0 0 0 0 0 0 0 0 0 0 0 0 0 0 0 0 0 0.25 0"/>
<feBlend mode="normal" in2="BackgroundImageFix" result="effect1_dropShadow_10_20"/>
<feBlend mode="normal" in="SourceGraphic" in2="effect1_dropShadow_10_20" result="shape"/>
</filter>
<filter id="filter4_d_10_20" x="34.8668" y="140.092" width="200.93" height="192.077" filterUnits="userSpaceOnUse" color-interpolation-filters="sRGB">
<feFlood flood-opacity="0" result="BackgroundImageFix"/>
<feColorMatrix in="SourceAlpha" type="matrix" values="0 0 0 0 0 0 0 0 0 0 0 0 0 0 0 0 0 0 127 0" result="hardAlpha"/>
<feOffset dy="4"/>
<feGaussianBlur stdDeviation="2"/>
<feComposite in2="hardAlpha" operator="out"/>
<feColorMatrix type="matrix" values="0 0 0 0 0 0 0 0 0 0 0 0 0 0 0 0 0 0 0.25 0"/>
<feBlend mode="normal" in2="BackgroundImageFix" result="effect1_dropShadow_10_20"/>
<feBlend mode="normal" in="SourceGraphic" in2="effect1_dropShadow_10_20" result="shape"/>
</filter>
<filter id="filter5_d_10_20" x="169.879" y="30.0336" width="201.317" height="193.046" filterUnits="userSpaceOnUse" color-interpolation-filters="sRGB">
<feFlood flood-opacity="0" result="BackgroundImageFix"/>
<feColorMatrix in="SourceAlpha" type="matrix" values="0 0 0 0 0 0 0 0 0 0 0 0 0 0 0 0 0 0 127 0" result="hardAlpha"/>
<feOffset dy="4"/>
<feGaussianBlur stdDeviation="2"/>
<feComposite in2="hardAlpha" operator="out"/>
<feColorMatrix type="matrix" values="0 0 0 0 0 0 0 0 0 0 0 0 0 0 0 0 0 0 0.25 0"/>
<feBlend mode="normal" in2="BackgroundImageFix" result="effect1_dropShadow_10_20"/>
<feBlend mode="normal" in="SourceGraphic" in2="effect1_dropShadow_10_20" result="shape"/>
</filter>
</defs>
</svg>
