<svg width="1656" height="1724" viewBox="0 0 1656 1724" fill="none" xmlns="http://www.w3.org/2000/svg">
<g filter="url(#filter0_d_313_2)">
<path d="M787.535 1715.25H716.833V1662.95H787.535V1715.25ZM1002.55 1715.25L957.995 1650.36L913.443 1715.25H835.961L913.443 1610.65L842.741 1514.77H919.254L958.964 1576.76L997.705 1514.77H1073.25L1003.52 1611.62L1080.03 1715.25H1002.55ZM1284.39 1630.99V1715.25H1214.65V1630.99L1127.49 1514.77H1204L1249.52 1582.57L1295.04 1514.77H1371.55L1284.39 1630.99ZM1620.47 1715.25H1407.39V1673.61L1532.33 1557.38H1419.98V1514.77H1616.59V1554.48L1490.68 1671.67H1621.43V1715.25H1620.47Z" fill="black"/>
</g>
<g filter="url(#filter1_d_313_2)">
<path d="M890.199 207.264C871.797 181.114 851.458 156.901 828.213 134.625C741.046 51.3317 619.981 0 487.293 0C220.949 0 4 206.295 4 460.048C4 713.801 220.949 920.097 487.293 920.097C527.002 920.097 565.743 915.254 603.516 906.538V808.717C566.712 819.37 527.971 826.15 487.293 826.15C273.249 826.15 99.8838 662.47 99.8838 461.017C99.8838 259.564 274.218 95.8838 487.293 95.8838C596.736 95.8838 695.525 138.499 766.228 207.264C772.039 213.075 777.85 218.886 783.661 224.697C783.661 225.666 784.63 225.666 784.63 226.634C789.472 232.446 795.283 239.225 800.126 245.036C804.969 250.847 809.811 257.627 813.685 264.407C814.654 265.375 815.622 266.344 815.622 267.312C844.678 310.896 864.048 359.322 870.828 412.591H784.63C782.692 428.087 780.755 444.552 780.755 460.048C780.755 476.513 781.724 492.01 783.661 507.506H869.86H917.317H966.712C968.649 492.01 969.617 475.545 969.617 460.048C969.617 367.07 940.562 279.903 890.199 207.264Z" fill="black"/>
<path d="M685.84 461.017C685.84 444.552 686.809 429.056 688.746 413.559H202.547V509.443H687.777C686.809 492.01 685.84 476.513 685.84 461.017Z" fill="black"/>
</g>
<g filter="url(#filter2_d_313_2)">
<path d="M681.966 1435.35C681.966 1457.63 681.966 1471.19 681.966 1472.15H777.85C777.85 1471.19 777.85 1435.35 777.85 1384.02C747.826 1404.36 715.864 1421.79 681.966 1435.35Z" fill="black"/>
<path d="M1596.25 1058.6H1645.65C1647.58 1043.1 1648.55 1026.63 1648.55 1011.14C1648.55 757.385 1431.6 551.09 1165.26 551.09C898.915 551.09 681.966 757.385 681.966 1011.14C681.966 1014.04 681.966 1196.13 681.966 1329.78C717.801 1311.38 749.763 1287.17 777.85 1259.08C777.85 1138.98 777.85 1012.11 777.85 1010.17C777.85 808.717 952.184 645.036 1165.26 645.036C1361.87 645.036 1524.58 783.535 1549.76 962.712H845.646V1025.67V1059.56L874.702 1078.93L906.663 1100.24L1451.94 1469.25H1615.62L1043.23 1056.66H1549.76H1596.25V1058.6Z" fill="black"/>
</g>
<g filter="url(#filter3_d_313_2)">
<path d="M974.46 963.68C971.555 932.688 963.806 902.663 955.09 873.608C915.38 855.206 879.545 830.993 846.615 803.874C840.804 811.622 834.993 820.339 829.182 829.056C854.363 869.734 870.828 915.254 877.608 963.68H974.46Z" fill="#FF6633"/>
<path d="M236.446 738.983C305.211 681.84 395.283 646.005 494.073 646.005C599.642 646.005 696.494 686.683 766.228 751.574C771.07 745.763 774.944 738.983 779.787 733.172C748.794 692.494 723.613 647.942 708.116 598.547C643.225 567.554 570.586 551.09 494.073 551.09C369.133 551.09 255.816 596.61 169.617 670.218C188.988 695.399 211.264 718.644 236.446 738.983Z" fill="#FF6633"/>
<path d="M776.881 1260.05C748.794 1288.14 716.833 1311.38 680.998 1330.75C625.792 1359.81 560.901 1376.27 493.104 1376.27C279.06 1376.27 105.695 1212.59 105.695 1011.14C105.695 936.562 129.908 866.828 170.586 808.717C145.404 788.378 123.128 765.133 102.789 739.952C44.6779 816.465 9.81104 909.443 9.81104 1011.14C9.81104 1264.89 226.76 1471.19 493.104 1471.19C559.932 1471.19 622.886 1458.6 680.998 1435.35C714.896 1421.79 746.857 1404.36 776.881 1384.02C863.08 1323.97 927.971 1237.77 957.995 1138.01L873.734 1080.87C860.174 1149.64 825.307 1210.65 776.881 1260.05Z" fill="#FF6633"/>
</g>
<g filter="url(#filter4_d_313_2)">
<path d="M1168.16 95.8838C1321.19 95.8838 1453.88 179.177 1516.83 301.211H1621.43C1552.67 125.908 1375.43 0.968536 1168.16 0.968536C1035.48 0.968536 914.412 52.3002 827.245 135.593C850.489 157.869 870.828 182.082 889.23 208.232C959.932 138.499 1059.69 95.8838 1168.16 95.8838Z" fill="#0099FF"/>
<path d="M1651.46 461.017C1651.46 444.552 1650.49 429.056 1648.55 413.559H1599.16H1551.7H1031.6V509.443H1551.7C1549.76 523.971 1546.86 537.53 1542.98 551.09C1542.01 553.995 1541.05 556.901 1540.08 560.775C1539.11 563.68 1538.14 566.586 1537.17 568.523C1536.2 571.429 1535.23 574.334 1534.27 578.208C1533.3 582.082 1531.36 584.988 1530.39 588.862C1529.42 592.736 1527.49 595.642 1525.55 599.516C1523.61 603.39 1521.68 607.264 1519.74 611.138C1518.77 613.075 1517.8 615.981 1516.83 617.918C1514.9 621.792 1512.96 626.634 1510.05 630.508C1509.08 631.477 1508.12 633.414 1508.12 634.383C1505.21 640.194 1501.34 645.036 1498.43 650.847C1497.46 651.816 1496.49 653.753 1495.53 654.722C1492.62 659.564 1489.71 663.438 1485.84 668.281C1484.87 669.249 1484.87 669.249 1483.9 670.218C1482.93 671.186 1482.93 672.155 1481.97 673.124C1480.03 676.029 1477.12 678.935 1475.19 681.84C1472.28 685.714 1469.38 688.62 1466.47 692.494C1464.53 694.431 1463.56 696.368 1461.63 698.305C1458.72 702.179 1454.85 705.085 1451.94 708.959C1450.97 709.927 1450 710.896 1448.07 712.833C1443.22 717.676 1439.35 721.55 1434.51 725.424C1433.54 726.392 1432.57 727.361 1430.63 728.329C1426.76 732.203 1421.92 735.109 1418.04 738.983L1417.07 739.952C1404.48 750.605 1390.92 759.322 1377.37 768.039C1377.37 768.039 1377.37 768.039 1376.4 768.039C1372.52 770.944 1367.68 772.881 1362.84 775.787C1361.87 775.787 1361.87 776.755 1360.9 776.755C1357.03 778.693 1353.15 781.598 1348.31 783.535C1347.34 783.535 1346.37 784.504 1345.4 784.504C1341.53 786.441 1337.66 788.378 1333.78 790.315C1332.81 791.283 1331.84 791.283 1329.91 792.252C1326.03 794.189 1322.16 795.157 1318.29 797.094C1317.32 798.063 1315.38 798.063 1314.41 799.032C1310.54 800.969 1306.66 801.937 1303.76 802.906C1301.82 803.874 1300.85 803.874 1298.92 804.843C1295.04 805.811 1292.14 807.748 1288.26 808.717C1286.32 809.685 1284.39 809.685 1283.42 810.654C1279.54 811.622 1276.64 812.591 1272.76 813.559C1270.83 814.528 1268.89 814.528 1266.95 815.496C1263.08 816.465 1260.17 817.433 1256.3 818.402C1254.36 818.402 1252.43 819.37 1250.49 819.37C1246.61 820.339 1243.71 820.339 1239.84 821.308C1237.9 821.308 1235.96 822.276 1234.02 822.276C1230.15 823.245 1227.24 823.245 1223.37 824.213C1221.43 824.213 1219.5 825.182 1216.59 825.182C1212.72 825.182 1209.81 826.15 1205.94 826.15C1204 826.15 1202.06 826.15 1200.13 827.119C1196.25 827.119 1192.38 828.087 1188.5 828.087C1186.57 828.087 1184.63 828.087 1182.69 828.087C1176.88 828.087 1171.07 828.087 1165.26 828.087C1159.45 828.087 1153.64 828.087 1147.83 828.087C1145.89 828.087 1143.95 828.087 1142.01 828.087C1138.14 828.087 1134.27 828.087 1130.39 827.119C1128.45 827.119 1125.55 827.119 1123.61 826.15C1119.74 826.15 1116.83 825.182 1112.96 825.182C1111.02 825.182 1108.12 824.213 1106.18 824.213C1103.27 823.245 1099.4 823.245 1096.49 822.276C1094.56 822.276 1091.65 821.308 1089.71 821.308C1086.81 820.339 1082.93 820.339 1080.03 819.37C1078.09 818.402 1075.19 818.402 1073.25 817.433C1070.34 816.465 1066.47 815.496 1063.56 815.496C1061.63 814.528 1058.72 814.528 1056.78 813.559C1053.88 812.591 1050 811.622 1047.1 810.654C1045.16 809.685 1043.23 809.685 1040.32 808.717C1037.41 807.748 1033.54 806.78 1030.63 805.811C1028.7 804.843 1026.76 804.843 1024.82 803.874C1020.95 802.906 1018.04 800.969 1014.17 800C1012.23 799.032 1010.3 799.032 1009.33 798.063C1005.45 796.126 1001.58 795.157 997.704 793.22C996.736 792.252 994.799 792.252 993.83 791.283C988.988 789.346 984.145 786.441 980.271 784.504C980.271 784.504 980.271 784.504 979.302 784.504C969.617 779.661 959.932 773.85 950.247 768.039C945.404 765.133 941.53 762.228 936.687 759.322C935.719 759.322 935.719 758.354 934.75 758.354C930.876 755.448 927.002 752.542 923.128 750.605C922.16 749.637 921.191 749.637 920.223 748.668C916.348 745.763 913.443 742.857 909.569 739.952L908.6 738.983C883.419 759.322 861.143 782.567 842.741 807.748C875.671 835.835 911.506 859.08 951.215 878.45C952.184 878.45 952.184 879.419 953.152 879.419C959.932 882.324 967.68 886.199 975.428 889.104C975.428 889.104 976.397 889.104 976.397 890.073C984.145 892.978 992.862 896.852 1001.58 899.758H1002.55C1010.3 902.663 1018.04 904.601 1025.79 906.538C1027.73 907.506 1029.67 907.506 1030.63 908.475C1037.41 910.412 1044.19 912.349 1050.97 913.317C1052.91 913.317 1053.88 914.286 1055.82 914.286C1064.53 916.223 1072.28 918.16 1081 919.128C1081.97 919.128 1081.97 919.128 1082.93 919.128C1090.68 920.097 1098.43 921.065 1106.18 922.034C1109.08 922.034 1111.02 923.002 1113.93 923.002C1119.74 923.971 1126.52 923.971 1132.33 924.94C1135.23 924.94 1137.17 924.94 1140.08 924.94C1148.79 924.94 1157.51 925.908 1166.23 925.908C1173.98 925.908 1180.76 925.908 1188.5 924.94C1190.44 924.94 1192.38 924.94 1195.28 924.94C1200.13 924.94 1205.94 923.971 1210.78 923.971C1212.72 923.971 1215.62 923.002 1217.56 923.002C1222.4 922.034 1227.24 922.034 1232.09 921.065C1234.02 921.065 1236.93 920.097 1238.87 920.097C1243.71 919.128 1248.55 919.128 1253.39 918.16C1255.33 918.16 1257.27 917.191 1260.17 917.191C1265.02 916.223 1269.86 915.254 1274.7 914.286C1276.64 914.286 1278.58 913.317 1280.51 913.317C1285.36 912.349 1291.17 910.412 1296.01 909.443C1297.95 909.443 1298.92 908.475 1300.85 908.475C1305.69 906.538 1311.51 905.569 1316.35 903.632C1317.32 903.632 1319.25 902.663 1320.22 902.663C1326.03 900.726 1330.88 898.789 1336.69 896.852C1337.66 896.852 1338.62 895.884 1340.56 895.884C1346.37 893.947 1351.22 892.01 1357.03 889.104C1358 889.104 1358.96 888.136 1359.93 888.136C1365.74 886.199 1371.55 883.293 1376.4 880.387C1377.37 880.387 1378.33 879.419 1378.33 879.419C1384.15 876.513 1389.96 873.608 1394.8 870.702C1395.77 870.702 1395.77 869.734 1396.74 869.734C1402.55 866.828 1408.36 863.923 1414.17 860.048C1414.17 860.048 1415.14 860.048 1415.14 859.08C1420.95 856.174 1426.76 852.3 1431.6 848.426H1432.57C1438.38 844.552 1444.19 840.678 1449.04 837.772C1452.91 834.867 1457.75 831.961 1461.63 829.056C1462.6 828.087 1464.53 827.119 1465.5 826.15C1468.41 824.213 1470.34 822.276 1473.25 820.339C1476.15 818.402 1478.09 816.465 1481 814.528C1482.93 812.591 1485.84 810.654 1487.78 808.717C1490.68 806.78 1493.59 803.874 1495.53 801.937C1497.46 800 1499.4 798.063 1501.34 796.126C1504.24 793.22 1507.15 790.315 1510.05 787.409C1511.99 785.472 1512.96 784.504 1514.9 782.567C1518.77 778.692 1521.68 775.787 1525.55 771.913C1526.52 770.944 1527.49 769.976 1528.46 769.007C1542.01 754.479 1553.64 738.983 1565.26 722.518C1566.23 720.581 1567.2 719.613 1569.13 717.676C1571.07 714.77 1573.01 711.864 1574.94 708.959C1576.88 707.022 1577.85 704.116 1579.79 702.179C1581.72 698.305 1583.66 695.4 1585.6 691.525C1586.57 689.588 1587.53 687.651 1589.47 685.714C1592.38 681.84 1594.31 676.998 1596.25 672.155C1597.22 671.186 1597.22 670.218 1598.19 668.281C1609.81 645.036 1620.46 620.823 1628.21 595.642V594.673C1630.15 588.862 1632.09 582.082 1633.06 576.271C1633.06 575.303 1633.06 575.303 1633.06 574.334C1634.99 568.523 1635.96 562.712 1636.93 556.901V555.932C1648.55 521.065 1651.46 491.041 1651.46 461.017Z" fill="#0099FF"/>
<path d="M847.583 664.407C814.654 618.886 792.378 565.617 784.629 508.475C782.692 492.978 781.724 477.482 781.724 461.017C781.724 444.552 783.661 429.056 785.598 413.559C791.409 369.007 806.905 326.392 829.182 287.651C812.717 258.596 791.409 231.477 767.196 208.232C723.613 267.312 696.494 337.046 687.777 412.591C685.84 428.087 684.872 444.552 684.872 460.048C684.872 476.513 685.84 492.01 687.777 507.506C689.714 522.034 691.651 535.593 694.557 549.153V550.121C695.525 553.995 696.494 557.869 697.462 561.743C698.431 564.649 699.399 568.523 699.399 571.429C700.368 575.303 701.337 578.208 702.305 582.082C703.274 585.956 704.242 588.862 705.211 592.736C706.179 594.673 706.179 595.642 707.148 597.579C723.613 646.005 747.826 691.525 778.818 732.203C800.126 707.99 822.402 684.746 847.583 664.407Z" fill="#0099FF"/>
</g>
<defs>
<filter id="filter0_d_313_2" x="712.833" y="1514.77" width="912.601" height="208.484" filterUnits="userSpaceOnUse" color-interpolation-filters="sRGB">
<feFlood flood-opacity="0" result="BackgroundImageFix"/>
<feColorMatrix in="SourceAlpha" type="matrix" values="0 0 0 0 0 0 0 0 0 0 0 0 0 0 0 0 0 0 127 0" result="hardAlpha"/>
<feOffset dy="4"/>
<feGaussianBlur stdDeviation="2"/>
<feComposite in2="hardAlpha" operator="out"/>
<feColorMatrix type="matrix" values="0 0 0 0 0 0 0 0 0 0 0 0 0 0 0 0 0 0 0.25 0"/>
<feBlend mode="normal" in2="BackgroundImageFix" result="effect1_dropShadow_313_2"/>
<feBlend mode="normal" in="SourceGraphic" in2="effect1_dropShadow_313_2" result="shape"/>
</filter>
<filter id="filter1_d_313_2" x="0" y="0" width="973.617" height="928.097" filterUnits="userSpaceOnUse" color-interpolation-filters="sRGB">
<feFlood flood-opacity="0" result="BackgroundImageFix"/>
<feColorMatrix in="SourceAlpha" type="matrix" values="0 0 0 0 0 0 0 0 0 0 0 0 0 0 0 0 0 0 127 0" result="hardAlpha"/>
<feOffset dy="4"/>
<feGaussianBlur stdDeviation="2"/>
<feComposite in2="hardAlpha" operator="out"/>
<feColorMatrix type="matrix" values="0 0 0 0 0 0 0 0 0 0 0 0 0 0 0 0 0 0 0.25 0"/>
<feBlend mode="normal" in2="BackgroundImageFix" result="effect1_dropShadow_313_2"/>
<feBlend mode="normal" in="SourceGraphic" in2="effect1_dropShadow_313_2" result="shape"/>
</filter>
<filter id="filter2_d_313_2" x="677.966" y="551.09" width="974.586" height="929.065" filterUnits="userSpaceOnUse" color-interpolation-filters="sRGB">
<feFlood flood-opacity="0" result="BackgroundImageFix"/>
<feColorMatrix in="SourceAlpha" type="matrix" values="0 0 0 0 0 0 0 0 0 0 0 0 0 0 0 0 0 0 127 0" result="hardAlpha"/>
<feOffset dy="4"/>
<feGaussianBlur stdDeviation="2"/>
<feComposite in2="hardAlpha" operator="out"/>
<feColorMatrix type="matrix" values="0 0 0 0 0 0 0 0 0 0 0 0 0 0 0 0 0 0 0.25 0"/>
<feBlend mode="normal" in2="BackgroundImageFix" result="effect1_dropShadow_313_2"/>
<feBlend mode="normal" in="SourceGraphic" in2="effect1_dropShadow_313_2" result="shape"/>
</filter>
<filter id="filter3_d_313_2" x="5.81104" y="551.09" width="972.649" height="928.097" filterUnits="userSpaceOnUse" color-interpolation-filters="sRGB">
<feFlood flood-opacity="0" result="BackgroundImageFix"/>
<feColorMatrix in="SourceAlpha" type="matrix" values="0 0 0 0 0 0 0 0 0 0 0 0 0 0 0 0 0 0 127 0" result="hardAlpha"/>
<feOffset dy="4"/>
<feGaussianBlur stdDeviation="2"/>
<feComposite in2="hardAlpha" operator="out"/>
<feColorMatrix type="matrix" values="0 0 0 0 0 0 0 0 0 0 0 0 0 0 0 0 0 0 0.25 0"/>
<feBlend mode="normal" in2="BackgroundImageFix" result="effect1_dropShadow_313_2"/>
<feBlend mode="normal" in="SourceGraphic" in2="effect1_dropShadow_313_2" result="shape"/>
</filter>
<filter id="filter4_d_313_2" x="680.872" y="0.968536" width="974.586" height="932.94" filterUnits="userSpaceOnUse" color-interpolation-filters="sRGB">
<feFlood flood-opacity="0" result="BackgroundImageFix"/>
<feColorMatrix in="SourceAlpha" type="matrix" values="0 0 0 0 0 0 0 0 0 0 0 0 0 0 0 0 0 0 127 0" result="hardAlpha"/>
<feOffset dy="4"/>
<feGaussianBlur stdDeviation="2"/>
<feComposite in2="hardAlpha" operator="out"/>
<feColorMatrix type="matrix" values="0 0 0 0 0 0 0 0 0 0 0 0 0 0 0 0 0 0 0.25 0"/>
<feBlend mode="normal" in2="BackgroundImageFix" result="effect1_dropShadow_313_2"/>
<feBlend mode="normal" in="SourceGraphic" in2="effect1_dropShadow_313_2" result="shape"/>
</filter>
</defs>
</svg>
